<svg xmlns="http://www.w3.org/2000/svg" xmlns:xlink="http://www.w3.org/1999/xlink" viewBox="0 0 539.55 14.62"><defs><clipPath id="6b9ebba0-24a3-423c-bfc4-a97042eb35f7" transform="translate(-0.95 -0.56)"><rect width="541" height="16" fill="none"/></clipPath></defs><title>download</title><g id="f08011cb-d83c-4858-b9c0-09ccb9480ff7" data-name="レイヤー 2"><g id="605ad3d4-f5bc-4e71-8b0d-bf2e7202b77d" data-name="レイヤー 2"><g clip-path="url(#6b9ebba0-24a3-423c-bfc4-a97042eb35f7)"><line y1="3" x2="132.89" y2="3" fill="none" stroke="#000" stroke-miterlimit="10" stroke-width="2.83"/><line x1="406.66" y1="3" x2="539.55" y2="3" fill="none" stroke="#000" stroke-miterlimit="10" stroke-width="2.83"/><path d="M202.39,10.82h2.07V1.59h.9v9.22h2.07l-2.52,4.26Z" transform="translate(-0.95 -0.56)"/><path d="M234.32,5.52a20.35,20.35,0,0,1-2,2.66c-.66.73-.93,1-1.41,1a1.06,1.06,0,0,1-1.07-1c0-.4.22-.62.54-.93a19.27,19.27,0,0,0,3.4-4.69c.28-.48.46-.79,1-.79s1.14.39,1.14.83a2.34,2.34,0,0,1-.43,1.1h2.72c1.61,0,1.61,1.1,1.61,1.24a12.71,12.71,0,0,1-2.07,4.44c.8.68,1,1,1,1.37a1.16,1.16,0,0,1-1.07,1.16c-.39,0-.56-.16-1.2-.8-2.9,3.4-5.37,4.14-5.67,4.14a1.09,1.09,0,0,1-1-1.08c0-.56.29-.7,1-1.08a13.06,13.06,0,0,0,4.14-3.31c-.14-.12-.82-.59-1.22-.87s-.56-.39-.56-.82a1.07,1.07,0,0,1,1-1.05c.37,0,.54.08,2,1.11a14.83,14.83,0,0,0,1.39-2.56Zm5-4c.45,0,1.67,1.53,1.67,1.92a.61.61,0,0,1-.6.56c-.22,0-.26-.06-.73-.67a8.6,8.6,0,0,0-.74-.85.61.61,0,0,1-.19-.42A.57.57,0,0,1,239.31,1.55Zm1.34-1c.32,0,.74.49,1,.83s.65.8.65,1.08a.62.62,0,0,1-.6.57c-.22,0-.29-.11-.8-.77-.11-.14-.43-.51-.66-.77a.52.52,0,0,1-.19-.4A.59.59,0,0,1,240.65.56Z" transform="translate(-0.95 -0.56)"/><path d="M247.52,3.74V2.45c0-.59.23-1,1.1-1a.9.9,0,0,1,1,1V3.74h2.22c1,0,2.15.26,2.15,2a10.34,10.34,0,0,1-2.45,6.1,8.86,8.86,0,0,1-4.46,3A1.1,1.1,0,0,1,246,13.71c0-.36.17-.6.65-.82a9.62,9.62,0,0,0,1.54-.77,8.14,8.14,0,0,0,3.67-6.06c0-.37-.17-.39-.4-.39h-5.66c-.46,0-.48.29-.48.53V8.28a1,1,0,0,1-2.07,0V6a2,2,0,0,1,2.22-2.28Z" transform="translate(-0.95 -0.56)"/><path d="M259.88,4.2c.65.42,1.08.7,1.08,1.25a1.18,1.18,0,0,1-1.07,1.21c-.31,0-.39-.06-1.19-.66a14.17,14.17,0,0,0-1.33-.85c-.4-.23-.6-.42-.6-.82a1.15,1.15,0,0,1,1.11-1.14C258.2,3.18,258.4,3.21,259.88,4.2Zm8.42,1.24c0,.56-.86,1.59-1.51,2.36-3.71,4.39-8.26,6.26-8.88,6.26a1.18,1.18,0,0,1-1.13-1.21c0-.62.34-.76,1.07-1.07a19.25,19.25,0,0,0,8-6.16c.87-1.13,1-1.25,1.39-1.25A1.11,1.11,0,0,1,268.3,5.44Z" transform="translate(-0.95 -0.56)"/><path d="M280.93,10.71a1.84,1.84,0,0,1-2.08,2.09H272.9a1.85,1.85,0,0,1-2.08-2.09v-5a1.84,1.84,0,0,1,2.08-2.09h5.94a1.85,1.85,0,0,1,2.08,2.09ZM278.81,6c0-.15,0-.36-.33-.36h-5.23c-.33,0-.33.2-.33.36v4.48c0,.17,0,.37.33.37h5.23c.33,0,.33-.2.33-.37Z" transform="translate(-0.95 -0.56)"/><path d="M295.56,7.11a1,1,0,0,1,1.07,1,1,1,0,0,1-1.07,1h-10.9a1,1,0,0,1-1.07-1,1,1,0,0,1,1.07-1.07Z" transform="translate(-0.95 -0.56)"/><path d="M302.7,14a.94.94,0,0,1-1,1,1,1,0,0,1-1.07-1V2.39a.93.93,0,0,1,1-1,.94.94,0,0,1,1.07,1V5.47a24.44,24.44,0,0,1,3,1.7c1,.63,1.28.93,1.28,1.51a1.09,1.09,0,0,1-1.05,1.13c-.37,0-.48-.08-1.41-.77a13.3,13.3,0,0,0-1.82-1.17Zm2.94-11.54c.32,0,.76.53,1,.82a2.93,2.93,0,0,1,.73,1.19.61.61,0,0,1-.62.57c-.28,0-.32-.09-.88-.82-.09-.12-.16-.19-.71-.79A.57.57,0,0,1,305,3,.6.6,0,0,1,305.64,2.43Zm1.42-1c.32,0,.79.54,1.07.87s.7.85.7,1.13a.63.63,0,0,1-.63.6c-.23,0-.29-.08-.83-.77-.08-.09-.37-.45-.73-.82a.62.62,0,0,1-.19-.43A.61.61,0,0,1,307.06,1.43Z" transform="translate(-0.95 -0.56)"/><path d="M330.57,10.82h2.07V1.59h.9v9.22h2.07l-2.52,4.26Z" transform="translate(-0.95 -0.56)"/></g></g></g></svg>