<svg xmlns="http://www.w3.org/2000/svg" xmlns:xlink="http://www.w3.org/1999/xlink" viewBox="0 0 226 32"><defs><clipPath id="38b1a875-f697-4d4f-8c60-b16de9494bcb" transform="translate(-0.73 -1)"><rect width="227" height="33" fill="none"/></clipPath></defs><title>function</title><g id="8dc4d008-82ed-44be-9d91-a5389300c9df" data-name="レイヤー 2"><g id="3d853891-e70b-4937-8867-c61847026dc0" data-name="レイヤー 2"><g clip-path="url(#38b1a875-f697-4d4f-8c60-b16de9494bcb)"><path d="M213.74,33c17.32,0,17.32-32,0-32h-200C-3.6,1-3.6,33,13.72,33Z" transform="translate(-0.73 -1)" fill="#f7931e"/><path d="M42.21,23.25a1,1,0,0,1-1.09,1,1,1,0,0,1-1-1V13.72c0-1.24.52-1.9,1.83-1.9h4.39a3.34,3.34,0,0,1,3.57,3.46,3.33,3.33,0,0,1-2.64,3.43,3.44,3.44,0,0,1,1,1.13l1.59,2.67a1.56,1.56,0,0,1,.26.77,1.06,1.06,0,0,1-1.09,1,1,1,0,0,1-1.08-.63L47,21.88c-.51-1-1.72-3.05-2.68-3.05H42.21Zm3.59-6.48c1,0,1.86-.26,1.86-1.47s-.8-1.42-1.73-1.42h-3c-.53,0-.74.06-.74.6v2.29Z" transform="translate(-0.73 -1)"/><path d="M58.23,16.68a1,1,0,0,1,1,1.07.93.93,0,0,1-1,1h-4.4v2.67a.43.43,0,0,0,.45.43h4.29a1,1,0,0,1,1.13,1.09,1,1,0,0,1-1.1,1H53.39c-1.09,0-1.65-.57-1.65-1.93V13.61a1.59,1.59,0,0,1,1.62-1.79H58.6a1,1,0,0,1,1.16,1.11,1,1,0,0,1-1.1,1H54.24c-.28,0-.36.23-.36.46v2.25Z" transform="translate(-0.73 -1)"/><path d="M71.14,14.68A1,1,0,0,1,70,15.75a.89.89,0,0,1-.88-.46,2.55,2.55,0,0,0-2.61-1.53c-3.34,0-3.48,3.35-3.48,4.17,0,1.48.57,4.14,3.38,4.14A2.48,2.48,0,0,0,69,20.61c.26-.48.46-.85,1.1-.85a1,1,0,0,1,1.08,1c0,.65-.83,3.53-4.67,3.53-4.29,0-5.68-3.5-5.68-6.33,0-3.3,1.8-6.39,5.66-6.39C69.49,11.55,71.14,13.53,71.14,14.68Z" transform="translate(-0.73 -1)"/><path d="M73,12.65a1,1,0,0,1,1-1.1,1.08,1.08,0,0,1,1.11,1.1V23.17a1,1,0,0,1-1,1.1A1.08,1.08,0,0,1,73,23.17Z" transform="translate(-0.73 -1)"/><path d="M78.22,13.84a1,1,0,0,1,0-2H84.4c.94,0,1.62.43,1.62,1.31a2.21,2.21,0,0,1-.49,1.22l-6,7.62h5.9a1,1,0,0,1,0,2H78.32c-1.14,0-1.59-.63-1.59-1.17a2,2,0,0,1,.48-1.28l6.09-7.7Z" transform="translate(-0.73 -1)"/><path d="M87,17.91c0-2.81,1.56-6.36,5.59-6.36s5.57,3.56,5.57,6.36-1.55,6.36-5.57,6.36S87,20.69,87,17.91Zm2.25,0c0,1.87.93,4.21,3.32,4.21s3.32-2.42,3.32-4.21S95,13.7,92.58,13.7,89.24,15.9,89.24,17.91Z" transform="translate(-0.73 -1)"/><path d="M105.57,23.28c-1.5,0-2.28-1.41-2.28-3.41a7.07,7.07,0,0,1,7.2-7,5.31,5.31,0,0,1,5.67,5.44,6.16,6.16,0,0,1-5.1,6,1,1,0,0,1-1-1.1c0-.63.4-.76,1-.94a4.16,4.16,0,0,0,3.07-4,3.43,3.43,0,0,0-3.2-3.62C110.38,17.77,108.38,23.28,105.57,23.28Zm1-6.92a5.61,5.61,0,0,0-1.44,3.72c0,.62.17,1.08.46,1.08s1-.85,1.33-1.47a14.37,14.37,0,0,0,1.84-4.77A5.12,5.12,0,0,0,106.62,16.36Z" transform="translate(-0.73 -1)"/><path d="M121.79,18.81a1,1,0,0,1-1.07-1,1,1,0,0,1,1-1h1.51a1.84,1.84,0,0,0,2.05-1.61c0-1-1.14-1.31-1.84-1.31a2,2,0,0,0-2,1c-.43.68-.62.84-1.11.84s-1.26-.33-1.26-1c0-1.17,1.67-2.88,4.42-2.88,2.43,0,4.14,1.3,4.14,3.24A2.9,2.9,0,0,1,126,17.7a2.9,2.9,0,0,1,1.75,2.77c0,2.09-1.74,3.81-4.54,3.81-3,0-4.58-2-4.58-2.91a1.22,1.22,0,0,1,1.21-1.07c.54,0,.72.23,1.23.84a3,3,0,0,0,2.21,1.1c.79,0,2.13-.48,2.13-1.76s-1.2-1.68-2-1.68Z" transform="translate(-0.73 -1)"/><path d="M138.73,15.9A19.64,19.64,0,0,0,133.52,17c-.31.09-1.67.59-2,.66a2.49,2.49,0,0,1-.51.08,1.07,1.07,0,0,1-1-1.13c0-.74.54-.91,1.16-1.1,1.19-.37,5.24-1.62,7.52-1.62S143.4,15,143.4,18c0,3.17-2.44,4.5-4.42,5.05a12.41,12.41,0,0,1-3,.46,1,1,0,0,1-1.13-1.05c0-.85.51-.9,1.84-1,.73-.06,4.62-.4,4.62-3.45C141.27,16,139.33,15.9,138.73,15.9Z" transform="translate(-0.73 -1)"/><path d="M147.29,23.28c-1.5,0-2.28-1.41-2.28-3.41a7.07,7.07,0,0,1,7.2-7,5.31,5.31,0,0,1,5.67,5.44,6.16,6.16,0,0,1-5.1,6,1,1,0,0,1-1-1.1c0-.63.4-.76,1-.94a4.16,4.16,0,0,0,3.07-4,3.43,3.43,0,0,0-3.2-3.62C152.09,17.77,150.1,23.28,147.29,23.28Zm1-6.92a5.61,5.61,0,0,0-1.44,3.72c0,.62.17,1.08.46,1.08s1-.85,1.33-1.47a14.37,14.37,0,0,0,1.84-4.77A5.12,5.12,0,0,0,148.34,16.36Z" transform="translate(-0.73 -1)"/><path d="M172,18.34c.88,0,1.41,0,1.41.78s-.59.78-1.2.78h-2.28a10,10,0,0,0,.5,1.38c.21-.25.27-.32.69-.9a.74.74,0,0,1,.65-.39c.24,0,.87.3.87.84s-.67,1.23-1.29,1.92c.22.32.31.44.48.44s.18-.06.35-.57a.64.64,0,0,1,.63-.51.81.81,0,0,1,.83.78c0,.83-.6,2.31-1.55,2.31A3,3,0,0,1,170,24a6.55,6.55,0,0,1-2.58,1.33.81.81,0,0,1-.84-.84.91.91,0,0,1,.58-.84,7.78,7.78,0,0,0,1.94-1.11,14.56,14.56,0,0,1-1-2.59h-2.49v.39c.36.22,1.17.87,1.75,1.33a.77.77,0,0,1,.36.65.89.89,0,0,1-.83.82,1,1,0,0,1-.66-.33c-.12-.1-.62-.52-.72-.6a9.17,9.17,0,0,1-.56,2.31.77.77,0,0,1-.76.58.86.86,0,0,1-.92-.78,8.83,8.83,0,0,1,.39-1.21,9.45,9.45,0,0,0,.33-2.66v-.51a.73.73,0,0,1-.67-.29.69.69,0,0,1-.69-.33V24c0,.6,0,1.2-.78,1.2s-.84-.53-.84-1.2V19.82c-.41.84-.56,1.13-1,1.13a.85.85,0,0,1-.81-.78,4.94,4.94,0,0,1,.48-1.14,18.7,18.7,0,0,0,1.17-3.22c-.78,0-1.33,0-1.33-.79s.5-.88,1.21-.88h.3V12.69c0-.6,0-1.2.78-1.2s.84.52.84,1.2v1.42a3.21,3.21,0,0,1,.67,0,.62.62,0,0,1-.25-.54c0-.14.12-.75.71-.75a.75.75,0,0,1,.46.16c.81-1.33.9-1.48,1.29-1.48a.57.57,0,0,1,.6.55,5.3,5.3,0,0,1-.87,1.68l.33.27c.09-.15.3-.46.63-1.09a.62.62,0,0,1,.57-.41.59.59,0,0,1,.62.63,6,6,0,0,1-.89,1.79.3.3,0,0,1,.21-.06c.51,0,.62.3.89,1.19-.09-1.92-.14-2.62-.14-3.17,0-1,0-1.42.84-1.42a.72.72,0,0,1,.76.46,4.25,4.25,0,0,1,.08,1.09.61.61,0,0,1,.41,0c.13-.22.67-1.21.81-1.4a.57.57,0,0,1,.5-.25.64.64,0,0,1,.66.66,7,7,0,0,1-1,1.82l.33.33c.45-.66.68-1,.89-1.37s.39-.6.72-.6a.66.66,0,0,1,.66.69,6.36,6.36,0,0,1-1,1.86.41.41,0,0,1,.23-.06c.48,0,.63.56.67.71a13.08,13.08,0,0,1,.39,1.77.64.64,0,0,1-.55.66.66.66,0,0,1-.5-.28l-.69.07Zm-4.11,0a5,5,0,0,1-.08-.51.26.26,0,0,1-.22.09.75.75,0,0,1-.46-.19,23.58,23.58,0,0,1-2.88.21c-.27,0-1,0-1-.72,0-.08,0-.64.75-.72.38-.48.57-.76.87-1.21l-1-.79a1.28,1.28,0,0,1,.09.51c0,.79-.58.79-1.21.79v.76a11.7,11.7,0,0,0,1.18,1.8,4.26,4.26,0,0,1,.57,0Zm-1.28-2a3.35,3.35,0,0,1-.25-.92.45.45,0,0,1,0-.15,10.56,10.56,0,0,1-.75,1.14C165.95,16.42,166.2,16.41,166.59,16.37Zm3.5-.95-.82-.79c0,1.17,0,1.3.06,1.79A12.42,12.42,0,0,0,170.09,15.42Zm.24,2.38-.85,0c0,.2,0,.32.07.5h.92Zm1.75-1.57a2.17,2.17,0,0,1-.19-.92c-.23.34-.47.67-.71,1Z" transform="translate(-0.73 -1)"/><path d="M176.69,11.92a.73.73,0,0,1,.71-.63c.06,0,1,0,1,.76a10.36,10.36,0,0,1-.63,1.92c1.08-.09,1.67-.2,2.1-.27-.11-.24-.21-.48-.39-.81a.92.92,0,0,1-.1-.42c0-.56.74-.8,1-.8.46,0,.53.14,1.32,1.77a7.27,7.27,0,0,1,.63,1.71.91.91,0,0,1-.95.83c-.49,0-.63-.29-.84-.77a26.43,26.43,0,0,1-4.65.56c-.72,0-1-.24-1-.87,0-.83.55-.84,1.09-.86A15.05,15.05,0,0,0,176.69,11.92Zm.39,10.5v1.46c0,.66,0,1.2-.83,1.2s-.95-.42-.95-1.2V17.34a1.19,1.19,0,0,1,1.29-1.14h4a1.17,1.17,0,0,1,1.32,1.21v6.36c0,.78-.54,1.32-1.63,1.32a6.41,6.41,0,0,1-2-.31.76.76,0,0,1-.42-.72.8.8,0,0,1,.74-.85c.18,0,1,.17,1.14.17.39,0,.42-.17.42-.44v-.51Zm3.09-3.79v-.47c0-.23-.12-.33-.34-.33h-2.39c-.12,0-.36,0-.36.33v.47Zm0,2.31v-.8h-3.09v.8Zm4.26-5.31c0,.23.08.39.38.39h1.63c.39,0,.5-.06.62-.58s.15-.69.75-.69a.75.75,0,0,1,.86.74,3.29,3.29,0,0,1-.54,1.68,1.55,1.55,0,0,1-1.2.45h-2.4c-.34,0-1.83,0-1.83-1.41V12.75c0-.65,0-1.2.83-1.2s.92.51.92,1.2V13a16.42,16.42,0,0,0,1.88-.48,8.36,8.36,0,0,1,1.23-.33.8.8,0,0,1,.84.86c0,.63-.48.76-.84.88a23.68,23.68,0,0,1-3.11.66Zm0,7.2c0,.24.08.48.5.48h1.21c.71,0,.74-.18.84-.87,0-.3.1-.78.84-.78s.85.58.85.95a3.15,3.15,0,0,1-.5,1.71,1.58,1.58,0,0,1-1.48.67h-2.31a1.5,1.5,0,0,1-1.74-1.56V19.37c0-.56,0-1.2.89-1.2s.9.6.9,1.2V20a17.94,17.94,0,0,0,2.25-.65,5.74,5.74,0,0,1,.92-.27c.56,0,.79.57.79,1s-.13.71-1.48,1.08a19.9,19.9,0,0,1-2.48.55Z" transform="translate(-0.73 -1)"/></g></g></g></svg>