<svg xmlns="http://www.w3.org/2000/svg" xmlns:xlink="http://www.w3.org/1999/xlink" viewBox="0 0 72.96 13.93"><defs><clipPath id="f744d454-b8fc-4bd2-937a-ffb914a7c4bd" transform="translate(-0.51 -0.51)"><rect x="0.24" y="0.12" width="74" height="15" fill="none"/></clipPath></defs><title>function1_text</title><g id="afb75bca-82a5-4985-933e-c00b613da7bc" data-name="レイヤー 2"><g id="6f77bbfc-1588-4f83-9734-4f055699b616" data-name="レイヤー 2"><g clip-path="url(#f744d454-b8fc-4bd2-937a-ffb914a7c4bd)"><path d="M4.37,10.11v2.36c.29,0,1.53-.24,1.79-.24A.83.83,0,0,1,7,13.1c0,.72-.5.79-1.5,1a29.83,29.83,0,0,1-3.83.34.86.86,0,0,1-.95-.93.79.79,0,0,1,.74-.81l1.09-.06V5.88a1.4,1.4,0,0,1,.63-1.27,6.7,6.7,0,0,1-1.92.6.86.86,0,0,1-.79-.93.73.73,0,0,1,.58-.77A22.8,22.8,0,0,0,6.46.92a1.57,1.57,0,0,1,1-.41A1.7,1.7,0,0,1,8.55.93a29.59,29.59,0,0,0,4.11,2.24c1.56.57,1.75.65,1.75,1.2s-.36,1-.86,1A6.43,6.43,0,0,1,12.25,5a1.14,1.14,0,0,1,.17.5V9a.9.9,0,0,1-.21.6.81.81,0,0,1,.79.82c0,.54-.06.59-1.68,1.86a9.86,9.86,0,0,0,2.14.41.79.79,0,0,1,.74.82c0,.1,0,.91-1,.91a10.07,10.07,0,0,1-5-1.74,6.31,6.31,0,0,1-2-2.6ZM11,4.41c-.29-.15-1.12-.58-2.12-1.18-.22-.14-1.3-.9-1.36-.9s-.17.08-.36.22A17.16,17.16,0,0,1,3.58,4.46a1.66,1.66,0,0,1,.33,0H6.58v-.6c0-.72.41-.86,1-.86a.75.75,0,0,1,.85.86v.6ZM4.67,6c-.3,0-.3,0-.3.51h6.25c0-.47,0-.51-.33-.51Zm5.62,2.51c.33,0,.34,0,.34-.54H4.37v.54Zm-2,1.59a4.62,4.62,0,0,0,1.38,1.4c.81-.65.93-.74,1.67-1.4h-3Z" transform="translate(-0.51 -0.51)"/><path d="M17,5c-.6,0-1.2,0-1.2-.81s.54-.87,1.2-.87h.89V2c0-.66,0-1.26.82-1.26s.95.5.95,1.26V3.27H20c.61,0,1.2,0,1.2.81S20.64,5,20,5h-.36v1a18.09,18.09,0,0,0,1.74,2,.87.87,0,0,1,.33.69.79.79,0,0,1-.81.84c-.34,0-.67-.27-1.26-.92v4.65c0,.67,0,1.26-.83,1.26s-.94-.5-.94-1.26V8.78a14.07,14.07,0,0,1-1,1.48.91.91,0,0,1-.74.38.84.84,0,0,1-.79-.81c0-.3.08-.39.63-1.18A14.49,14.49,0,0,0,17.67,5ZM22.7,5c-.62,0-1.21,0-1.21-.84s.54-.88,1.21-.88h3.36V1.91c0-.46,0-1.2.84-1.2,1,0,1,.53,1,1.2V3.23c.9,0,1.44,0,1.44.84S28.91,5,27.95,5v7.75c0,.78,0,1.56-1.86,1.56a5.43,5.43,0,0,1-2.34-.47.69.69,0,0,1-.37-.64c0-.15,0-1,.78-1a3.66,3.66,0,0,1,.79.17,3.28,3.28,0,0,0,.81.1c.25,0,.3-.07.3-.33v-6c-1.08,3-3.69,6-4.63,6a1,1,0,0,1-.89-.95c0-.3.2-.48.58-.87A14.14,14.14,0,0,0,24.69,5Z" transform="translate(-0.51 -0.51)"/><path d="M32.54,12.48c-1.5,0-2.28-1.41-2.28-3.41a7.07,7.07,0,0,1,7.2-7,5.31,5.31,0,0,1,5.67,5.44,6.16,6.16,0,0,1-5.1,6,1,1,0,0,1-1-1.1c0-.63.4-.76,1-.94a4.16,4.16,0,0,0,3.07-4,3.43,3.43,0,0,0-3.2-3.62C37.34,7,35.35,12.48,32.54,12.48Zm1-6.92a5.61,5.61,0,0,0-1.44,3.72c0,.62.17,1.08.46,1.08s1-.85,1.33-1.47a14.37,14.37,0,0,0,1.84-4.77A5.12,5.12,0,0,0,33.59,5.56Z" transform="translate(-0.51 -0.51)"/><path d="M50.5,1.58c.61,0,1.18,0,1.18.67s-.6.66-1.18.66H49a1.76,1.76,0,0,1,.44.87c0,.45-.57.71-.87.71S48.07,4.33,47.17,3c-.72,1-1,1.19-1.4,1.19a.93.93,0,0,1-.93-.9c0-.33.17-.5.39-.77s1-1.36,1.23-1.66a.75.75,0,0,1,.63-.3.92.92,0,0,1,.95.77.88.88,0,0,1,0,.25Zm5.21,1.33c.45.51.51.57.51.81a.71.71,0,0,1-.74.69c-.55,0-1.15-.66-1.89-1.49C53,4,52.77,4.12,52.3,4.14a1.21,1.21,0,0,1,.08.51h3.9c1.73,0,2,.09,2,1.57v.92c0,.64,0,1.2-.83,1.2s-.87-.58-.87-1.2V6.81c0-.63,0-.63-.64-.63H47.17c-.62,0-.65,0-.65.63v.33c0,.6,0,1.2-.85,1.2s-.75-.48-.75-1.2V6.22c0-1.48.25-1.57,2-1.57h3.64c0-.95.58-1,1-1a.78.78,0,0,1-.07-.33.7.7,0,0,1,0-.26c0-.17.55-1.06.66-1.27C52.69.66,52.75.54,53.19.54c.15,0,1,0,1,.75a1.09,1.09,0,0,1,0,.29h3c.6,0,1.19,0,1.19.67s-.58.66-1.17.66Zm-7,7.62H55c1.62,0,1.74.22,1.74,1.39v.87c0,1.33-.55,1.41-1.83,1.41H49.21c-1.68,0-2.33-.13-2.33-1.53V8.11c0-1.47.57-1.47,1.89-1.47h5.57c1.65,0,1.8.18,1.8,1.33v.5c0,1.53-.41,1.54-1.67,1.54H48.72Zm0-1.83H54c.43,0,.43,0,.43-.5C54.39,8,54.31,8,54,8H49c-.25,0-.25.15-.25.41Zm0,3.19v.35c0,.36,0,.41.43.41h5.39c.28,0,.39,0,.42-.11a3.52,3.52,0,0,0,0-.44c0-.21,0-.21-.37-.21Z" transform="translate(-0.51 -0.51)"/><path d="M63.13,5.75c.84,0,1.32,0,1.32.86s-.48.85-1.32.85v3a2,2,0,0,1,.67-.13c.58,0,.86.64.86.94,0,.6-.6.76-.92.85a24.35,24.35,0,0,1-3.34.69c-.81,0-.84-.83-.84-.95a.77.77,0,0,1,.63-.78c.19,0,1-.18,1.21-.21V7.46H61c-.69,0-1.19,0-1.19-.81s.68-.9,1.19-.9h.38V3H60.9c-.5,0-1.2,0-1.2-.82s.71-.83,1.2-.83h2.37c.5,0,1.2,0,1.2.83S63.79,3,63.13,3ZM72,9.6c.61,0,1.2,0,1.2.78s-.52.84-1.2.84H69.75V12.3h2.52c.61,0,1.2,0,1.2.79s-.5.88-1.2.88H65.21c-.61,0-1.2,0-1.2-.79s.5-.88,1.2-.88H68V11.22H65.77c-.61,0-1.2,0-1.2-.78s.53-.84,1.2-.84H68V8.53H66.22a1.32,1.32,0,0,1-1.42-1.3v-5A1.31,1.31,0,0,1,66.22,1h5.33A1.32,1.32,0,0,1,73,2.26v5a1.33,1.33,0,0,1-1.44,1.3h-1.8V9.6ZM68,3.92V2.59H66.9c-.17,0-.3.07-.3.38v.95ZM66.6,5.56v1c0,.32.14.39.3.39H68V5.56Zm4.62-1.65V3c0-.3-.13-.37-.3-.37H69.75V3.92ZM69.75,5.56V6.92h1.17c.17,0,.3-.08.3-.39v-1Z" transform="translate(-0.51 -0.51)"/></g></g></g></svg>