<svg xmlns="http://www.w3.org/2000/svg" xmlns:xlink="http://www.w3.org/1999/xlink" viewBox="0 0 82.84 13.91"><defs><clipPath id="223dc5e2-27a9-4c3b-9193-6941df6dd22a" transform="translate(-2.91 -0.53)"><rect x="2.16" y="0.12" width="84" height="15" fill="none"/></clipPath></defs><title>function2_text</title><g id="42f11569-1870-49d1-b0c2-159122d3fedf" data-name="レイヤー 2"><g id="6d494144-2b7c-4c2c-93a6-0dc5804200b6" data-name="レイヤー 2"><g clip-path="url(#223dc5e2-27a9-4c3b-9193-6941df6dd22a)"><path d="M2.91,3.45A.93.93,0,0,1,4,2.46c.72,0,1.1.32,1.1,1v6.64a21.46,21.46,0,0,0,6.74-4c.76-.66.83-.74,1.19-.74a1.1,1.1,0,0,1,1,1.1c0,.37,0,.74-2.46,2.46C8.38,11.2,5,12.42,4.11,12.42a1.13,1.13,0,0,1-1.2-1.3Z" transform="translate(-2.91 -0.53)"/><path d="M19.12,5.75c.68.37,1,.63,1,1.21a1.11,1.11,0,0,1-1,1.16c-.25,0-.34-.06-1.22-.57-.22-.12-1.16-.6-1.34-.73a.82.82,0,0,1-.39-.7A1.15,1.15,0,0,1,17.28,5,6.31,6.31,0,0,1,19.12,5.75Zm9-1.17c0,.7-1.45,3.4-4.26,5.61a14.4,14.4,0,0,1-6.13,3A1.14,1.14,0,0,1,16.58,12c0-.73.36-.83,1.33-1.11a13.29,13.29,0,0,0,7.86-6.18c.56-1,.65-1.18,1.17-1.18A1.16,1.16,0,0,1,28.12,4.58Zm-7.4-1.82c.76.43,1.13.67,1.13,1.27a1.09,1.09,0,0,1-1,1.16c-.28,0-.39-.08-1.19-.57-.23-.14-1.28-.74-1.41-.85A.81.81,0,0,1,18,3.12,1.08,1.08,0,0,1,19,2C19.25,2,19.46,2,20.72,2.75Z" transform="translate(-2.91 -0.53)"/><path d="M33.09,6.26A12.94,12.94,0,0,0,37,4.39a1.85,1.85,0,0,1,1.08-.48,1.11,1.11,0,0,1,1,1.13c0,.42-.22.65-.78,1.07a17.24,17.24,0,0,1-5.27,2.26v1.87c0,.82,0,.9,2,.9a20.31,20.31,0,0,0,3-.2c.19,0,1-.16,1.16-.16a.91.91,0,0,1,1,1c0,1-.58,1.05-1.34,1.14a38.18,38.18,0,0,1-4.2.22c-2.29,0-3.68-.11-3.68-3V2.9c0-.76.43-1,1.07-1,.79,0,1,.45,1,1ZM42,2.39a1.63,1.63,0,1,1-3.25,0,1.63,1.63,0,0,1,3.25,0Zm-2.43,0a.8.8,0,1,0,.79-.8A.8.8,0,0,0,39.6,2.39Z" transform="translate(-2.91 -0.53)"/><path d="M44.73,12.48c-1.5,0-2.28-1.41-2.28-3.41a7.07,7.07,0,0,1,7.2-7,5.31,5.31,0,0,1,5.67,5.44,6.16,6.16,0,0,1-5.1,6,1,1,0,0,1-1-1.1c0-.63.4-.76,1-.94a4.16,4.16,0,0,0,3.07-4,3.43,3.43,0,0,0-3.2-3.62C49.54,7,47.54,12.48,44.73,12.48Zm1-6.92a5.61,5.61,0,0,0-1.44,3.72c0,.62.17,1.08.46,1.08s1-.85,1.33-1.47A14.37,14.37,0,0,0,48,4.12,5.12,5.12,0,0,0,45.78,5.56Z" transform="translate(-2.91 -0.53)"/><path d="M67.2,6.2h2.19a.89.89,0,0,1,1,.88V9.56a.88.88,0,0,1-1,.88H67.62a6.49,6.49,0,0,0,2.56,2.13,1,1,0,0,1,.57.84c0,.3-.15.9-.73.9-1.21,0-3.18-2.28-3.55-2.78-.57,1-2.64,2.83-3.85,2.83a.84.84,0,0,1-.87-.87.77.77,0,0,1,.56-.78,5.27,5.27,0,0,0,2.8-2.28H63.26a.89.89,0,0,1-1-.88V8.31a1.15,1.15,0,0,1-.74.36c-.29,0-.36-.09-1-.93v5.49c0,.58,0,1.2-.85,1.2s-.87-.63-.87-1.2V8.76C58.2,10,58,10.2,57.59,10.2a.82.82,0,0,1-.83-.76c0-.25.08-.48.57-1.31A14.57,14.57,0,0,0,58.74,5h-.46c-.46,0-1.2,0-1.2-.87s.74-.87,1.2-.87h.48V1.74c0-.57,0-1.2.87-1.18s.85.61.85,1.18V3.27c.77,0,1,0,1.26.29.09-.12.12-.14.38-.3a15.61,15.61,0,0,0,2.32-1.69c1-.93,1.1-1,1.58-1a1.77,1.77,0,0,1,1.21.57,27.79,27.79,0,0,0,2.69,2c.67.41.88.53.88,1A.87.87,0,0,1,70,5c-.3,0-.4-.06-.82-.33,0,.76-.57.76-1.2.76H67.2Zm-1.78-.74H64.37c-.62,0-1.2,0-1.2-.78a1,1,0,0,1-.67.27.83.83,0,0,1-.66-.37c-.23.43-.56.43-1.35.43v.21C60.74,5.58,62,7,62.25,7.33V7.08a.89.89,0,0,1,1-.88h2.16Zm0,2.29H64.08c-.27,0-.3,0-.3.33V8.5c0,.33,0,.33.3.33H65.4c0-.15,0-.37,0-.46ZM68,3.92c-.5-.37-1.85-1.53-2-1.53s-.15,0-.69.56a10.45,10.45,0,0,1-1.17,1ZM67.2,8.33a5,5,0,0,1,0,.51h1.4c.29,0,.3,0,.3-.33V8.08c0-.33,0-.33-.3-.33H67.2Z" transform="translate(-2.91 -0.53)"/><path d="M78.64,5.73a.62.62,0,0,1,.17.45c0,.46-1,1.63-1.07,1.74.48.27.69.39.84.49.13-.13.74-.79.87-.94C80.62,6.1,80.77,6,81.05,6a1,1,0,0,1,.85.82c0,.25-.12.42-.37.75-.6.75-1.29,1.47-1.62,1.83.95,0,1.88-.09,2.82-.17-.55-.72-.57-.75-.57-1A.83.83,0,0,1,83,7.5c.48,0,.83.42,1.88,1.74.78,1,.85,1.1.85,1.48a.91.91,0,0,1-.93.81c-.33,0-.39-.08-.95-.77-2.1.17-3.57.23-4.08.24v2.19c0,.81,0,1.2-1,1.2-.86,0-.86-.52-.86-1.2V11.06c-2.77.06-4.95,0-5.23-.09a.71.71,0,0,1-.6-.76.72.72,0,0,1,.81-.76l2.44.07c.65,0,1.52,0,1.82,0-.36-.2-2.13-1-2.52-1.28a.75.75,0,0,1-.37-.64.92.92,0,0,1,.82-.92c.33,0,.51.09,1.2.45.08-.11.65-.95,1-1.41H74.41c-.33,0-.33.08-.33.84,0,.51-.46.69-.88.69-.79,0-.79-.58-.79-1.2V5.27a1,1,0,0,1,1-1.07h4.5V3.33H74.24c-.67,0-1.2,0-1.2-.84s.58-.76,1.2-.76h3.67V1.58c0-.74.36-.88,1-.88.83,0,.83.57.83,1h3.64c.68,0,1.2,0,1.2.82s-.58.78-1.2.78H79.73V4.2h4.6a1,1,0,0,1,.92,1v.83c0,.72,0,1.2-.9,1.2s-.81-.58-.81-1.12c0-.22,0-.4-.28-.4Zm-5.85,7a12,12,0,0,0,2.33-1.27.82.82,0,0,1,.46-.15c.6,0,.87.74.87,1s0,.38-.95,1a7.16,7.16,0,0,1-2.42,1.08c-.63,0-.79-.82-.79-.94A.68.68,0,0,1,72.79,12.71ZM82,11.06c.21,0,.32.06,1.28.67.21.13,1.2.72,1.39.85a.68.68,0,0,1,.33.6.94.94,0,0,1-.9,1c-.27,0-.37,0-.92-.37a13.65,13.65,0,0,1-1.75-1.2.67.67,0,0,1-.27-.45A1,1,0,0,1,82,11.06Z" transform="translate(-2.91 -0.53)"/></g></g></g></svg>