<svg xmlns="http://www.w3.org/2000/svg" viewBox="0 0 175 175"><title>function2_img</title><g id="2e375960-72d1-4428-87e1-d7b8a0f8b94f" data-name="レイヤー 2"><g id="67c9ead8-ccf6-4c1d-8c7a-ba3df940956d" data-name="レイヤー 2"><circle cx="87.5" cy="87.5" r="87.5" fill="#e6e6e6"/><path d="M79,31.28V58.44h-9V31.28a4.69,4.69,0,1,0-9.37,0V58.44h-9V31.28a4.69,4.69,0,1,0-9.37,0V65.87c0,7.19,6.38,13,14.25,13h1.63v67.88c0,11.35,14.25,11.35,14.25,0V78.89h1.63c7.87,0,14.25-5.83,14.25-13V31.28A4.69,4.69,0,1,0,79,31.28Z" fill="#a8bac6"/><path d="M65.39,157.17c-4.48,0-9-3.57-9-10.4v-66C47.6,80.65,40.5,74,40.5,65.87V31.28a6.58,6.58,0,1,1,13.14,0V56.55h5.19V31.28a6.58,6.58,0,1,1,13.14,0V56.55h5.19V31.28a6.58,6.58,0,1,1,13.14,0V65.87c0,8.14-7.1,14.77-15.88,14.9v66C74.41,153.6,69.87,157.17,65.39,157.17Zm-18.33-129a2.78,2.78,0,0,0-2.8,3.14V65.87C44.27,72,49.82,77,56.64,77h3.51v69.77c0,4.58,2.63,6.63,5.24,6.63s5.24-2,5.24-6.63V77h3.51C81,77,86.52,72,86.52,65.87V31.28a2.82,2.82,0,1,0-5.6,0v29H68.19v-29a2.82,2.82,0,1,0-5.6,0v29H49.87v-29A2.78,2.78,0,0,0,47.07,28.15Z" fill="#4d778e"/><path d="M122.62,26.45c-6.92,0-25.06,45.79-25.06,73.27h10.81v47.06c0,11.35,14.25,11.35,14.25,0V99.72h0Z" fill="#a8bac6"/><path d="M115.49,157.17c-4.48,0-9-3.57-9-10.4V101.6H95.67V99.72c0-12.45,3.76-30.24,10-47.58a131.88,131.88,0,0,1,8.42-19c4.33-7.66,6.91-8.54,8.48-8.54h1.88V146.78C124.5,153.6,120,157.17,115.49,157.17Zm-16-59.34h10.78v48.94c0,4.58,2.63,6.63,5.24,6.63s5.24-2,5.24-6.63V30c-2.48,3-6.74,10.29-11.68,24C103.34,69.9,99.81,86.09,99.46,97.83Z" fill="#4d778e"/></g></g></svg>