<svg xmlns="http://www.w3.org/2000/svg" xmlns:xlink="http://www.w3.org/1999/xlink" viewBox="0 0 189.35 16.13"><defs><clipPath id="49961e0f-8b84-41d9-9ed3-e8c0a36954bb" transform="translate(-0.54 -0.79)"><rect x="0.26" width="190" height="17" fill="none"/></clipPath></defs><title>m1_top</title><g id="a9636851-d67d-4b41-9072-1925d47e2220" data-name="レイヤー 2"><g id="fa19fb0e-9907-4ee9-b773-e5a31e581d1b" data-name="レイヤー 2"><g clip-path="url(#49961e0f-8b84-41d9-9ed3-e8c0a36954bb)"><path d="M.93,14.21A21.85,21.85,0,0,0,3.18,10c.2-.48.42-.88,1-.88a1,1,0,0,1,1.07,1,16.85,16.85,0,0,1-2.6,5.39,1.37,1.37,0,0,1-1,.61,1.08,1.08,0,0,1-1.07-1A1.69,1.69,0,0,1,.93,14.21Zm2.75-8c-.44,0-.61-.22-1.19-.93C2.28,5,1.29,3.87,1.09,3.63a.87.87,0,0,1-.22-.56,1,1,0,0,1,1-1c.32,0,.53.07,1.33.88.65.66,1.51,1.65,1.51,2.21A1,1,0,0,1,3.69,6.2Zm5,.76C7.94,7,7.38,7,7.31,6.2A3,3,0,0,1,5.63,7a1,1,0,0,1-.92-1,.91.91,0,0,1,.48-.78A21.16,21.16,0,0,0,9,2c.78-.87,1.17-.92,1.51-.92a1.62,1.62,0,0,1,1.09.44c1,.83,2.6,2.29,3.69,3s1.22.87,1.22,1.28A1.13,1.13,0,0,1,15.42,7c-.42,0-.82-.27-1.5-.78-.08.75-.65.75-1.34.75Zm1.63,8.6c0,.65,0,1.36-1,1.36s-1.09-.65-1.09-1.36V10.13H6.63c-.49,0-1.27,0-1.27-.93s.75-1,1.27-1H14c.75,0,1.67.08,1.67,1.58v3.83c0,1-.56,1.65-2,1.65-.22,0-2.62,0-2.62-1.31a.9.9,0,0,1,1-1c.22,0,1.21.24,1.41.24s.29-.17.29-.32V10.67c0-.39-.1-.54-.65-.54h-2.7ZM12.51,5.08a22.29,22.29,0,0,1-1.68-1.5c-.1-.1-.19-.19-.29-.19s-.15,0-.48.37c-.58.6-1.05,1-1.38,1.31Z" transform="translate(-0.54 -0.79)"/><path d="M25.43,9.86h.8A1.08,1.08,0,0,1,27.45,11v1.11a1.07,1.07,0,0,1-1.22,1.14h-.78v.67h.65c.75,0,.83,0,1.09.22a11.09,11.09,0,0,0,1.48-1.62,28.66,28.66,0,0,1-.83-5.59H21c-.63,0-.63.1-.65,1-.05,2.4-.19,5.88-1.12,8-.27.59-.53.73-.9.73a1,1,0,0,1-1.07-.85,5,5,0,0,1,.32-1.29c.68-2.29.73-3.91.8-7.36,0-1.55.66-1.85,1.63-1.85h7.75a2.23,2.23,0,0,1,0-.36,1.13,1.13,0,0,1-.6.14c-.7,0-1-.25-1-1V3.85H23.35c0,.6,0,1.17-1,1.17s-1-.44-1-1V3.85H19.19c-.68,0-1.36,0-1.36-.87s.63-.93,1.36-.93h2.24c0-.44.05-1,1-1s.93.53,1,1h2.82a.85.85,0,0,1,.92-1c.76,0,1,.27,1.05,1H31.6c.68,0,1.36,0,1.36.87s-.6.93-1.48.93a5.21,5.21,0,0,1,.94,1.41.8.8,0,0,1,.66.81c0,.85-.71.85-1.36.85H29.78c.07,1.11.14,2,.31,3.16.15-.34.7-1.84.83-2.14a.79.79,0,0,1,.73-.49c.22,0,1.05.12,1.05.87a11.32,11.32,0,0,1-2,4.44c.08.27.41,1.22.58,1.22s.24-.27.25-.8a.78.78,0,0,1,.76-.78c.71,0,.85.63.85,1.38,0,1.7-.85,2.8-1.7,2.8-1,0-1.84-1.61-2.07-2.06-1.7,2-3.08,2.29-3.33,2.29a1,1,0,0,1-.87-1,.46.46,0,0,1,.15-.37H22.16A1.12,1.12,0,0,1,21,14.22V8.89a1.16,1.16,0,0,1,1.29-1.22h3.84c.75,0,1.43,0,1.43.76s-.78.78-1.43.78h-.66Zm-1.73-.65H23c-.24,0-.31.05-.31.31v.34h1Zm-1,2.65H25.6c.17,0,.17,0,.17-.46,0,0,0-.14-.17-.14H22.67Zm1,1.39h-1v.41c0,.21.05.26.31.26h.71Zm6.77-8c-.31-.51-.32-.66-.32-.8a.87.87,0,0,1,.25-.6H28.15a3.16,3.16,0,0,1,0,.48,1,1,0,0,1,.59-.15c.93,0,1,.56,1,1.07Z" transform="translate(-0.54 -0.79)"/><path d="M42.81,4.74c0-.43.08-.55.17-.65H37.75a.34.34,0,0,0-.37.31V8.58a27.91,27.91,0,0,1-.78,7,1.2,1.2,0,0,1-1.14.94.92.92,0,0,1-1-.9c0-.29.37-1.7.44-2a26,26,0,0,0,.49-5V3.7a1.31,1.31,0,0,1,1.49-1.39h5C42,1.49,42,1,43.1,1c1,0,1,.65,1,1.29h4.5c.73,0,1.36,0,1.36.92s-.7.87-1.36.87H44.63a.93.93,0,0,1,.15.65h3.67c.61,0,1.36,0,1.36.78s-.75.78-1.36.78H44.78v.56h2.87a1.31,1.31,0,0,1,1.5,1.49v2.72c0,1.48-1,1.49-1.5,1.49H44.78v.61h3.94c.65,0,1.36,0,1.36.85s-.71.83-1.36.83H44.78v.56c0,.8,0,1.36-1,1.36s-1-.8-1-1.36v-.56H39c-.63,0-1.36,0-1.36-.83s.73-.85,1.36-.85h3.77v-.61H40.13a1.31,1.31,0,0,1-1.51-1.49V8.36a1.32,1.32,0,0,1,1.51-1.49h2.69V6.3H39.45c-.61,0-1.36,0-1.36-.78s.75-.78,1.36-.78Zm0,3.65h-2c-.22,0-.31.08-.31.29V9h2.3Zm0,2h-2.3v.32c0,.21.09.27.31.27h2Zm2-1.41h2.3V8.68c0-.21-.07-.29-.29-.29h-2Zm0,2h2c.22,0,.29-.07.29-.27v-.32h-2.3Z" transform="translate(-0.54 -0.79)"/><path d="M54,14.55c-1.7,0-2.58-1.59-2.58-3.87a8,8,0,0,1,8.16-8C63.45,2.71,66,5.29,66,8.88a7,7,0,0,1-5.78,6.83,1.17,1.17,0,0,1-1.17-1.24c0-.72.46-.86,1.12-1.07a4.71,4.71,0,0,0,3.48-4.5,3.89,3.89,0,0,0-3.62-4.1C59.48,8.3,57.22,14.55,54,14.55Zm1.19-7.84a6.37,6.37,0,0,0-1.63,4.22c0,.7.19,1.23.52,1.23s1.08-1,1.51-1.66a16.34,16.34,0,0,0,2.08-5.41A5.79,5.79,0,0,0,55.23,6.71Z" transform="translate(-0.54 -0.79)"/><path d="M81.12,3.6A1.53,1.53,0,0,1,82.8,5.27v5a1.53,1.53,0,0,1-1.68,1.67H76.48v3.52c0,.76,0,1.36-.94,1.36-1.14,0-1.14-.46-1.14-1.36V11.93H69.88a1.53,1.53,0,0,1-1.68-1.67v-5A1.53,1.53,0,0,1,69.88,3.6h4.52v-1c0-.75,0-1.36,1-1.36,1.12,0,1.12.48,1.12,1.36v1ZM74.41,9.86V5.62H70.77c-.44,0-.54,0-.54.51V9.36c0,.49.1.49.54.49Zm2.07-4.23V9.86h3.76c.44,0,.54,0,.54-.49V6.13c0-.51-.1-.51-.54-.51Z" transform="translate(-0.54 -0.79)"/><path d="M95.26,12c-4.54,3.6-8.42,4.67-9.21,4.67A1.08,1.08,0,0,1,85,15.52c0-.68.54-.83.85-.92A23.07,23.07,0,0,0,92,11.88c-2.86.17-3.69.22-6,.22-.73,0-1.46,0-1.46-1a.94.94,0,0,1,.71-1c.14,0,1.36,0,1.7,0V4c0-.63,0-1.82,1.55-1.82h1.65c.41-1,.58-1.34,1.19-1.34s1.17.37,1.17.88a1.42,1.42,0,0,1-.1.46h3.08c1.34,0,1.79.53,1.79,1.84V7c.82-1,.9-1.16,1.31-1.16A1.13,1.13,0,0,1,99.67,7a1.29,1.29,0,0,1-.31.8,19.42,19.42,0,0,1-2.06,2.38v5c0,.61,0,1.63-2,1.63A7.19,7.19,0,0,1,93,16.4a.89.89,0,0,1-.61-.9,1,1,0,0,1,1-1.07c.24,0,1.39.22,1.67.22s.29-.19.29-.51ZM89.38,4c-.48,0-.48.08-.48.75h6.36c0-.66,0-.75-.51-.75Zm5.88,2.5H88.91v.77h6.36Zm-6.36,3.57c3.28-.07,5.56-.29,5.85-.32a4.74,4.74,0,0,0,.51-.46v-.2H88.91Z" transform="translate(-0.54 -0.79)"/><path d="M106,1.49a1,1,0,0,1,1-.59,1.06,1.06,0,0,1,1.19,1A3.6,3.6,0,0,1,107.75,3c.33-.07.91-.17,1.37-.3a4.68,4.68,0,0,1,.88-.17c.32,0,1,.12,1,1.14s-.16,1.07-4.48,1.58l-.75,1.33a3.16,3.16,0,0,1,1.44-.35,2.34,2.34,0,0,1,2.33,1.68c2.42-1.31,2.71-1.31,3-1.31a1.18,1.18,0,0,1,1.1,1.2c0,.59-.37.77-.82,1-.63.28-1.91.84-2.94,1.42,0,.44.05.88.05,1.63s0,1.58-1.16,1.58-1.12-.7-1.09-1.86c-.9.61-1.65,1.1-1.65,1.89s1,1,2.37,1a12.7,12.7,0,0,0,2.12-.17,8.48,8.48,0,0,1,1-.12,1,1,0,0,1,1,1.07c0,.79-.25,1.33-3.85,1.33-1.28,0-4.79,0-4.79-2.95,0-2.16,2-3.43,3.72-4.56-.05-.4-.21-.88-.78-.88a4.75,4.75,0,0,0-3.08,2.35c-.65,1-.74,1.12-1.24,1.12a1.21,1.21,0,0,1-1.21-1.14c0-.33.07-.44.68-1.31a39.73,39.73,0,0,0,2.21-3.72c-.3,0-.82.07-1.16.07a1,1,0,0,1-1.14-1.1,1,1,0,0,1,1.14-1.09c.75,0,1.49,0,2.24-.07Z" transform="translate(-0.54 -0.79)"/><path d="M130,6.88c.54,0,1.36.15,1.36,1.12s-.75,1.12-1.36,1.12H117.53c-.54,0-1.36-.15-1.36-1.12s.73-1.12,1.36-1.12Z" transform="translate(-0.54 -0.79)"/><path d="M134.9,6.08h-.71c-.7,0-1.36,0-1.36-.88s.58-1,1.36-1h.71V2.58c0-.75,0-1.36.92-1.36s1.05.49,1.05,1.36V4.21h.39c.68,0,1.36,0,1.36.9s-.59,1-1.36,1h-.39V8.44L138,8.26c.36,0,.83.26.83,1s-.61.82-1.94,1.1v4.27c0,.58,0,1.9-1.6,1.9a3.81,3.81,0,0,1-1.78-.43,1,1,0,0,1-.37-.82,1,1,0,0,1,.88-1c.12,0,.68.17.78.17s.12-.07.12-.14v-3.6a11,11,0,0,1-1.12.12.93.93,0,0,1-1-1,1,1,0,0,1,.68-1c.22-.05,1.22-.14,1.43-.15Zm9.52-.46H147c.71,0,1.36,0,1.36.92s-.53,1-1.36,1h-2.55V9.41h2.08c.14,0,1.27,0,1.27,1.5v3.81c0,.78-.31,1.5-1.27,1.5h-6.17c-.14,0-1.27,0-1.27-1.5V10.91c0-.59.2-1.5,1.27-1.5h2V7.56h-2.5c-.71,0-1.36,0-1.36-.9s.53-1,1.36-1h2.5V3.8c-1.65.14-1.67.15-2,.15S139,4,139,3s.9-1,2.23-1c1.92-.1,2.87-.2,3.52-.27.29,0,1.6-.2,1.85-.2s1.05,0,1.05.9c0,.75-.49,1-3.23,1.21Zm-3.16,5.73c-.34,0-.34.24-.34.41v2.16c0,.17,0,.41.34.41h4.18c.34,0,.34-.25.34-.41V11.76c0-.26-.05-.41-.34-.41Z" transform="translate(-0.54 -0.79)"/><path d="M156.22,2.19c.7,0,1.34,0,1.34.76s-.68.75-1.34.75h-1.67a2,2,0,0,1,.49,1c0,.51-.65.8-1,.8s-.59-.17-1.61-1.68c-.82,1.12-1.16,1.34-1.58,1.34a1.06,1.06,0,0,1-1.05-1c0-.37.19-.56.44-.87s1.14-1.55,1.39-1.89a.85.85,0,0,1,.71-.34,1,1,0,0,1,1.07.87,1,1,0,0,1-.05.29Zm5.9,1.51c.51.58.58.65.58.92a.8.8,0,0,1-.83.78c-.63,0-1.31-.75-2.14-1.68-.66,1.24-.93,1.36-1.46,1.38a1.38,1.38,0,0,1,.08.58h4.42c2,0,2.24.1,2.24,1.78v1c0,.73,0,1.36-.93,1.36s-1-.66-1-1.36V8.12c0-.72,0-.72-.73-.72h-9.91c-.7,0-.73,0-.73.72V8.5c0,.68,0,1.36-1,1.36s-.85-.54-.85-1.36v-1c0-1.68.29-1.78,2.23-1.78h4.13c0-1.07.66-1.12,1.09-1.12a.87.87,0,0,1-.08-.37.81.81,0,0,1,.05-.29c.05-.19.63-1.21.75-1.44.65-1.29.71-1.43,1.21-1.43.17,0,1.11,0,1.11.85a1.31,1.31,0,0,1-.05.32h3.38c.68,0,1.34,0,1.34.76s-.66.75-1.33.75Zm-7.92,8.64h7.16c1.84,0,2,.25,2,1.58v1c0,1.51-.63,1.6-2.07,1.6h-6.49c-1.9,0-2.63-.15-2.63-1.73V9.6c0-1.66.65-1.66,2.14-1.66h6.31c1.87,0,2,.2,2,1.51V10c0,1.73-.46,1.75-1.89,1.75h-6.53Zm0-2.07h5.93c.49,0,.49,0,.49-.56,0-.21-.08-.21-.42-.21h-5.71c-.29,0-.29.17-.29.46Zm0,3.62v.39c0,.41,0,.46.49.46h6.1c.32,0,.44,0,.48-.12a3.76,3.76,0,0,0,0-.49c0-.24-.05-.24-.42-.24Z" transform="translate(-0.54 -0.79)"/><path d="M170.52,6.91c1,0,1.5,0,1.5,1s-.54,1-1.5,1V12.3a2.21,2.21,0,0,1,.76-.15c.66,0,1,.73,1,1.07,0,.68-.68.87-1,1a27.57,27.57,0,0,1-3.79.78c-.92,0-1-.94-1-1.07a.87.87,0,0,1,.71-.88c.22-.05,1.19-.2,1.38-.24V8.85h-.42c-.78,0-1.34,0-1.34-.92s.76-1,1.34-1h.42V3.77H168c-.56,0-1.36,0-1.36-.94s.8-.93,1.36-.93h2.68c.56,0,1.36,0,1.36.93s-.76.94-1.51.94Zm10,4.37c.7,0,1.36,0,1.36.88s-.59,1-1.36,1H178v1.23h2.86c.7,0,1.36,0,1.36.9s-.56,1-1.36,1h-8c-.7,0-1.36,0-1.36-.9s.56-1,1.36-1H176V13.12h-2.5c-.7,0-1.36,0-1.36-.88s.59-1,1.36-1H176V10.08h-2a1.49,1.49,0,0,1-1.61-1.48V3A1.49,1.49,0,0,1,174,1.49h6A1.5,1.5,0,0,1,181.69,3V8.6a1.5,1.5,0,0,1-1.63,1.48h-2v1.21ZM176,4.84V3.34h-1.23c-.19,0-.34.09-.34.43V4.84Zm-1.57,1.87V7.8c0,.36.15.44.34.44H176V6.71Zm5.24-1.87V3.77c0-.34-.15-.43-.34-.43H178v1.5ZM178,6.71V8.24h1.33c.19,0,.34-.08.34-.44V6.71Z" transform="translate(-0.54 -0.79)"/><path d="M189.9,14.11a1.57,1.57,0,1,1-1.58-1.56A1.57,1.57,0,0,1,189.9,14.11ZM189,11c-.05.49-.24.8-.66.8s-.61-.29-.66-.8L187,3.7c-.08-.83,0-2,1.36-2s1.48,1.07,1.38,2Z" transform="translate(-0.54 -0.79)"/></g></g></g></svg>