<svg xmlns="http://www.w3.org/2000/svg" xmlns:xlink="http://www.w3.org/1999/xlink" viewBox="0 0 199.05 15.88"><defs><clipPath id="625ff733-97cc-4c1f-bcf4-a5665f4bd139" transform="translate(-0.58 -0.98)"><rect x="0.2" width="200" height="17" fill="none"/></clipPath></defs><title>m2_top</title><g id="fbcba76d-a9a7-44e0-b08d-e24e9f86eb11" data-name="レイヤー 2"><g id="632759e8-64de-4b31-bfc3-9b476c44a2bb" data-name="レイヤー 2"><g clip-path="url(#625ff733-97cc-4c1f-bcf4-a5665f4bd139)"><path d="M4.95,11.95v2.67c.32,0,1.73-.27,2-.27a.94.94,0,0,1,1,1c0,.81-.56.9-1.7,1.1a33.92,33.92,0,0,1-4.33.39A1,1,0,0,1,.87,15.77a.89.89,0,0,1,.83-.92l1.24-.07V7.15a1.59,1.59,0,0,1,.71-1.44,7.63,7.63,0,0,1-2.18.68,1,1,0,0,1-.9-1.05.82.82,0,0,1,.66-.87A25.93,25.93,0,0,0,7.33,1.53a1.78,1.78,0,0,1,1.16-.46,1.93,1.93,0,0,1,1.21.48,33.56,33.56,0,0,0,4.66,2.53c1.77.65,2,.73,2,1.36s-.41,1.17-1,1.17a7.29,7.29,0,0,1-1.48-.46,1.29,1.29,0,0,1,.19.56v4a1,1,0,0,1-.24.68.91.91,0,0,1,.9.93c0,.61-.07.66-1.9,2.11a11.19,11.19,0,0,0,2.43.46.9.9,0,0,1,.83.93c0,.12,0,1-1.16,1a11.41,11.41,0,0,1-5.63-2A7.15,7.15,0,0,1,7,11.95Zm7.48-6.46c-.32-.17-1.27-.66-2.4-1.34-.25-.15-1.48-1-1.55-1s-.19.08-.41.25a19.43,19.43,0,0,1-4,2.16,1.88,1.88,0,0,1,.37-.05h3V4.81c0-.82.46-1,1.12-1a.85.85,0,0,1,1,1v.68ZM5.29,7.31c-.34,0-.34,0-.34.58H12c0-.53,0-.58-.37-.58Zm6.38,2.84c.37,0,.39,0,.39-.61H4.95v.61Zm-2.28,1.8a5.26,5.26,0,0,0,1.56,1.58c.92-.73,1.05-.83,1.89-1.58H9.38Z" transform="translate(-0.58 -0.98)"/><path d="M19.2,6.1c-.68,0-1.36,0-1.36-.92s.61-1,1.36-1h1V2.72c0-.75,0-1.43.94-1.43s1.07.56,1.07,1.43V4.2h.41c.7,0,1.36,0,1.36.92s-.59,1-1.36,1h-.41v1.1a20.62,20.62,0,0,0,2,2.21,1,1,0,0,1,.37.78.9.9,0,0,1-.92,1c-.39,0-.76-.31-1.43-1v5.27c0,.77,0,1.43-.94,1.43s-1.07-.56-1.07-1.43V10.44a15.76,15.76,0,0,1-1.09,1.68,1,1,0,0,1-.83.42,1,1,0,0,1-.9-.92c0-.34.08-.44.71-1.34A16.39,16.39,0,0,0,20,6.1Zm6.51,0c-.7,0-1.38,0-1.38-1s.61-1,1.38-1h3.81V2.65c0-.53,0-1.36,1-1.36,1.19,0,1.19.59,1.19,1.36v1.5c1,0,1.63,0,1.63,1s-.54,1-1.63,1v8.79c0,.88,0,1.77-2.11,1.77a6.16,6.16,0,0,1-2.65-.53.79.79,0,0,1-.42-.73c0-.17.05-1.09.88-1.09a4.16,4.16,0,0,1,.9.19,3.7,3.7,0,0,0,.92.12c.29,0,.34-.08.34-.37V7.43c-1.22,3.4-4.18,6.78-5.25,6.78a1.07,1.07,0,0,1-1-1.07c0-.34.22-.54.66-1A16,16,0,0,0,28,6.1Z" transform="translate(-0.58 -0.98)"/><path d="M40,1.57A1,1,0,0,1,41,1a1.06,1.06,0,0,1,1.19,1,3.6,3.6,0,0,1-.46,1.17c.33-.07.91-.17,1.37-.3A4.68,4.68,0,0,1,44,2.66c.32,0,1,.12,1,1.14s-.16,1.07-4.48,1.58l-.75,1.33a3.16,3.16,0,0,1,1.44-.35A2.34,2.34,0,0,1,43.5,8c2.42-1.31,2.71-1.31,3-1.31a1.18,1.18,0,0,1,1.1,1.2c0,.59-.37.77-.82,1-.63.28-1.91.84-2.94,1.42,0,.44.05.88.05,1.63s0,1.58-1.16,1.58-1.12-.7-1.09-1.86c-.9.61-1.65,1.1-1.65,1.89s1,1,2.37,1a12.7,12.7,0,0,0,2.12-.17,8.48,8.48,0,0,1,1-.12,1,1,0,0,1,1,1.07c0,.79-.25,1.33-3.85,1.33-1.28,0-4.79,0-4.79-2.95,0-2.16,2-3.43,3.72-4.56-.05-.4-.21-.88-.78-.88a4.75,4.75,0,0,0-3.08,2.35c-.65,1-.74,1.12-1.24,1.12a1.21,1.21,0,0,1-1.21-1.14c0-.33.07-.44.68-1.31a39.73,39.73,0,0,0,2.21-3.72c-.3,0-.82.07-1.16.07a1,1,0,0,1-1.14-1.1,1,1,0,0,1,1.14-1.09c.75,0,1.49,0,2.24-.07Z" transform="translate(-0.58 -0.98)"/><path d="M55.43,12.44c-.7,0-1.34,0-1.34-.87s.65-.88,1.34-.88H57V9.84H55.82c-.63,0-1.36,0-1.36-.83s.73-.85,1.36-.85H57a1,1,0,0,1,.19-.67H55.91c-.92,0-1.45-.51-1.45-1.19V4.59a.91.91,0,0,1,.92-1h1.79c.34,0,.37,0,.37-.34s0-.27-.27-.27H55.6c-.75,0-1.34,0-1.34-.75s.75-.8,1.34-.8h2.48a1.12,1.12,0,0,1,1.22,1V4a1.12,1.12,0,0,1-1.17,1H56.52c-.31,0-.31.05-.31.43s0,.41.32.41h1.14A.35.35,0,0,0,58,5.66c.15-.29.32-.6.76-.6.22,0,1,.17,1,.9a1.76,1.76,0,0,1-1.14,1.48.86.86,0,0,1,.26.72h1.82a.88.88,0,0,1,.24-.7,1.28,1.28,0,0,1-1-1.19V4.6a1,1,0,0,1,1.05-1.05h1.68c.36,0,.41,0,.41-.32s0-.29-.25-.29H61.21c-.8,0-1.38,0-1.38-.71s.77-.83,1.38-.83h2.53a1.11,1.11,0,0,1,1.14,1.07V4.11a1,1,0,0,1-.36.75c.36,0,1,.27,1,.89S65,7.49,64.07,7.49H62.49a1,1,0,0,1,.19.67h1c.61,0,1.34,0,1.34.85s-.73.83-1.34.83h-1v.85h1.48c.7,0,1.34,0,1.36.88s-.66.87-1.36.87H62.9c.59.34.7.39,1.44.77a.7.7,0,0,1,.49.66,1.34,1.34,0,0,1-.25.73c.37,0,1.07,0,1.07.87s-.61.93-1.36.93H55.84a3.68,3.68,0,0,1-3.11-1.17L51.5,16.28a1.12,1.12,0,0,1-.76.39c-.61,0-1-.8-1-1.07a.85.85,0,0,1,.39-.7c.17-.14,1.24-1.05,1.85-1.51,0-.12,0-.17,0-.37V9.84c0-.39,0-.48-.36-.48H51.3c-.66,0-1.36,0-1.36-.87s.75-1,1.36-1h1.28a1.25,1.25,0,0,1,1.24,1.39v3.64a1.75,1.75,0,0,0,1.07,1.84,1,1,0,0,1,0-.2c0-.44.34-.65.65-.83s1.28-.75,1.48-.88ZM52.92,5.27c-.36,0-.48-.1-1.62-1.16S50,2.84,50,2.58a1.24,1.24,0,0,1,1.09-1.07c.37,0,.49.12,1.55,1.14.68.65,1.26,1.21,1.26,1.58A1.13,1.13,0,0,1,52.92,5.27Zm5.76,7.17a1.28,1.28,0,0,1,.22.61c0,.31-.1.58-1.87,1.55h6a9.67,9.67,0,0,1-1.77-1c-.36-.24-.61-.44-.61-.87a.58.58,0,0,1,.07-.31Zm2.07-2.6H58.93v.85h1.82ZM63.27,5.9c.19,0,.24,0,.39-.27.05-.07.31-.53.34-.58a.56.56,0,0,1-.17,0H62.11c-.15,0-.31,0-.31.19,0,.6,0,.65.41.65Z" transform="translate(-0.58 -0.98)"/><path d="M74.9,7.05a2.23,2.23,0,0,1,2.44,2.4c0,.61-.6,3.59-.59,3.84a.4.4,0,0,0,.42.44c.93,0,2-1.3,2.21-1.6.82-1.05.91-1.16,1.38-1.16a1.19,1.19,0,0,1,1.17,1.17c0,.26-.05.65-.84,1.6C79.3,15.87,77.9,16,77.13,16a2.39,2.39,0,0,1-2.63-2.57A11.3,11.3,0,0,1,74.83,11c0-.21.23-1.21.23-1.28,0-.32-.12-.51-.4-.51-.49,0-3.29.23-4.85,4.84-.51,1.51-.61,1.82-1.38,1.82-.11,0-1.24,0-1.24-1.05,0-.86,2.24-6,4.75-10.2,1.77-3,1.93-3.15,2.63-3.15a1.2,1.2,0,0,1,1.23,1.1c0,.35-.11.51-1.05,1.89C73.39,6.41,73,7.14,72.64,7.72A5.16,5.16,0,0,1,74.9,7.05Z" transform="translate(-0.58 -0.98)"/><path d="M84.54,5.94c-.14,0-1.45.26-1.75.26A1.09,1.09,0,0,1,81.65,5a1,1,0,0,1,1-1.16l1.79-.17,8.42-.89c.25,0,1.59-.18,1.86-.18A1.12,1.12,0,0,1,96,3.82c0,1-.72,1.07-2,1.14a5.73,5.73,0,0,0-3.52,1,6.92,6.92,0,0,0-2.14,5.29c0,2.28,1.26,2.49,2.78,2.54.86,0,1.68.05,1.68,1.12,0,1.26-1.09,1.26-1.52,1.26a9.19,9.19,0,0,1-2.57-.39C86.43,15,86,13.31,86,11.39a8,8,0,0,1,2.22-6Zm7.69.74c.35,0,.79.54,1.07.88a3.37,3.37,0,0,1,.79,1.33.67.67,0,0,1-.68.63c-.26,0-.31-.05-.75-.68a12.87,12.87,0,0,0-.89-1.07.72.72,0,0,1-.19-.46A.67.67,0,0,1,92.23,6.68Zm1.52-1.09c.37,0,.86.61,1.17,1a3,3,0,0,1,.7,1.21.68.68,0,0,1-.68.63c-.26,0-.32-.09-.93-.89-.19-.26-.56-.65-.77-.91a.63.63,0,0,1-.16-.4A.67.67,0,0,1,93.75,5.59Z" transform="translate(-0.58 -0.98)"/><path d="M99.1,4.4a1.05,1.05,0,0,1,1.21-1.12c.82,0,1.24.37,1.24,1.12v7.53a24.32,24.32,0,0,0,7.63-4.48c.86-.75.95-.84,1.35-.84a1.25,1.25,0,0,1,1.17,1.24c0,.42,0,.84-2.78,2.78-3.62,2.55-7.48,3.94-8.46,3.94A1.28,1.28,0,0,1,99.1,13.1Z" transform="translate(-0.58 -0.98)"/><path d="M117.45,7c.77.42,1.17.72,1.17,1.37a1.26,1.26,0,0,1-1.14,1.31c-.28,0-.39-.07-1.38-.65-.25-.14-1.31-.68-1.52-.82a.93.93,0,0,1-.44-.79,1.3,1.3,0,0,1,1.23-1.3A7.18,7.18,0,0,1,117.45,7Zm10.21-1.33c0,.79-1.65,3.85-4.83,6.36a16.31,16.31,0,0,1-6.95,3.36,1.29,1.29,0,0,1-1.3-1.33c0-.82.4-.95,1.51-1.26a15.06,15.06,0,0,0,8.91-7c.63-1.1.74-1.33,1.33-1.33A1.31,1.31,0,0,1,127.66,5.68Zm-8.39-2.07c.86.49,1.28.75,1.28,1.44a1.23,1.23,0,0,1-1.12,1.31c-.32,0-.44-.09-1.35-.65-.26-.16-1.45-.84-1.59-1a.91.91,0,0,1-.32-.72,1.23,1.23,0,0,1,1.19-1.24C117.61,2.79,117.84,2.79,119.27,3.61Z" transform="translate(-0.58 -0.98)"/><path d="M133.27,7.59a14.68,14.68,0,0,0,4.45-2.12,2.1,2.1,0,0,1,1.23-.54,1.26,1.26,0,0,1,1.18,1.28c0,.47-.25.74-.88,1.21a19.58,19.58,0,0,1-6,2.56v2.12c0,.93,0,1,2.31,1a22.87,22.87,0,0,0,3.38-.23c.21,0,1.14-.17,1.32-.17a1,1,0,0,1,1.08,1.17c0,1.1-.66,1.19-1.52,1.3a43,43,0,0,1-4.76.25c-2.59,0-4.17-.12-4.17-3.36V3.78c0-.86.49-1.1,1.21-1.1.89,0,1.16.51,1.16,1.1ZM143.4,3.2a1.84,1.84,0,1,1-1.85-1.84A1.87,1.87,0,0,1,143.4,3.2Zm-2.75,0a.91.91,0,1,0,.9-.91A.91.91,0,0,0,140.65,3.2Z" transform="translate(-0.58 -0.98)"/><path d="M150.19,1.57a1,1,0,0,1,1-.59,1.06,1.06,0,0,1,1.19,1,3.6,3.6,0,0,1-.46,1.17c.33-.07.91-.17,1.37-.3a4.68,4.68,0,0,1,.88-.17c.32,0,1,.12,1,1.14s-.16,1.07-4.48,1.58l-.75,1.33a3.16,3.16,0,0,1,1.44-.35A2.34,2.34,0,0,1,153.69,8c2.42-1.31,2.71-1.31,3-1.31a1.18,1.18,0,0,1,1.1,1.2c0,.59-.37.77-.82,1-.63.28-1.91.84-2.94,1.42,0,.44.05.88.05,1.63s0,1.58-1.16,1.58-1.12-.7-1.09-1.86c-.9.61-1.65,1.1-1.65,1.89s1,1,2.37,1a12.7,12.7,0,0,0,2.12-.17,8.48,8.48,0,0,1,1-.12,1,1,0,0,1,1,1.07c0,.79-.25,1.33-3.85,1.33-1.28,0-4.79,0-4.79-2.95,0-2.16,2-3.43,3.72-4.56-.05-.4-.21-.88-.78-.88a4.75,4.75,0,0,0-3.08,2.35c-.65,1-.74,1.12-1.24,1.12a1.21,1.21,0,0,1-1.21-1.14c0-.33.07-.44.68-1.31a39.73,39.73,0,0,0,2.21-3.72c-.3,0-.82.07-1.16.07A1,1,0,0,1,146,4.57a1,1,0,0,1,1.14-1.09c.75,0,1.49,0,2.24-.07Z" transform="translate(-0.58 -0.98)"/><path d="M171.12,7.51h2.48a1,1,0,0,1,1.14,1v2.8a1,1,0,0,1-1.14,1h-2a7.34,7.34,0,0,0,2.91,2.41,1.1,1.1,0,0,1,.65,1c0,.34-.17,1-.83,1-1.37,0-3.6-2.58-4-3.14-.65,1.17-3,3.21-4.37,3.21a1,1,0,0,1-1-1,.87.87,0,0,1,.63-.88,6,6,0,0,0,3.18-2.58h-2.09a1,1,0,0,1-1.14-1V9.91a1.3,1.3,0,0,1-.83.41c-.32,0-.41-.1-1.17-1.05v6.22c0,.66,0,1.36-1,1.36s-1-.71-1-1.36V10.42c-.63,1.45-.88,1.63-1.33,1.63a.93.93,0,0,1-.94-.87c0-.29.08-.54.65-1.48a16.58,16.58,0,0,0,1.6-3.54H161c-.53,0-1.36,0-1.36-1s.83-1,1.36-1h.54V2.46c0-.65,0-1.36,1-1.34s1,.7,1,1.34V4.2c.87,0,1.12,0,1.43.32.1-.14.14-.15.43-.34A17.59,17.59,0,0,0,168,2.26c1.12-1.05,1.24-1.17,1.79-1.17a2,2,0,0,1,1.38.65,31.63,31.63,0,0,0,3,2.29c.76.46,1,.59,1,1.16a1,1,0,0,1-.92,1c-.34,0-.46-.07-.93-.37,0,.87-.65.87-1.36.87h-.87Zm-2-.83h-1.19c-.7,0-1.36,0-1.36-.88a1.19,1.19,0,0,1-.76.31.94.94,0,0,1-.75-.43c-.25.49-.63.49-1.53.49v.24c.29.41,1.72,2.06,2,2.4V8.52a1,1,0,0,1,1.14-1h2.45Zm0,2.6h-1.51c-.31,0-.34,0-.34.37v.48c0,.37,0,.37.34.37h1.5c0-.17,0-.42,0-.53Zm3-4.35c-.56-.42-2.09-1.73-2.21-1.73s-.17.05-.78.63a11.77,11.77,0,0,1-1.33,1.1Zm-1,5a5.68,5.68,0,0,1,0,.58h1.58c.32,0,.34,0,.34-.37V9.65c0-.37,0-.37-.34-.37h-1.55Z" transform="translate(-0.58 -0.98)"/><path d="M184.07,7a.7.7,0,0,1,.19.51c0,.53-1.12,1.85-1.21,2,.54.31.78.44,1,.56.15-.15.83-.9,1-1.07,1.33-1.54,1.5-1.61,1.82-1.61a1.09,1.09,0,0,1,1,.93c0,.29-.14.48-.42.85-.68.85-1.46,1.66-1.84,2.07,1.07-.05,2.13-.1,3.2-.19-.63-.81-.65-.85-.65-1.12a.93.93,0,0,1,1-.9c.54,0,.94.47,2.13,2,.88,1.11,1,1.25,1,1.67a1,1,0,0,1-1.05.92c-.37,0-.44-.08-1.07-.87-2.38.19-4,.26-4.62.27v2.48c0,.92,0,1.36-1.16,1.36-1,0-1-.59-1-1.36V13c-3.15.07-5.61-.05-5.93-.1a.8.8,0,0,1-.68-.87.81.81,0,0,1,.92-.87c.25,0,2.43.08,2.77.08.73,0,1.72,0,2.06,0-.41-.22-2.41-1.17-2.86-1.45a.86.86,0,0,1-.42-.73,1,1,0,0,1,.93-1c.37,0,.58.1,1.36.51.08-.12.73-1.07,1.11-1.6h-3.23c-.37,0-.37.08-.37,1,0,.58-.53.78-1,.78-.9,0-.9-.66-.9-1.36v-.9a1.11,1.11,0,0,1,1.16-1.21h5.1v-1h-4.17c-.77,0-1.36,0-1.36-1s.66-.87,1.36-.87h4.17V2.28c0-.83.41-1,1.12-1,.94,0,.94.65.94,1.17h4.13c.76,0,1.36,0,1.36.93s-.66.88-1.36.88h-4.13v1h5.22a1.15,1.15,0,0,1,1,1.17v.94c0,.82,0,1.36-1,1.36s-.92-.66-.92-1.27c0-.25,0-.46-.32-.46Zm-6.63,7.91a13.66,13.66,0,0,0,2.63-1.45.94.94,0,0,1,.53-.17c.68,0,1,.83,1,1.16s0,.42-1.07,1.09a8.14,8.14,0,0,1-2.74,1.22c-.71,0-.9-.93-.9-1.07A.77.77,0,0,1,177.44,14.89ZM187.83,13c.24,0,.36.07,1.45.76.24.15,1.36.82,1.58,1a.77.77,0,0,1,.37.68,1.06,1.06,0,0,1-1,1.09c-.31,0-.42-.05-1-.42a15.57,15.57,0,0,1-2-1.36.76.76,0,0,1-.31-.51A1.07,1.07,0,0,1,187.83,13Z" transform="translate(-0.58 -0.98)"/><path d="M199.63,14.19A1.57,1.57,0,1,1,198,12.63,1.57,1.57,0,0,1,199.63,14.19Zm-.92-3.06c-.05.49-.24.8-.66.8s-.61-.29-.66-.8l-.7-7.34c-.08-.83,0-2,1.36-2s1.48,1.07,1.38,2Z" transform="translate(-0.58 -0.98)"/></g></g></g></svg>