<svg xmlns="http://www.w3.org/2000/svg" xmlns:xlink="http://www.w3.org/1999/xlink" viewBox="0 0 187.97 15.84"><defs><clipPath id="cfc05f32-3b6d-4754-8041-f025e0b17d01" transform="translate(-0.99 -0.53)"><rect y="0.42" width="189" height="16" fill="none"/></clipPath></defs><title>m3_top</title><g id="aec802e3-58f4-4fc6-9ceb-8c0fed3ba5da" data-name="レイヤー 2"><g id="b1a315f9-b0bc-4e44-867a-585794d58968" data-name="レイヤー 2"><g clip-path="url(#cfc05f32-3b6d-4754-8041-f025e0b17d01)"><path d="M5.36,11.46v2.67c.32,0,1.73-.27,2-.27a.94.94,0,0,1,1,1c0,.81-.56.9-1.7,1.1a33.92,33.92,0,0,1-4.33.39,1,1,0,0,1-1.07-1.05.89.89,0,0,1,.83-.92l1.24-.07V6.66a1.59,1.59,0,0,1,.71-1.44,7.63,7.63,0,0,1-2.18.68A1,1,0,0,1,1,4.85.82.82,0,0,1,1.65,4,25.93,25.93,0,0,0,7.74,1,1.78,1.78,0,0,1,8.89.58a1.93,1.93,0,0,1,1.21.48,33.56,33.56,0,0,0,4.66,2.53c1.77.65,2,.73,2,1.36s-.41,1.17-1,1.17a7.29,7.29,0,0,1-1.48-.46,1.29,1.29,0,0,1,.19.56v4a1,1,0,0,1-.24.68.91.91,0,0,1,.9.93c0,.61-.07.66-1.9,2.11a11.19,11.19,0,0,0,2.43.46.9.9,0,0,1,.83.93c0,.12,0,1-1.16,1a11.41,11.41,0,0,1-5.63-2,7.15,7.15,0,0,1-2.28-2.94ZM12.84,5c-.32-.17-1.27-.66-2.4-1.34-.25-.15-1.48-1-1.55-1s-.19.08-.41.25A19.43,19.43,0,0,1,4.47,5,1.88,1.88,0,0,1,4.85,5h3V4.32c0-.82.46-1,1.12-1a.85.85,0,0,1,1,1V5ZM5.7,6.82c-.34,0-.34,0-.34.58h7.09c0-.53,0-.58-.37-.58Zm6.37,2.84c.37,0,.39,0,.39-.61H5.36v.61Zm-2.28,1.8A5.26,5.26,0,0,0,11.36,13c.92-.73,1.05-.83,1.89-1.58H9.79Z" transform="translate(-0.99 -0.53)"/><path d="M19.61,5.61c-.68,0-1.36,0-1.36-.92s.61-1,1.36-1h1V2.23c0-.75,0-1.43.94-1.43s1.07.56,1.07,1.43V3.71H23c.7,0,1.36,0,1.36.92s-.59,1-1.36,1h-.41v1.1a20.62,20.62,0,0,0,2,2.21,1,1,0,0,1,.37.78.9.9,0,0,1-.92,1c-.39,0-.76-.31-1.43-1v5.27c0,.77,0,1.43-.94,1.43s-1.07-.56-1.07-1.43V9.95a15.76,15.76,0,0,1-1.09,1.68,1,1,0,0,1-.83.42,1,1,0,0,1-.9-.92c0-.34.08-.44.71-1.34a16.39,16.39,0,0,0,1.92-4.18Zm6.51,0c-.7,0-1.38,0-1.38-1s.61-1,1.38-1h3.81V2.16c0-.53,0-1.36,1-1.36,1.19,0,1.19.59,1.19,1.36v1.5c1,0,1.63,0,1.63,1s-.54,1-1.63,1V14.4c0,.88,0,1.77-2.11,1.77a6.16,6.16,0,0,1-2.65-.53.79.79,0,0,1-.42-.73c0-.17.05-1.09.88-1.09a4.16,4.16,0,0,1,.9.19,3.7,3.7,0,0,0,.92.12c.29,0,.34-.08.34-.37V6.94c-1.22,3.4-4.18,6.78-5.25,6.78a1.07,1.07,0,0,1-1-1.07c0-.34.22-.54.66-1a16,16,0,0,0,4-6.05Z" transform="translate(-0.99 -0.53)"/><path d="M37.26,14.14c-1.7,0-2.58-1.59-2.58-3.87a8,8,0,0,1,8.16-8c3.83,0,6.42,2.57,6.42,6.16a7,7,0,0,1-5.78,6.83,1.17,1.17,0,0,1-1.17-1.24c0-.72.46-.86,1.12-1.07a4.71,4.71,0,0,0,3.48-4.5,3.89,3.89,0,0,0-3.62-4.1C42.71,7.89,40.45,14.14,37.26,14.14ZM38.45,6.3a6.37,6.37,0,0,0-1.63,4.22c0,.7.19,1.23.52,1.23s1.08-1,1.51-1.66a16.34,16.34,0,0,0,2.08-5.41A5.79,5.79,0,0,0,38.45,6.3Z" transform="translate(-0.99 -0.53)"/><path d="M65.42,1.09c.73,0,1.38,0,1.38.9s-.53,1-1.38,1H63.5V4.76H65a1.41,1.41,0,0,1,1.51,1.55v8A1.41,1.41,0,0,1,65,15.84H57.26a1.4,1.4,0,0,1-1.5-1.55v-8a1.4,1.4,0,0,1,1.5-1.55h1.45V3H56.77c-.76,0-1,0-1.22-.34-.24.9-.53,1.65-.7,2.14V14.89c0,.77,0,1.36-1,1.36s-1-.48-1-1.36V8.62a.94.94,0,0,1-.78.44A1.06,1.06,0,0,1,51,8.13a1.63,1.63,0,0,1,.31-.78,23.79,23.79,0,0,0,2.48-6c.1-.31.25-.8.92-.8a1.11,1.11,0,0,1,1.06.65c.22-.14.41-.14,1-.14ZM58.71,13.82V6.75h-.77c-.27,0-.27.19-.27.29v6.49a.25.25,0,0,0,.27.29ZM60.58,3V4.76h1V3Zm0,3.72v7.07h1V6.75Zm2.92,0v7.07h.82c.26,0,.26-.17.26-.29V7c0-.08,0-.29-.26-.29Z" transform="translate(-0.99 -0.53)"/><path d="M81.73,1.94a1.42,1.42,0,0,1,1.48,1.5c0,.56-.41,1.73-2.41,3.43a16,16,0,0,0,2.79,1.24.78.78,0,0,1,.58.87.93.93,0,0,1-1,1,3.41,3.41,0,0,1-.76-.14A1.51,1.51,0,0,1,83,11.08v3.35a1.52,1.52,0,0,1-1.45,1.46h-5.2A1.51,1.51,0,0,1,75,14.43V11.08A1.44,1.44,0,0,1,75.44,10a2.25,2.25,0,0,1-.8.2.74.74,0,0,1-.42-.15,1,1,0,0,1-.66.27c-.34,0-.56-.17-1.16-.83v5.34c0,.75,0,1.36-.92,1.36-1.07,0-1.07-.49-1.07-1.36V10.57c-.6,1.12-.77,1.46-1.33,1.46a.93.93,0,0,1-1-.88c0-.27.08-.46.53-1.16a14.08,14.08,0,0,0,1.63-4.22h-.46c-.71,0-1.38,0-1.38-.9s.56-1,1.38-1h.63V2.07c0-.73,0-1.36.92-1.36,1.07,0,1.07.49,1.07,1.36v1.8c1,0,1.09,0,1.33.2A14.36,14.36,0,0,0,76,1.22c.2-.31.41-.63.87-.63.27,0,1.11.22,1.11.92a.9.9,0,0,1-.12.42ZM72.4,6.6c.42.54,1.28,1.55,1.65,1.9.15-.12,2.84-1.31,3.33-1.62A12.37,12.37,0,0,1,75.71,5c-.54.58-1,1-1.51,1a1.24,1.24,0,0,1-.76-.27,5.85,5.85,0,0,1-1,0Zm9.13,3A11.06,11.06,0,0,1,79,8.18,23.81,23.81,0,0,1,76.41,9.6Zm-4.3,1.82c-.27,0-.27.22-.27.39v1.8c0,.17,0,.37.27.37h3.6c.27,0,.27-.2.27-.39V11.82c0-.19,0-.39-.27-.39Zm.22-7.63a12.66,12.66,0,0,0,1.7,1.87,5.83,5.83,0,0,0,1.67-1.75c0-.12-.08-.12-.19-.12Z" transform="translate(-0.99 -0.53)"/><path d="M89.33,8.74c-.6.33-1,.56-1.59.93a2,2,0,0,1-1,.37,1.18,1.18,0,0,1-1.14-1.25c0-.61.38-.84.89-1.09l2-1L87.37,4a1.6,1.6,0,0,1-.14-.63,1.21,1.21,0,0,1,1.26-1.09c.72,0,.93.49,1.1.88s.82,2.12,1,2.48c2.77-1.37,4.34-2,5.83-2a3.67,3.67,0,0,1,4,3.69c0,2.3-1.72,3.49-3.8,3.49a6.21,6.21,0,0,1-2.29-.42,1.09,1.09,0,0,1-.65-1.05,1,1,0,0,1,1-1.1,3.58,3.58,0,0,1,.8.16,4,4,0,0,0,1.14.18c1.16,0,1.51-.72,1.51-1.26a1.65,1.65,0,0,0-1.79-1.59c-.79,0-1.79.23-5,1.89.84,2,1.35,3.24,2.42,5.52.56,1.23.68,1.45.68,1.82a1.28,1.28,0,0,1-1.37,1.17,1,1,0,0,1-1-.75Zm2.33-7.66a5.38,5.38,0,0,1,2.12.68c.63.28,1,.54,1,1.12a1.17,1.17,0,0,1-1.14,1.24A11.31,11.31,0,0,1,92,3.51c-1-.38-1.38-.51-1.38-1.24A1.11,1.11,0,0,1,91.66,1.08Z" transform="translate(-0.99 -0.53)"/><path d="M115,2.08a2.19,2.19,0,0,1,1.9.76c.25.39.25.85.25,2.38,0,9.28-.34,11-4.22,11-1.82,0-3.47-.14-3.47-1.27a.94.94,0,0,1,1-.92c.36,0,2,.17,2.29.17a1.72,1.72,0,0,0,1.9-1.67c.2-1.12.39-5.88.39-7s0-1.5-.41-1.5H106a15.64,15.64,0,0,1-1.87,2.33c-.29.31-.48.46-.8.46a1.2,1.2,0,0,1-1.16-1c0-.39.15-.58.78-1.34a20.67,20.67,0,0,0,2.14-3.06c.17-.27.48-.8,1-.8a1.08,1.08,0,0,1,1.16,1.07,1,1,0,0,1-.12.48Zm-3.15,3.16a1.42,1.42,0,0,1,1.36,1.46v4.49a1.41,1.41,0,0,1-1.36,1.46h-5.8a1.4,1.4,0,0,1-1.34-1.46V6.7a1.41,1.41,0,0,1,1.34-1.46ZM106.69,8h4.56V7.22c0-.19-.15-.21-.29-.21h-4c-.1,0-.29,0-.29.21Zm4.56,1.75h-4.56v.9c0,.19.19.2.29.2h4c.1,0,.29,0,.29-.2Z" transform="translate(-0.99 -0.53)"/><path d="M122.38,12.46c-1.28,2.31-1.68,2.31-2.1,2.31A1.24,1.24,0,0,1,119,13.6c0-.37.14-.54.56-1.09a19.19,19.19,0,0,0,2.66-5.07c-.32.05-1.72.33-2,.33-.95,0-1-1-1-1.14,0-.84.46-.95.84-1s2.24-.37,2.84-.44c.21-.88.23-1,.49-2.45.1-.59.3-1.05,1.14-1.05s1.19.44,1.19,1a15.26,15.26,0,0,1-.44,2.28c1.19-.05,3.59-.16,3.59,3a16.81,16.81,0,0,1-1,5.07,2.65,2.65,0,0,1-2.7,1.89c-.42,0-2.31,0-2.31-1.3,0-.21.09-1.19,1-1.19.17,0,1,.26,1.16.26.44,0,.68-.44.95-1.31A14.54,14.54,0,0,0,126.63,8c0-.67-.14-.93-1.05-.93-.28,0-.61,0-.87.05A30.36,30.36,0,0,1,122.38,12.46Zm7.83-8.19c.53,0,1,.33,1.89,1.61.68,1,1.58,2.3,1.58,3a1.24,1.24,0,0,1-1.3,1.19c-.68,0-.82-.28-1.37-1.39a9.93,9.93,0,0,0-1.77-2.56,1,1,0,0,1-.31-.72A1.26,1.26,0,0,1,130.21,4.26Zm1-2a4.45,4.45,0,0,1,2,2.08.69.69,0,0,1-.68.65c-.26,0-.37-.16-.7-.56-.14-.17-.89-.91-1.05-1.08a.64.64,0,0,1-.21-.46A.68.68,0,0,1,131.22,2.23ZM132.61,1a4.41,4.41,0,0,1,2,2.1.69.69,0,0,1-.68.63c-.23,0-.32-.09-.7-.56C133,3,132.29,2.22,132.13,2a.66.66,0,0,1-.21-.46A.68.68,0,0,1,132.61,1Z" transform="translate(-0.99 -0.53)"/><path d="M138.71,6.64a13.43,13.43,0,0,1-2.13.33,1.06,1.06,0,0,1-1.08-1.19c0-.95.65-1,1-1a19.18,19.18,0,0,0,2.24-.25c0-.32.09-2.52.12-2.73A1,1,0,0,1,140,.91c.72,0,1.16.35,1.16,1C141.14,2,141,3.69,141,4A1,1,0,0,1,142.07,5c0,.35-.12.58-.56,1.12a6.42,6.42,0,0,1,3.81-1.39c2.19,0,4.27,1.46,4.27,4.66,0,5-4.94,6-5.62,6-1.09,0-1.14-1.1-1.14-1.26,0-.75.44-.86,1.17-1a4,4,0,0,0,3.24-3.69c0-1.4-.74-2.56-2-2.56-1.47,0-3.17,1.19-4.43,2.29,0,.17,0,5.08,0,5.66s0,1.31-1.1,1.31-1.19-.68-1.19-1.19c0-.23,0-1.47.07-3.38-.19.26-1,1.4-1.14,1.63a1.2,1.2,0,0,1-1,.6,1.26,1.26,0,0,1-1.21-1.21c0-.42.1-.49.74-1.26a29.27,29.27,0,0,0,2.73-3.92Z" transform="translate(-0.99 -0.53)"/><path d="M154.72,12.46c-1.28,2.31-1.68,2.31-2.1,2.31a1.24,1.24,0,0,1-1.26-1.17c0-.37.14-.54.56-1.09a19.19,19.19,0,0,0,2.66-5.07c-.31.05-1.72.33-2,.33-.95,0-1-1-1-1.14,0-.84.46-.95.84-1s2.24-.37,2.84-.44c.21-.88.23-1,.49-2.45.1-.59.3-1.05,1.14-1.05s1.19.44,1.19,1a15.39,15.39,0,0,1-.44,2.28c1.19-.05,3.59-.16,3.59,3a16.8,16.8,0,0,1-1,5.07,2.65,2.65,0,0,1-2.7,1.89c-.42,0-2.31,0-2.31-1.3a1.05,1.05,0,0,1,1-1.19c.21,0,1,.26,1.16.26.44,0,.68-.44.95-1.31A14.56,14.56,0,0,0,159,8c0-.67-.14-.93-1.05-.93-.28,0-.61,0-.88.05A30.38,30.38,0,0,1,154.72,12.46ZM164.93,10c-.72,0-.89-.37-1.21-1.1a12.41,12.41,0,0,0-1.56-2.75c-.35-.42-.49-.6-.49-.91A1.26,1.26,0,0,1,163,4.07c.56,0,1,.35,1.86,1.72a8.1,8.1,0,0,1,1.42,3.05A1.2,1.2,0,0,1,164.93,10Z" transform="translate(-0.99 -0.53)"/><path d="M178.27,10.61a2.31,2.31,0,0,0-2.5-2.21c-2.56,0-4.32,1.76-5.21,2.63s-.93.89-1.31.89a1.18,1.18,0,0,1-1.17-1.14c0-.49.05-.54,1.47-1.81.54-.49,2.85-2.74,3.34-3.2.21-.19,1-1,1.77-1.61a29.74,29.74,0,0,1-3.4.42,1,1,0,0,1-1.08-1.12c0-1,.67-1.05,1.7-1.1a29.38,29.38,0,0,0,3-.23c.61-.09,1.71-.25,1.85-.25a1.28,1.28,0,0,1,1.34,1.31,1.57,1.57,0,0,1-.72,1.31c-.7.58-.8.67-2.36,2a5.46,5.46,0,0,1,1.15-.12,4.25,4.25,0,0,1,4.41,4.27c0,2.16-1.56,4.89-5.82,4.89-2.42,0-3.9-1-3.9-2.72a2.39,2.39,0,0,1,2.57-2.35,2.63,2.63,0,0,1,2.85,2.83A2.9,2.9,0,0,0,178.27,10.61Zm-3.93,2.56a.88.88,0,0,0-.9-.83.56.56,0,0,0-.62.55c0,.64.9.76,1.37.79A.93.93,0,0,0,174.34,13.17Z" transform="translate(-0.99 -0.53)"/><path d="M189,13.7a1.57,1.57,0,1,1-1.58-1.56A1.57,1.57,0,0,1,189,13.7ZM188,10.64c-.05.49-.24.8-.66.8s-.61-.29-.66-.8L186,3.3c-.08-.83,0-2,1.36-2s1.48,1.07,1.38,2Z" transform="translate(-0.99 -0.53)"/></g></g></g></svg>