<svg xmlns="http://www.w3.org/2000/svg" xmlns:xlink="http://www.w3.org/1999/xlink" viewBox="0 0 196.15 61.81"><defs><clipPath id="f057fc49-c689-4a77-8890-d92abe7716b9" transform="translate(-0.43 -0.78)"><rect x="0.3" width="197" height="63" fill="none"/></clipPath></defs><title>m3_text</title><g id="c6321514-db17-49b9-9b89-a153c29055c5" data-name="レイヤー 2"><g id="e493dc3e-e5f7-4176-b2fd-5703bf757785" data-name="レイヤー 2"><g clip-path="url(#f057fc49-c689-4a77-8890-d92abe7716b9)"><path d="M3.1,6.79c.25.79.72,1,1.94,1a9.65,9.65,0,0,0,1.78-.2c.15,0,.79-.15.9-.15.34,0,.64.23.64.73s-.44.72-.81.79A14.65,14.65,0,0,1,5,9.19a3.38,3.38,0,0,1-2.84-1A2.31,2.31,0,0,1,1.73,6.9a.66.66,0,0,1,.73-.65C2.93,6.25,3,6.48,3.1,6.79ZM3.27,2a6.79,6.79,0,0,1,.68.1,8.56,8.56,0,0,0,1.29.09,8.6,8.6,0,0,0,1-.06c.12,0,.5-.06.61-.06.37,0,.62.25.62.74s-.26.79-2.14.79c-2.74,0-2.74-.4-2.74-.91A.63.63,0,0,1,3.27,2Z" transform="translate(-0.43 -0.78)"/><path d="M11.9,6.79c.25.79.72,1,1.94,1a9.65,9.65,0,0,0,1.78-.2c.15,0,.79-.15.9-.15.34,0,.64.23.64.73s-.44.72-.81.79a14.65,14.65,0,0,1-2.49.23,3.38,3.38,0,0,1-2.84-1,2.31,2.31,0,0,1-.47-1.28.66.66,0,0,1,.73-.65C11.74,6.25,11.81,6.48,11.9,6.79ZM12.08,2a6.79,6.79,0,0,1,.68.1A8.56,8.56,0,0,0,14,2.17a8.6,8.6,0,0,0,1-.06c.12,0,.5-.06.61-.06.37,0,.62.25.62.74s-.26.79-2.14.79c-2.74,0-2.74-.4-2.74-.91A.63.63,0,0,1,12.08,2Z" transform="translate(-0.43 -0.78)"/><path d="M20.88,6.5c.12,0,.53.05.53.45A9,9,0,0,1,21.1,8c0,.17-.2,1-.24,1.15a.52.52,0,0,1-.56.41c-.46,0-.61-.29-.76-.73a9.21,9.21,0,0,1-.43-3,13.49,13.49,0,0,1,.45-3.46c.15-.57.24-.89.75-.89.33,0,.73.2.73.57a8.28,8.28,0,0,1-.24.91,9.87,9.87,0,0,0-.4,2.92c0,.4,0,.59,0,1C20.51,6.68,20.59,6.5,20.88,6.5Zm1.73.34c.24,0,.29.06.62.39.14.15.46.41,1.4.41a8.1,8.1,0,0,0,1.09-.09,3.62,3.62,0,0,1,.48-.05.6.6,0,0,1,.66.64c0,.51-.16.84-2,.84C22.32,9,22,7.85,22,7.51A.66.66,0,0,1,22.61,6.83Zm.33-4.47c.12,0,.24,0,.36,0a6.48,6.48,0,0,0,.77.05,5.89,5.89,0,0,0,1-.08c.12,0,.68-.12.76-.12a.59.59,0,0,1,.61.66c0,.5-.35.63-.64.69A9,9,0,0,1,24,3.77c-1.4,0-1.62-.26-1.62-.75A.57.57,0,0,1,22.94,2.37Z" transform="translate(-0.43 -0.78)"/><path d="M31.07,2.49c.39,0,.8,0,.8.5s-.41.5-.8.5h-2.2c-.38,0-.8,0-.8-.5s.42-.5.8-.5Zm-.33,4a.74.74,0,0,1,.84.8V8.94a.74.74,0,0,1-.84.8H29.21a.74.74,0,0,1-.84-.8V7.29a.75.75,0,0,1,.84-.8Zm-.12-2.64c.36,0,.8,0,.8.48s-.45.46-.8.46H29.26c-.35,0-.79,0-.79-.47s.44-.47.79-.47Zm.1-2.75c.39,0,.8,0,.8.51s-.41.51-.8.51H29.31c-.4,0-.8,0-.8-.51s.41-.51.8-.51Zm0,4.07c.35,0,.79,0,.79.47s-.44.47-.79.47H29.31c-.36,0-.8,0-.8-.47s.44-.47.8-.47Zm-1.13,2.4a.15.15,0,0,0-.17.14v.78a.15.15,0,0,0,.17.14h.73c.12,0,.16-.06.16-.14V7.71a.15.15,0,0,0-.16-.14Zm2.55-4.41c0-.75.57-.75.92-.75-.33-.58-.37-.64-.41-.7a.74.74,0,0,1-.17-.42.56.56,0,0,1,.6-.51c.43,0,.8.79.9,1a1.08,1.08,0,0,1,.13.61h.83a11.16,11.16,0,0,0,.59-1.15c.12-.25.22-.42.5-.42s.65.17.65.53a4,4,0,0,1-.43,1.06.66.66,0,0,1,.58.73V5.71c0,.75-.62.75-.87.75h-.18V8.59c0,.13,0,.23.24.23s.24-.07.26-.43,0-.79.46-.79a.53.53,0,0,1,.53.56c0,1.73-.58,1.82-1.35,1.82-.59,0-1.27,0-1.27-.76V6.46H34a4.32,4.32,0,0,1-1.12,3.16c-.4.41-.61.41-.7.41a.56.56,0,0,1-.55-.56c0-.19,0-.24.49-.76a3.15,3.15,0,0,0,.8-2.26.69.69,0,0,1-.79-.74Zm1.32.42c-.17,0-.21.05-.21.19V5.15c0,.19.1.2.21.2h2c.18,0,.22-.06.22-.2V3.77c0-.19-.1-.19-.22-.19Z" transform="translate(-0.43 -0.78)"/><path d="M40.91,1.39a.76.76,0,0,1,.74.75V7a.76.76,0,0,1-.74.75H39A.76.76,0,0,1,38.3,7V2.14A.76.76,0,0,1,39,1.39ZM40.58,4V2.75c0-.26,0-.26-.2-.26H39.6c-.17,0-.21,0-.21.26V4ZM39.39,5.08V6.4c0,.26,0,.25.21.25h.78c.18,0,.2,0,.2-.25V5.08Zm6.36,2h-2.3A4.68,4.68,0,0,1,42.32,9.5c-.47.53-.67.59-.83.59a.65.65,0,0,1-.62-.63c0-.15,0-.23.37-.6a3.81,3.81,0,0,0,1.12-3V2a.75.75,0,0,1,.77-.84h3a.79.79,0,0,1,.62.35,1.16,1.16,0,0,1,.17.74V8.89c0,1.08-1,1.08-1.47,1.08s-1.62,0-1.62-.68c0-.24.16-.63.52-.63.06,0,.39.08.46.09a4.06,4.06,0,0,0,.67.09c.3,0,.3-.12.3-.27ZM43.54,3.53h2.21v-1c0-.12,0-.25-.24-.25h-1.7c-.19,0-.27,0-.27.31Zm2.21,1.12H43.54V5.88h2.21Z" transform="translate(-0.43 -0.78)"/><path d="M50,6.79c.25.79.72,1,1.94,1a9.65,9.65,0,0,0,1.78-.2c.15,0,.79-.15.9-.15.34,0,.64.23.64.73s-.44.72-.81.79a14.65,14.65,0,0,1-2.49.23,3.38,3.38,0,0,1-2.84-1,2.31,2.31,0,0,1-.47-1.28.66.66,0,0,1,.73-.65C49.83,6.25,49.9,6.48,50,6.79ZM50.17,2a6.79,6.79,0,0,1,.68.1,8.56,8.56,0,0,0,1.29.09,8.6,8.6,0,0,0,1-.06c.12,0,.5-.06.61-.06.37,0,.62.25.62.74s-.26.79-2.14.79c-2.74,0-2.74-.4-2.74-.91A.63.63,0,0,1,50.17,2Z" transform="translate(-0.43 -0.78)"/><path d="M58.8,6.79c.25.79.72,1,1.94,1a9.65,9.65,0,0,0,1.78-.2c.15,0,.79-.15.9-.15.34,0,.64.23.64.73s-.44.72-.81.79a14.65,14.65,0,0,1-2.49.23,3.38,3.38,0,0,1-2.84-1,2.31,2.31,0,0,1-.47-1.28.66.66,0,0,1,.73-.65C58.63,6.25,58.7,6.48,58.8,6.79ZM59,2a6.79,6.79,0,0,1,.68.1,8.56,8.56,0,0,0,1.29.09,8.6,8.6,0,0,0,1-.06c.12,0,.5-.06.61-.06.37,0,.62.25.62.74s-.26.79-2.14.79c-2.74,0-2.74-.4-2.74-.91A.63.63,0,0,1,59,2Z" transform="translate(-0.43 -0.78)"/><path d="M67.77,6.5c.12,0,.53.05.53.45A9,9,0,0,1,68,8c0,.17-.2,1-.24,1.15a.52.52,0,0,1-.56.41c-.46,0-.61-.29-.76-.73a9.21,9.21,0,0,1-.43-3,13.49,13.49,0,0,1,.45-3.46c.15-.57.24-.89.75-.89.33,0,.73.2.73.57A8.28,8.28,0,0,1,67.7,3a9.87,9.87,0,0,0-.4,2.92c0,.4,0,.59,0,1C67.4,6.68,67.48,6.5,67.77,6.5Zm1.73.34c.24,0,.29.06.62.39.14.15.46.41,1.4.41a8.1,8.1,0,0,0,1.09-.09,3.62,3.62,0,0,1,.48-.05.6.6,0,0,1,.66.64c0,.51-.16.84-2,.84-2.51,0-2.88-1.12-2.88-1.46A.66.66,0,0,1,69.5,6.83Zm.33-4.47c.12,0,.24,0,.36,0a6.48,6.48,0,0,0,.77.05,5.89,5.89,0,0,0,1-.08c.12,0,.68-.12.76-.12a.59.59,0,0,1,.61.66c0,.5-.35.63-.64.69a9,9,0,0,1-1.79.17c-1.4,0-1.62-.26-1.62-.75A.57.57,0,0,1,69.83,2.37Z" transform="translate(-0.43 -0.78)"/><path d="M78,2.49c.39,0,.8,0,.8.5s-.41.5-.8.5h-2.2c-.38,0-.8,0-.8-.5s.42-.5.8-.5Zm-.33,4a.74.74,0,0,1,.84.8V8.94a.74.74,0,0,1-.84.8H76.11a.74.74,0,0,1-.84-.8V7.29a.75.75,0,0,1,.84-.8Zm-.12-2.64c.36,0,.8,0,.8.48s-.45.46-.8.46H76.16c-.35,0-.79,0-.79-.47s.44-.47.79-.47Zm.1-2.75c.39,0,.8,0,.8.51s-.41.51-.8.51H76.21c-.4,0-.8,0-.8-.51s.41-.51.8-.51Zm0,4.07c.35,0,.79,0,.79.47s-.44.47-.79.47H76.21c-.36,0-.8,0-.8-.47s.44-.47.8-.47Zm-1.13,2.4a.15.15,0,0,0-.17.14v.78a.15.15,0,0,0,.17.14h.73c.12,0,.16-.06.16-.14V7.71a.15.15,0,0,0-.16-.14ZM79,3.16c0-.75.57-.75.92-.75-.33-.58-.37-.64-.41-.7a.74.74,0,0,1-.17-.42A.56.56,0,0,1,80,.78c.43,0,.8.79.9,1a1.08,1.08,0,0,1,.13.61h.83a11.16,11.16,0,0,0,.59-1.15c.12-.25.22-.42.5-.42s.65.17.65.53a4,4,0,0,1-.43,1.06.66.66,0,0,1,.58.73V5.71c0,.75-.62.75-.87.75h-.18V8.59c0,.13,0,.23.24.23s.24-.07.26-.43,0-.79.46-.79a.53.53,0,0,1,.53.56c0,1.73-.58,1.82-1.35,1.82-.59,0-1.27,0-1.27-.76V6.46h-.64a4.32,4.32,0,0,1-1.12,3.16c-.4.41-.61.41-.7.41a.56.56,0,0,1-.55-.56c0-.19,0-.24.49-.76a3.15,3.15,0,0,0,.8-2.26A.69.69,0,0,1,79,5.71Zm1.32.42c-.17,0-.21.05-.21.19V5.15c0,.19.1.2.21.2h2c.18,0,.22-.06.22-.2V3.77c0-.19-.1-.19-.22-.19Z" transform="translate(-0.43 -0.78)"/><path d="M87.8,1.39a.76.76,0,0,1,.74.75V7a.76.76,0,0,1-.74.75H85.94A.76.76,0,0,1,85.19,7V2.14a.76.76,0,0,1,.75-.75ZM87.47,4V2.75c0-.26,0-.26-.2-.26h-.78c-.17,0-.21,0-.21.26V4ZM86.28,5.08V6.4c0,.26,0,.25.21.25h.78c.18,0,.2,0,.2-.25V5.08Zm6.36,2h-2.3A4.68,4.68,0,0,1,89.21,9.5c-.47.53-.67.59-.83.59a.65.65,0,0,1-.62-.63c0-.15,0-.23.37-.6a3.81,3.81,0,0,0,1.12-3V2A.75.75,0,0,1,90,1.17h3a.79.79,0,0,1,.62.35,1.16,1.16,0,0,1,.17.74V8.89c0,1.08-1,1.08-1.47,1.08s-1.62,0-1.62-.68c0-.24.16-.63.52-.63.06,0,.39.08.46.09a4.06,4.06,0,0,0,.67.09c.3,0,.3-.12.3-.27ZM90.43,3.53h2.21v-1c0-.12,0-.25-.24-.25H90.7c-.19,0-.27,0-.27.31Zm2.21,1.12H90.43V5.88h2.21Z" transform="translate(-0.43 -0.78)"/><path d="M96.89,6.79c.25.79.72,1,1.94,1a9.65,9.65,0,0,0,1.78-.2c.15,0,.79-.15.9-.15.34,0,.64.23.64.73s-.44.72-.81.79a14.65,14.65,0,0,1-2.49.23,3.38,3.38,0,0,1-2.84-1,2.31,2.31,0,0,1-.47-1.28.66.66,0,0,1,.73-.65C96.72,6.25,96.79,6.48,96.89,6.79ZM97.06,2a6.79,6.79,0,0,1,.68.1A8.56,8.56,0,0,0,99,2.17a8.6,8.6,0,0,0,1-.06c.12,0,.5-.06.61-.06.37,0,.62.25.62.74s-.26.79-2.14.79c-2.74,0-2.74-.4-2.74-.91A.63.63,0,0,1,97.06,2Z" transform="translate(-0.43 -0.78)"/><path d="M105.69,6.79c.25.79.72,1,1.94,1a9.65,9.65,0,0,0,1.78-.2c.15,0,.79-.15.9-.15.34,0,.64.23.64.73s-.44.72-.81.79a14.65,14.65,0,0,1-2.49.23,3.38,3.38,0,0,1-2.84-1,2.31,2.31,0,0,1-.47-1.28.66.66,0,0,1,.73-.65C105.52,6.25,105.6,6.48,105.69,6.79ZM105.86,2a6.79,6.79,0,0,1,.68.1,8.56,8.56,0,0,0,1.29.09,8.6,8.6,0,0,0,1-.06c.12,0,.5-.06.61-.06.37,0,.62.25.62.74s-.26.79-2.14.79c-2.74,0-2.74-.4-2.74-.91A.63.63,0,0,1,105.86,2Z" transform="translate(-0.43 -0.78)"/><path d="M114.66,6.5c.12,0,.53.05.53.45A9,9,0,0,1,114.88,8c0,.17-.2,1-.24,1.15a.52.52,0,0,1-.56.41c-.46,0-.61-.29-.76-.73a9.21,9.21,0,0,1-.43-3,13.49,13.49,0,0,1,.45-3.46c.15-.57.24-.89.75-.89.33,0,.73.2.73.57a8.28,8.28,0,0,1-.24.91,9.87,9.87,0,0,0-.4,2.92c0,.4,0,.59,0,1C114.29,6.68,114.38,6.5,114.66,6.5Zm1.73.34c.24,0,.29.06.62.39.14.15.46.41,1.4.41a8.1,8.1,0,0,0,1.09-.09,3.62,3.62,0,0,1,.48-.05.6.6,0,0,1,.66.64c0,.51-.16.84-2,.84-2.51,0-2.88-1.12-2.88-1.46A.66.66,0,0,1,116.39,6.83Zm.33-4.47c.12,0,.24,0,.36,0a6.48,6.48,0,0,0,.77.05,5.89,5.89,0,0,0,1-.08c.12,0,.68-.12.76-.12a.59.59,0,0,1,.61.66c0,.5-.35.63-.64.69a9,9,0,0,1-1.79.17c-1.4,0-1.62-.26-1.62-.75A.57.57,0,0,1,116.72,2.37Z" transform="translate(-0.43 -0.78)"/><path d="M124.86,2.49c.39,0,.8,0,.8.5s-.41.5-.8.5h-2.2c-.38,0-.8,0-.8-.5s.42-.5.8-.5Zm-.33,4a.74.74,0,0,1,.84.8V8.94a.74.74,0,0,1-.84.8H123a.74.74,0,0,1-.84-.8V7.29a.75.75,0,0,1,.84-.8Zm-.12-2.64c.36,0,.8,0,.8.48s-.45.46-.8.46H123c-.35,0-.79,0-.79-.47s.44-.47.79-.47Zm.1-2.75c.39,0,.8,0,.8.51s-.41.51-.8.51H123.1c-.4,0-.8,0-.8-.51s.41-.51.8-.51Zm0,4.07c.35,0,.79,0,.79.47s-.44.47-.79.47H123.1c-.36,0-.8,0-.8-.47s.44-.47.8-.47Zm-1.13,2.4a.15.15,0,0,0-.17.14v.78a.15.15,0,0,0,.17.14h.73c.12,0,.16-.06.16-.14V7.71a.15.15,0,0,0-.16-.14Zm2.55-4.41c0-.75.57-.75.92-.75-.33-.58-.37-.64-.41-.7a.74.74,0,0,1-.17-.42.56.56,0,0,1,.6-.51c.43,0,.8.79.9,1a1.08,1.08,0,0,1,.13.61h.83a11.16,11.16,0,0,0,.59-1.15c.12-.25.22-.42.5-.42s.65.17.65.53A4,4,0,0,1,130,2.43a.66.66,0,0,1,.58.73V5.71c0,.75-.62.75-.87.75h-.18V8.59c0,.13,0,.23.24.23s.24-.07.26-.43,0-.79.46-.79a.53.53,0,0,1,.53.56c0,1.73-.58,1.82-1.35,1.82-.59,0-1.27,0-1.27-.76V6.46h-.64a4.32,4.32,0,0,1-1.12,3.16c-.4.41-.61.41-.7.41a.56.56,0,0,1-.55-.56c0-.19,0-.24.49-.76a3.15,3.15,0,0,0,.8-2.26.69.69,0,0,1-.79-.74Zm1.32.42c-.17,0-.21.05-.21.19V5.15c0,.19.1.2.21.2h2c.18,0,.22-.06.22-.2V3.77c0-.19-.1-.19-.22-.19Z" transform="translate(-0.43 -0.78)"/><path d="M134.69,1.39a.76.76,0,0,1,.74.75V7a.76.76,0,0,1-.74.75h-1.86a.76.76,0,0,1-.75-.75V2.14a.76.76,0,0,1,.75-.75ZM134.36,4V2.75c0-.26,0-.26-.2-.26h-.78c-.17,0-.21,0-.21.26V4Zm-1.19,1.12V6.4c0,.26,0,.25.21.25h.78c.18,0,.2,0,.2-.25V5.08Zm6.36,2h-2.3A4.68,4.68,0,0,1,136.1,9.5c-.47.53-.67.59-.83.59a.65.65,0,0,1-.62-.63c0-.15,0-.23.37-.6a3.81,3.81,0,0,0,1.12-3V2a.75.75,0,0,1,.77-.84h3a.79.79,0,0,1,.62.35,1.16,1.16,0,0,1,.17.74V8.89c0,1.08-1,1.08-1.47,1.08s-1.62,0-1.62-.68c0-.24.16-.63.52-.63.06,0,.39.08.46.09a4.06,4.06,0,0,0,.67.09c.3,0,.3-.12.3-.27Zm-2.21-3.51h2.21v-1c0-.12,0-.25-.24-.25h-1.7c-.19,0-.27,0-.27.31Zm2.21,1.12h-2.21V5.88h2.21Z" transform="translate(-0.43 -0.78)"/><path d="M143.78,6.79c.25.79.72,1,1.94,1a9.65,9.65,0,0,0,1.78-.2c.15,0,.79-.15.9-.15.34,0,.64.23.64.73s-.44.72-.81.79a14.65,14.65,0,0,1-2.49.23,3.38,3.38,0,0,1-2.84-1,2.31,2.31,0,0,1-.47-1.28.66.66,0,0,1,.73-.65C143.61,6.25,143.69,6.48,143.78,6.79ZM144,2a6.79,6.79,0,0,1,.68.1,8.56,8.56,0,0,0,1.29.09,8.6,8.6,0,0,0,1-.06c.12,0,.5-.06.61-.06.37,0,.62.25.62.74s-.26.79-2.14.79c-2.74,0-2.74-.4-2.74-.91A.63.63,0,0,1,144,2Z" transform="translate(-0.43 -0.78)"/><path d="M152.58,6.79c.25.79.72,1,1.94,1a9.65,9.65,0,0,0,1.78-.2c.15,0,.79-.15.9-.15.34,0,.64.23.64.73s-.44.72-.81.79a14.65,14.65,0,0,1-2.49.23,3.38,3.38,0,0,1-2.84-1,2.31,2.31,0,0,1-.47-1.28.66.66,0,0,1,.73-.65C152.42,6.25,152.49,6.48,152.58,6.79ZM152.76,2a6.79,6.79,0,0,1,.68.1,8.56,8.56,0,0,0,1.29.09,8.6,8.6,0,0,0,1-.06c.12,0,.5-.06.61-.06.37,0,.62.25.62.74s-.26.79-2.14.79c-2.74,0-2.74-.4-2.74-.91A.63.63,0,0,1,152.76,2Z" transform="translate(-0.43 -0.78)"/><path d="M161.56,6.5c.12,0,.53.05.53.45A9,9,0,0,1,161.77,8c0,.17-.2,1-.24,1.15a.52.52,0,0,1-.56.41c-.46,0-.61-.29-.76-.73a9.21,9.21,0,0,1-.43-3,13.49,13.49,0,0,1,.45-3.46c.15-.57.24-.89.75-.89.33,0,.73.2.73.57a8.28,8.28,0,0,1-.24.91,9.87,9.87,0,0,0-.4,2.92c0,.4,0,.59,0,1C161.19,6.68,161.27,6.5,161.56,6.5Zm1.73.34c.24,0,.29.06.62.39.14.15.46.41,1.4.41a8.1,8.1,0,0,0,1.09-.09,3.62,3.62,0,0,1,.48-.05.6.6,0,0,1,.66.64c0,.51-.16.84-2,.84-2.51,0-2.88-1.12-2.88-1.46A.66.66,0,0,1,163.29,6.83Zm.33-4.47c.12,0,.24,0,.36,0a6.48,6.48,0,0,0,.77.05,5.89,5.89,0,0,0,1-.08c.12,0,.68-.12.76-.12a.59.59,0,0,1,.61.66c0,.5-.35.63-.64.69a9,9,0,0,1-1.79.17c-1.4,0-1.62-.26-1.62-.75A.57.57,0,0,1,163.62,2.37Z" transform="translate(-0.43 -0.78)"/><path d="M171.75,2.49c.39,0,.8,0,.8.5s-.41.5-.8.5h-2.2c-.38,0-.8,0-.8-.5s.42-.5.8-.5Zm-.33,4a.74.74,0,0,1,.84.8V8.94a.74.74,0,0,1-.84.8h-1.53a.74.74,0,0,1-.84-.8V7.29a.75.75,0,0,1,.84-.8Zm-.12-2.64c.36,0,.8,0,.8.48s-.45.46-.8.46h-1.36c-.35,0-.79,0-.79-.47s.44-.47.79-.47Zm.1-2.75c.39,0,.8,0,.8.51s-.41.51-.8.51H170c-.4,0-.8,0-.8-.51s.41-.51.8-.51Zm0,4.07c.35,0,.79,0,.79.47s-.44.47-.79.47H170c-.36,0-.8,0-.8-.47s.44-.47.8-.47Zm-1.13,2.4a.15.15,0,0,0-.17.14v.78a.15.15,0,0,0,.17.14H171c.12,0,.16-.06.16-.14V7.71a.15.15,0,0,0-.16-.14Zm2.55-4.41c0-.75.57-.75.92-.75-.33-.58-.37-.64-.41-.7a.74.74,0,0,1-.17-.42.56.56,0,0,1,.6-.51c.43,0,.8.79.9,1a1.08,1.08,0,0,1,.13.61h.83a11.16,11.16,0,0,0,.59-1.15c.12-.25.22-.42.5-.42s.65.17.65.53a4,4,0,0,1-.43,1.06.66.66,0,0,1,.58.73V5.71c0,.75-.62.75-.87.75h-.18V8.59c0,.13,0,.23.24.23s.24-.07.26-.43,0-.79.46-.79a.53.53,0,0,1,.53.56c0,1.73-.58,1.82-1.35,1.82-.59,0-1.27,0-1.27-.76V6.46h-.64a4.32,4.32,0,0,1-1.12,3.16c-.4.41-.61.41-.7.41a.56.56,0,0,1-.55-.56c0-.19,0-.24.49-.76a3.15,3.15,0,0,0,.8-2.26.69.69,0,0,1-.79-.74Zm1.32.42c-.17,0-.21.05-.21.19V5.15c0,.19.1.2.21.2h2c.18,0,.22-.06.22-.2V3.77c0-.19-.1-.19-.22-.19Z" transform="translate(-0.43 -0.78)"/><path d="M181.59,1.39a.76.76,0,0,1,.74.75V7a.76.76,0,0,1-.74.75h-1.86A.76.76,0,0,1,179,7V2.14a.76.76,0,0,1,.75-.75ZM181.26,4V2.75c0-.26,0-.26-.2-.26h-.78c-.17,0-.21,0-.21.26V4Zm-1.19,1.12V6.4c0,.26,0,.25.21.25h.78c.18,0,.2,0,.2-.25V5.08Zm6.36,2h-2.3A4.68,4.68,0,0,1,183,9.5c-.47.53-.67.59-.83.59a.65.65,0,0,1-.62-.63c0-.15,0-.23.37-.6a3.81,3.81,0,0,0,1.12-3V2a.75.75,0,0,1,.77-.84h3a.79.79,0,0,1,.62.35,1.16,1.16,0,0,1,.17.74V8.89c0,1.08-1,1.08-1.47,1.08s-1.62,0-1.62-.68c0-.24.16-.63.52-.63.06,0,.39.08.46.09a4.06,4.06,0,0,0,.67.09c.3,0,.3-.12.3-.27Zm-2.21-3.51h2.21v-1c0-.12,0-.25-.24-.25h-1.7c-.19,0-.27,0-.27.31Zm2.21,1.12h-2.21V5.88h2.21Z" transform="translate(-0.43 -0.78)"/><path d="M190.67,6.79c.25.79.72,1,1.94,1a9.65,9.65,0,0,0,1.78-.2c.15,0,.79-.15.9-.15.34,0,.64.23.64.73s-.44.72-.81.79a14.65,14.65,0,0,1-2.49.23,3.38,3.38,0,0,1-2.84-1,2.31,2.31,0,0,1-.47-1.28.66.66,0,0,1,.73-.65C190.51,6.25,190.58,6.48,190.67,6.79ZM190.85,2a6.79,6.79,0,0,1,.68.1,8.56,8.56,0,0,0,1.29.09,8.6,8.6,0,0,0,1-.06c.12,0,.5-.06.61-.06.37,0,.62.25.62.74s-.26.79-2.14.79c-2.74,0-2.74-.4-2.74-.91A.63.63,0,0,1,190.85,2Z" transform="translate(-0.43 -0.78)"/><path d="M3.1,24.29c.25.79.72,1,1.94,1a9.65,9.65,0,0,0,1.78-.2c.15,0,.79-.15.9-.15.34,0,.64.23.64.73s-.44.72-.81.79A14.65,14.65,0,0,1,5,26.69a3.38,3.38,0,0,1-2.84-1,2.31,2.31,0,0,1-.47-1.28.66.66,0,0,1,.73-.65C2.93,23.75,3,24,3.1,24.29Zm.17-4.82a6.79,6.79,0,0,1,.68.1,8.76,8.76,0,0,0,2.32,0c.12,0,.5-.06.61-.06.37,0,.62.25.62.74s-.26.79-2.14.79c-2.74,0-2.74-.4-2.74-.91A.63.63,0,0,1,3.27,19.47Z" transform="translate(-0.43 -0.78)"/><path d="M12.08,24c.12,0,.53.05.53.45a9,9,0,0,1-.31,1.06c0,.17-.2,1-.24,1.15a.52.52,0,0,1-.56.41c-.46,0-.61-.29-.76-.73a9.21,9.21,0,0,1-.43-3,13.49,13.49,0,0,1,.45-3.46c.15-.57.24-.89.75-.89.33,0,.73.2.73.57a8.28,8.28,0,0,1-.24.91,9.87,9.87,0,0,0-.4,2.92c0,.4,0,.59,0,1C11.71,24.18,11.79,24,12.08,24Zm1.73.34c.24,0,.29.06.62.39.14.15.46.41,1.4.41A8.1,8.1,0,0,0,16.92,25,3.62,3.62,0,0,1,17.4,25a.6.6,0,0,1,.66.64c0,.51-.16.84-2,.84-2.51,0-2.88-1.12-2.88-1.46A.66.66,0,0,1,13.81,24.33Zm.33-4.47c.12,0,.24,0,.36,0a6.48,6.48,0,0,0,.77.05,5.89,5.89,0,0,0,1-.08c.12,0,.68-.12.76-.12a.59.59,0,0,1,.61.66c0,.5-.35.63-.64.69a9,9,0,0,1-1.79.17c-1.4,0-1.62-.26-1.62-.75A.57.57,0,0,1,14.14,19.87Z" transform="translate(-0.43 -0.78)"/><path d="M22.27,20c.39,0,.8,0,.8.5s-.41.5-.8.5h-2.2c-.38,0-.8,0-.8-.5s.42-.5.8-.5Zm-.33,4a.74.74,0,0,1,.84.8v1.65a.74.74,0,0,1-.84.8H20.41a.74.74,0,0,1-.84-.8V24.79a.75.75,0,0,1,.84-.8Zm-.12-2.64c.36,0,.8,0,.8.48s-.45.46-.8.46H20.46c-.35,0-.79,0-.79-.47s.44-.47.79-.47Zm.1-2.75c.39,0,.8,0,.8.51s-.41.51-.8.51H20.51c-.4,0-.8,0-.8-.51s.41-.51.8-.51Zm0,4.07c.35,0,.79,0,.79.47s-.44.47-.79.47H20.51c-.36,0-.8,0-.8-.47s.44-.47.8-.47Zm-1.13,2.4a.15.15,0,0,0-.17.14V26a.15.15,0,0,0,.17.14h.73c.12,0,.16-.06.16-.14v-.78a.15.15,0,0,0-.16-.14Zm2.55-4.41c0-.75.57-.75.92-.75-.33-.58-.37-.64-.41-.7a.74.74,0,0,1-.17-.42.56.56,0,0,1,.6-.51c.43,0,.8.79.9,1a1.08,1.08,0,0,1,.13.61h.83a11.16,11.16,0,0,0,.59-1.15c.12-.25.22-.42.5-.42s.65.17.65.53a4,4,0,0,1-.43,1.06.66.66,0,0,1,.58.73v2.55c0,.75-.62.75-.87.75H27v2.13c0,.13,0,.23.24.23s.24-.07.26-.43,0-.79.46-.79a.53.53,0,0,1,.53.56c0,1.73-.58,1.82-1.35,1.82-.59,0-1.27,0-1.27-.76V24h-.64a4.32,4.32,0,0,1-1.12,3.16c-.4.41-.61.41-.7.41a.56.56,0,0,1-.55-.56c0-.19,0-.24.49-.76a3.15,3.15,0,0,0,.8-2.26.69.69,0,0,1-.79-.74Zm1.32.42c-.17,0-.21.05-.21.19v1.38c0,.19.1.2.21.2h2c.18,0,.22-.06.22-.2V21.27c0-.19-.1-.19-.22-.19Z" transform="translate(-0.43 -0.78)"/><path d="M32.11,18.89a.76.76,0,0,1,.74.75v4.91a.76.76,0,0,1-.74.75H30.25a.76.76,0,0,1-.75-.75V19.64a.76.76,0,0,1,.75-.75Zm-.33,2.57V20.25c0-.26,0-.26-.2-.26H30.8c-.17,0-.21,0-.21.26v1.21Zm-1.19,1.12V23.9c0,.26,0,.25.21.25h.78c.18,0,.2,0,.2-.25V22.58Zm6.36,2h-2.3A4.68,4.68,0,0,1,33.52,27c-.47.53-.67.59-.83.59a.65.65,0,0,1-.62-.63c0-.15,0-.23.37-.6a3.81,3.81,0,0,0,1.12-3V19.51a.75.75,0,0,1,.77-.84h3a.79.79,0,0,1,.62.35,1.16,1.16,0,0,1,.17.74v6.63c0,1.08-1,1.08-1.47,1.08s-1.62,0-1.62-.68c0-.24.16-.63.52-.63.06,0,.39.08.46.09a4.06,4.06,0,0,0,.67.09c.3,0,.3-.12.3-.27ZM34.74,21h2.21v-1c0-.12,0-.25-.24-.25H35c-.19,0-.27,0-.27.31Zm2.21,1.12H34.74v1.23h2.21Z" transform="translate(-0.43 -0.78)"/><path d="M41.19,24.29c.25.79.72,1,1.94,1a9.65,9.65,0,0,0,1.78-.2c.15,0,.79-.15.9-.15.34,0,.64.23.64.73s-.44.72-.81.79a14.65,14.65,0,0,1-2.49.23,3.38,3.38,0,0,1-2.84-1,2.31,2.31,0,0,1-.47-1.28.66.66,0,0,1,.73-.65C41,23.75,41.1,24,41.19,24.29Zm.17-4.82a6.79,6.79,0,0,1,.68.1,8.76,8.76,0,0,0,2.32,0c.12,0,.5-.06.61-.06.37,0,.62.25.62.74s-.26.79-2.14.79c-2.74,0-2.74-.4-2.74-.91A.63.63,0,0,1,41.37,19.47Z" transform="translate(-0.43 -0.78)"/><path d="M50,24.29c.25.79.72,1,1.94,1a9.65,9.65,0,0,0,1.78-.2c.15,0,.79-.15.9-.15.34,0,.64.23.64.73s-.44.72-.81.79a14.65,14.65,0,0,1-2.49.23,3.38,3.38,0,0,1-2.84-1,2.31,2.31,0,0,1-.47-1.28.66.66,0,0,1,.73-.65C49.83,23.75,49.9,24,50,24.29Zm.17-4.82a6.79,6.79,0,0,1,.68.1,8.76,8.76,0,0,0,2.32,0c.12,0,.5-.06.61-.06.37,0,.62.25.62.74s-.26.79-2.14.79c-2.74,0-2.74-.4-2.74-.91A.63.63,0,0,1,50.17,19.47Z" transform="translate(-0.43 -0.78)"/><path d="M59,24c.12,0,.53.05.53.45a9,9,0,0,1-.31,1.06c0,.17-.2,1-.24,1.15a.52.52,0,0,1-.56.41c-.46,0-.61-.29-.76-.73a9.21,9.21,0,0,1-.43-3,13.49,13.49,0,0,1,.45-3.46c.15-.57.24-.89.75-.89.33,0,.73.2.73.57a8.28,8.28,0,0,1-.24.91,9.87,9.87,0,0,0-.4,2.92c0,.4,0,.59,0,1C58.6,24.18,58.68,24,59,24Zm1.73.34c.24,0,.29.06.62.39.14.15.46.41,1.4.41A8.1,8.1,0,0,0,63.81,25,3.62,3.62,0,0,1,64.3,25a.6.6,0,0,1,.66.64c0,.51-.16.84-2,.84C60.41,26.48,60,25.35,60,25A.66.66,0,0,1,60.7,24.33ZM61,19.87c.12,0,.24,0,.36,0a6.48,6.48,0,0,0,.77.05,5.89,5.89,0,0,0,1-.08c.12,0,.68-.12.76-.12a.59.59,0,0,1,.61.66c0,.5-.35.63-.64.69a9,9,0,0,1-1.79.17c-1.4,0-1.62-.26-1.62-.75A.57.57,0,0,1,61,19.87Z" transform="translate(-0.43 -0.78)"/><path d="M69.16,20c.39,0,.8,0,.8.5s-.41.5-.8.5H67c-.38,0-.8,0-.8-.5s.42-.5.8-.5Zm-.33,4a.74.74,0,0,1,.84.8v1.65a.74.74,0,0,1-.84.8H67.3a.74.74,0,0,1-.84-.8V24.79a.75.75,0,0,1,.84-.8Zm-.12-2.64c.36,0,.8,0,.8.48s-.45.46-.8.46H67.35c-.35,0-.79,0-.79-.47s.44-.47.79-.47Zm.1-2.75c.39,0,.8,0,.8.51s-.41.51-.8.51H67.4c-.4,0-.8,0-.8-.51s.41-.51.8-.51Zm0,4.07c.35,0,.79,0,.79.47s-.44.47-.79.47H67.4c-.36,0-.8,0-.8-.47s.44-.47.8-.47Zm-1.13,2.4a.15.15,0,0,0-.17.14V26a.15.15,0,0,0,.17.14h.73c.12,0,.16-.06.16-.14v-.78a.15.15,0,0,0-.16-.14Zm2.55-4.41c0-.75.57-.75.92-.75-.33-.58-.37-.64-.41-.7a.74.74,0,0,1-.17-.42.56.56,0,0,1,.6-.51c.43,0,.8.79.9,1a1.08,1.08,0,0,1,.13.61H73a11.16,11.16,0,0,0,.59-1.15c.12-.25.22-.42.5-.42s.65.17.65.53a4,4,0,0,1-.43,1.06.66.66,0,0,1,.58.73v2.55c0,.75-.62.75-.87.75h-.18v2.13c0,.13,0,.23.24.23s.24-.07.26-.43,0-.79.46-.79a.53.53,0,0,1,.53.56c0,1.73-.58,1.82-1.35,1.82-.59,0-1.27,0-1.27-.76V24H72.1A4.32,4.32,0,0,1,71,27.12c-.4.41-.61.41-.7.41a.56.56,0,0,1-.55-.56c0-.19,0-.24.49-.76a3.15,3.15,0,0,0,.8-2.26.69.69,0,0,1-.79-.74Zm1.32.42c-.17,0-.21.05-.21.19v1.38c0,.19.1.2.21.2h2c.18,0,.22-.06.22-.2V21.27c0-.19-.1-.19-.22-.19Z" transform="translate(-0.43 -0.78)"/><path d="M79,18.89a.76.76,0,0,1,.74.75v4.91a.76.76,0,0,1-.74.75H77.14a.76.76,0,0,1-.75-.75V19.64a.76.76,0,0,1,.75-.75Zm-.33,2.57V20.25c0-.26,0-.26-.2-.26h-.78c-.17,0-.21,0-.21.26v1.21Zm-1.19,1.12V23.9c0,.26,0,.25.21.25h.78c.18,0,.2,0,.2-.25V22.58Zm6.36,2h-2.3A4.68,4.68,0,0,1,80.41,27c-.47.53-.67.59-.83.59A.65.65,0,0,1,79,27c0-.15,0-.23.37-.6a3.81,3.81,0,0,0,1.12-3V19.51a.75.75,0,0,1,.77-.84h3a.79.79,0,0,1,.62.35,1.16,1.16,0,0,1,.17.74v6.63c0,1.08-1,1.08-1.47,1.08s-1.62,0-1.62-.68c0-.24.16-.63.52-.63.06,0,.39.08.46.09a4.06,4.06,0,0,0,.67.09c.3,0,.3-.12.3-.27ZM81.63,21h2.21v-1c0-.12,0-.25-.24-.25H81.9c-.19,0-.27,0-.27.31Zm2.21,1.12H81.63v1.23h2.21Z" transform="translate(-0.43 -0.78)"/><path d="M88.08,24.29c.25.79.72,1,1.94,1a9.65,9.65,0,0,0,1.78-.2c.15,0,.79-.15.9-.15.34,0,.64.23.64.73s-.44.72-.81.79a14.65,14.65,0,0,1-2.49.23,3.38,3.38,0,0,1-2.84-1,2.31,2.31,0,0,1-.47-1.28.66.66,0,0,1,.73-.65C87.92,23.75,88,24,88.08,24.29Zm.17-4.82a6.79,6.79,0,0,1,.68.1,8.76,8.76,0,0,0,2.32,0c.12,0,.5-.06.61-.06.37,0,.62.25.62.74s-.26.79-2.14.79c-2.74,0-2.74-.4-2.74-.91A.63.63,0,0,1,88.26,19.47Z" transform="translate(-0.43 -0.78)"/><path d="M96.89,24.29c.25.79.72,1,1.94,1a9.65,9.65,0,0,0,1.78-.2c.15,0,.79-.15.9-.15.34,0,.64.23.64.73s-.44.72-.81.79a14.65,14.65,0,0,1-2.49.23,3.38,3.38,0,0,1-2.84-1,2.31,2.31,0,0,1-.47-1.28.66.66,0,0,1,.73-.65C96.72,23.75,96.79,24,96.89,24.29Zm.17-4.82a6.79,6.79,0,0,1,.68.1,8.76,8.76,0,0,0,2.32,0c.12,0,.5-.06.61-.06.37,0,.62.25.62.74s-.26.79-2.14.79c-2.74,0-2.74-.4-2.74-.91A.63.63,0,0,1,97.06,19.47Z" transform="translate(-0.43 -0.78)"/><path d="M105.86,24c.12,0,.53.05.53.45a9,9,0,0,1-.31,1.06c0,.17-.2,1-.24,1.15a.52.52,0,0,1-.56.41c-.46,0-.61-.29-.76-.73a9.21,9.21,0,0,1-.43-3,13.49,13.49,0,0,1,.45-3.46c.15-.57.24-.89.75-.89.33,0,.73.2.73.57a8.28,8.28,0,0,1-.24.91,9.87,9.87,0,0,0-.4,2.92c0,.4,0,.59,0,1C105.49,24.18,105.57,24,105.86,24Zm1.73.34c.24,0,.29.06.62.39.14.15.46.41,1.4.41A8.1,8.1,0,0,0,110.7,25a3.62,3.62,0,0,1,.48-.05.6.6,0,0,1,.66.64c0,.51-.16.84-2,.84-2.51,0-2.88-1.12-2.88-1.46A.66.66,0,0,1,107.59,24.33Zm.33-4.47c.12,0,.24,0,.36,0a6.48,6.48,0,0,0,.77.05,5.89,5.89,0,0,0,1-.08c.12,0,.68-.12.76-.12a.59.59,0,0,1,.61.66c0,.5-.35.63-.64.69a9,9,0,0,1-1.79.17c-1.4,0-1.62-.26-1.62-.75A.57.57,0,0,1,107.92,19.87Z" transform="translate(-0.43 -0.78)"/><path d="M116.06,20c.39,0,.8,0,.8.5s-.41.5-.8.5h-2.2c-.38,0-.8,0-.8-.5s.42-.5.8-.5Zm-.33,4a.74.74,0,0,1,.84.8v1.65a.74.74,0,0,1-.84.8H114.2a.74.74,0,0,1-.84-.8V24.79a.75.75,0,0,1,.84-.8Zm-.12-2.64c.36,0,.8,0,.8.48s-.45.46-.8.46h-1.36c-.35,0-.79,0-.79-.47s.44-.47.79-.47Zm.1-2.75c.39,0,.8,0,.8.51s-.41.51-.8.51H114.3c-.4,0-.8,0-.8-.51s.41-.51.8-.51Zm0,4.07c.35,0,.79,0,.79.47s-.44.47-.79.47H114.3c-.36,0-.8,0-.8-.47s.44-.47.8-.47Zm-1.13,2.4a.15.15,0,0,0-.17.14V26a.15.15,0,0,0,.17.14h.73c.12,0,.16-.06.16-.14v-.78a.15.15,0,0,0-.16-.14Zm2.55-4.41c0-.75.57-.75.92-.75-.33-.58-.37-.64-.41-.7a.74.74,0,0,1-.17-.42.56.56,0,0,1,.6-.51c.43,0,.8.79.9,1a1.08,1.08,0,0,1,.13.61h.83a11.16,11.16,0,0,0,.59-1.15c.12-.25.22-.42.5-.42s.65.17.65.53a4,4,0,0,1-.43,1.06.66.66,0,0,1,.58.73v2.55c0,.75-.62.75-.87.75h-.18v2.13c0,.13,0,.23.24.23s.24-.07.26-.43,0-.79.46-.79a.53.53,0,0,1,.53.56c0,1.73-.58,1.82-1.35,1.82-.59,0-1.27,0-1.27-.76V24H119a4.32,4.32,0,0,1-1.12,3.16c-.4.41-.61.41-.7.41a.56.56,0,0,1-.55-.56c0-.19,0-.24.49-.76a3.15,3.15,0,0,0,.8-2.26.69.69,0,0,1-.79-.74Zm1.32.42c-.17,0-.21.05-.21.19v1.38c0,.19.1.2.21.2h2c.18,0,.22-.06.22-.2V21.27c0-.19-.1-.19-.22-.19Z" transform="translate(-0.43 -0.78)"/><path d="M125.89,18.89a.76.76,0,0,1,.74.75v4.91a.76.76,0,0,1-.74.75H124a.76.76,0,0,1-.75-.75V19.64a.76.76,0,0,1,.75-.75Zm-.33,2.57V20.25c0-.26,0-.26-.2-.26h-.78c-.17,0-.21,0-.21.26v1.21Zm-1.19,1.12V23.9c0,.26,0,.25.21.25h.78c.18,0,.2,0,.2-.25V22.58Zm6.36,2h-2.3A4.68,4.68,0,0,1,127.3,27c-.47.53-.67.59-.83.59a.65.65,0,0,1-.62-.63c0-.15,0-.23.37-.6a3.81,3.81,0,0,0,1.12-3V19.51a.75.75,0,0,1,.77-.84h3a.79.79,0,0,1,.62.35,1.16,1.16,0,0,1,.17.74v6.63c0,1.08-1,1.08-1.47,1.08s-1.62,0-1.62-.68c0-.24.16-.63.52-.63.06,0,.39.08.46.09a4.06,4.06,0,0,0,.67.09c.3,0,.3-.12.3-.27ZM128.52,21h2.21v-1c0-.12,0-.25-.24-.25h-1.7c-.19,0-.27,0-.27.31Zm2.21,1.12h-2.21v1.23h2.21Z" transform="translate(-0.43 -0.78)"/><path d="M135,24.29c.25.79.72,1,1.94,1a9.65,9.65,0,0,0,1.78-.2c.15,0,.79-.15.9-.15.34,0,.64.23.64.73s-.44.72-.81.79a14.65,14.65,0,0,1-2.49.23,3.38,3.38,0,0,1-2.84-1,2.31,2.31,0,0,1-.47-1.28.66.66,0,0,1,.73-.65C134.81,23.75,134.88,24,135,24.29Zm.17-4.82a6.79,6.79,0,0,1,.68.1,8.76,8.76,0,0,0,2.32,0c.12,0,.5-.06.61-.06.37,0,.62.25.62.74s-.26.79-2.14.79c-2.74,0-2.74-.4-2.74-.91A.63.63,0,0,1,135.15,19.47Z" transform="translate(-0.43 -0.78)"/><path d="M143.78,24.29c.25.79.72,1,1.94,1a9.65,9.65,0,0,0,1.78-.2c.15,0,.79-.15.9-.15.34,0,.64.23.64.73s-.44.72-.81.79a14.65,14.65,0,0,1-2.49.23,3.38,3.38,0,0,1-2.84-1,2.31,2.31,0,0,1-.47-1.28.66.66,0,0,1,.73-.65C143.61,23.75,143.69,24,143.78,24.29Zm.17-4.82a6.79,6.79,0,0,1,.68.1,8.76,8.76,0,0,0,2.32,0c.12,0,.5-.06.61-.06.37,0,.62.25.62.74s-.26.79-2.14.79c-2.74,0-2.74-.4-2.74-.91A.63.63,0,0,1,144,19.47Z" transform="translate(-0.43 -0.78)"/><path d="M152.76,24c.12,0,.53.05.53.45a9,9,0,0,1-.31,1.06c0,.17-.2,1-.24,1.15a.52.52,0,0,1-.56.41c-.46,0-.61-.29-.76-.73a9.21,9.21,0,0,1-.43-3,13.49,13.49,0,0,1,.45-3.46c.15-.57.24-.89.75-.89.33,0,.73.2.73.57a8.28,8.28,0,0,1-.24.91,9.87,9.87,0,0,0-.4,2.92c0,.4,0,.59,0,1C152.39,24.18,152.47,24,152.76,24Zm1.73.34c.24,0,.29.06.62.39.14.15.46.41,1.4.41A8.1,8.1,0,0,0,157.6,25a3.62,3.62,0,0,1,.48-.05.6.6,0,0,1,.66.64c0,.51-.16.84-2,.84-2.51,0-2.88-1.12-2.88-1.46A.66.66,0,0,1,154.49,24.33Zm.33-4.47c.12,0,.24,0,.36,0a6.48,6.48,0,0,0,.77.05,5.89,5.89,0,0,0,1-.08c.12,0,.68-.12.76-.12a.59.59,0,0,1,.61.66c0,.5-.35.63-.64.69a9,9,0,0,1-1.79.17c-1.4,0-1.62-.26-1.62-.75A.57.57,0,0,1,154.82,19.87Z" transform="translate(-0.43 -0.78)"/><path d="M162.95,20c.39,0,.8,0,.8.5s-.41.5-.8.5h-2.2c-.38,0-.8,0-.8-.5s.42-.5.8-.5Zm-.33,4a.74.74,0,0,1,.84.8v1.65a.74.74,0,0,1-.84.8h-1.53a.74.74,0,0,1-.84-.8V24.79a.75.75,0,0,1,.84-.8Zm-.12-2.64c.36,0,.8,0,.8.48s-.45.46-.8.46h-1.36c-.35,0-.79,0-.79-.47s.44-.47.79-.47Zm.1-2.75c.39,0,.8,0,.8.51s-.41.51-.8.51h-1.41c-.4,0-.8,0-.8-.51s.41-.51.8-.51Zm0,4.07c.35,0,.79,0,.79.47s-.44.47-.79.47h-1.41c-.36,0-.8,0-.8-.47s.44-.47.8-.47Zm-1.13,2.4a.15.15,0,0,0-.17.14V26a.15.15,0,0,0,.17.14h.73c.12,0,.16-.06.16-.14v-.78a.15.15,0,0,0-.16-.14ZM164,20.66c0-.75.57-.75.92-.75-.33-.58-.37-.64-.41-.7a.74.74,0,0,1-.17-.42.56.56,0,0,1,.6-.51c.43,0,.8.79.9,1a1.08,1.08,0,0,1,.13.61h.83a11.16,11.16,0,0,0,.59-1.15c.12-.25.22-.42.5-.42s.65.17.65.53a4,4,0,0,1-.43,1.06.66.66,0,0,1,.58.73v2.55c0,.75-.62.75-.87.75h-.18v2.13c0,.13,0,.23.24.23s.24-.07.26-.43,0-.79.46-.79a.53.53,0,0,1,.53.56c0,1.73-.58,1.82-1.35,1.82-.59,0-1.27,0-1.27-.76V24h-.64a4.32,4.32,0,0,1-1.12,3.16c-.4.41-.61.41-.7.41a.56.56,0,0,1-.55-.56c0-.19,0-.24.49-.76a3.15,3.15,0,0,0,.8-2.26.69.69,0,0,1-.79-.74Zm1.32.42c-.17,0-.21.05-.21.19v1.38c0,.19.1.2.21.2h2c.18,0,.22-.06.22-.2V21.27c0-.19-.1-.19-.22-.19Z" transform="translate(-0.43 -0.78)"/><path d="M172.79,18.89a.76.76,0,0,1,.74.75v4.91a.76.76,0,0,1-.74.75h-1.86a.76.76,0,0,1-.75-.75V19.64a.76.76,0,0,1,.75-.75Zm-.33,2.57V20.25c0-.26,0-.26-.2-.26h-.78c-.17,0-.21,0-.21.26v1.21Zm-1.19,1.12V23.9c0,.26,0,.25.21.25h.78c.18,0,.2,0,.2-.25V22.58Zm6.36,2h-2.3A4.68,4.68,0,0,1,174.2,27c-.47.53-.67.59-.83.59a.65.65,0,0,1-.62-.63c0-.15,0-.23.37-.6a3.81,3.81,0,0,0,1.12-3V19.51a.75.75,0,0,1,.77-.84h3a.79.79,0,0,1,.62.35,1.16,1.16,0,0,1,.17.74v6.63c0,1.08-1,1.08-1.47,1.08s-1.62,0-1.62-.68c0-.24.16-.63.52-.63.06,0,.39.08.46.09a4.06,4.06,0,0,0,.67.09c.3,0,.3-.12.3-.27ZM175.41,21h2.21v-1c0-.12,0-.25-.24-.25h-1.7c-.19,0-.27,0-.27.31Zm2.21,1.12h-2.21v1.23h2.21Z" transform="translate(-0.43 -0.78)"/><path d="M181.87,24.29c.25.79.72,1,1.94,1a9.65,9.65,0,0,0,1.78-.2c.15,0,.79-.15.9-.15.34,0,.64.23.64.73s-.44.72-.81.79a14.65,14.65,0,0,1-2.49.23,3.38,3.38,0,0,1-2.84-1,2.31,2.31,0,0,1-.47-1.28.66.66,0,0,1,.73-.65C181.7,23.75,181.78,24,181.87,24.29Zm.17-4.82a6.79,6.79,0,0,1,.68.1,8.76,8.76,0,0,0,2.32,0c.12,0,.5-.06.61-.06.37,0,.62.25.62.74s-.26.79-2.14.79c-2.74,0-2.74-.4-2.74-.91A.63.63,0,0,1,182,19.47Z" transform="translate(-0.43 -0.78)"/><path d="M190.67,24.29c.25.79.72,1,1.94,1a9.65,9.65,0,0,0,1.78-.2c.15,0,.79-.15.9-.15.34,0,.64.23.64.73s-.44.72-.81.79a14.65,14.65,0,0,1-2.49.23,3.38,3.38,0,0,1-2.84-1,2.31,2.31,0,0,1-.47-1.28.66.66,0,0,1,.73-.65C190.51,23.75,190.58,24,190.67,24.29Zm.17-4.82a6.79,6.79,0,0,1,.68.1,8.76,8.76,0,0,0,2.32,0c.12,0,.5-.06.61-.06.37,0,.62.25.62.74s-.26.79-2.14.79c-2.74,0-2.74-.4-2.74-.91A.63.63,0,0,1,190.85,19.47Z" transform="translate(-0.43 -0.78)"/><path d="M3,41.5c.12,0,.53.05.53.45A9,9,0,0,1,3.24,43c0,.17-.2,1-.24,1.15a.52.52,0,0,1-.56.41c-.46,0-.61-.29-.76-.73a9.21,9.21,0,0,1-.43-3,13.49,13.49,0,0,1,.45-3.46c.15-.57.24-.89.75-.89.33,0,.73.2.73.57A8.28,8.28,0,0,1,3,38a9.87,9.87,0,0,0-.4,2.92c0,.4,0,.59,0,1C2.65,41.68,2.74,41.5,3,41.5Zm1.73.34c.24,0,.29.06.62.39.14.15.46.41,1.4.41a8.1,8.1,0,0,0,1.09-.09,3.62,3.62,0,0,1,.48-.05.6.6,0,0,1,.66.64c0,.51-.16.84-2,.84C4.47,44,4.1,42.85,4.1,42.51A.66.66,0,0,1,4.75,41.83Zm.33-4.47c.12,0,.24,0,.36,0a6.48,6.48,0,0,0,.77.05,5.89,5.89,0,0,0,1-.08c.12,0,.68-.12.76-.12a.59.59,0,0,1,.61.66c0,.5-.35.63-.64.69a9,9,0,0,1-1.79.17c-1.4,0-1.62-.26-1.62-.75A.57.57,0,0,1,5.08,37.37Z" transform="translate(-0.43 -0.78)"/><path d="M13.22,37.49c.39,0,.8,0,.8.5s-.41.5-.8.5H11c-.38,0-.8,0-.8-.5s.42-.5.8-.5Zm-.33,4a.74.74,0,0,1,.84.8v1.65a.74.74,0,0,1-.84.8H11.36a.74.74,0,0,1-.84-.8V42.29a.75.75,0,0,1,.84-.8Zm-.12-2.64c.36,0,.8,0,.8.48s-.45.46-.8.46H11.41c-.35,0-.79,0-.79-.47s.44-.47.79-.47Zm.1-2.75c.39,0,.8,0,.8.51s-.41.51-.8.51H11.46c-.4,0-.8,0-.8-.51s.41-.51.8-.51Zm0,4.07c.35,0,.79,0,.79.47s-.44.47-.79.47H11.46c-.36,0-.8,0-.8-.47s.44-.47.8-.47Zm-1.13,2.4a.15.15,0,0,0-.17.14v.78a.15.15,0,0,0,.17.14h.73c.12,0,.16-.06.16-.14v-.78a.15.15,0,0,0-.16-.14Zm2.55-4.41c0-.75.57-.75.92-.75-.33-.58-.37-.64-.41-.7a.74.74,0,0,1-.17-.42.56.56,0,0,1,.6-.51c.43,0,.8.79.9,1a1.08,1.08,0,0,1,.13.61h.83a11.16,11.16,0,0,0,.59-1.15c.12-.25.22-.42.5-.42s.65.17.65.53a4,4,0,0,1-.43,1.06.66.66,0,0,1,.58.73v2.55c0,.75-.62.75-.87.75h-.18v2.13c0,.13,0,.23.24.23s.24-.07.26-.43,0-.79.46-.79a.53.53,0,0,1,.53.56c0,1.73-.58,1.82-1.35,1.82-.59,0-1.27,0-1.27-.76V41.46h-.64A4.32,4.32,0,0,1,15,44.62c-.4.41-.61.41-.7.41a.56.56,0,0,1-.55-.56c0-.19,0-.24.49-.76a3.15,3.15,0,0,0,.8-2.26.69.69,0,0,1-.79-.74Zm1.32.42c-.17,0-.21.05-.21.19v1.38c0,.19.1.2.21.2h2c.18,0,.22-.06.22-.2V38.77c0-.19-.1-.19-.22-.19Z" transform="translate(-0.43 -0.78)"/><path d="M23.05,36.39a.76.76,0,0,1,.74.75V42a.76.76,0,0,1-.74.75H21.19a.76.76,0,0,1-.75-.75V37.14a.76.76,0,0,1,.75-.75ZM22.72,39V37.75c0-.26,0-.26-.2-.26h-.78c-.17,0-.21,0-.21.26V39Zm-1.19,1.12V41.4c0,.26,0,.25.21.25h.78c.18,0,.2,0,.2-.25V40.08Zm6.36,2h-2.3a4.68,4.68,0,0,1-1.13,2.46c-.47.53-.67.59-.83.59a.65.65,0,0,1-.62-.63c0-.15,0-.23.37-.6a3.81,3.81,0,0,0,1.12-3V37a.75.75,0,0,1,.77-.84h3a.79.79,0,0,1,.62.35,1.16,1.16,0,0,1,.17.74v6.63C29,45,28,45,27.56,45s-1.62,0-1.62-.68c0-.24.16-.63.52-.63.06,0,.39.08.46.09a4.06,4.06,0,0,0,.67.09c.3,0,.3-.12.3-.27Zm-2.21-3.51h2.21v-1c0-.12,0-.25-.24-.25H26c-.19,0-.27,0-.27.31Zm2.21,1.12H25.68v1.23h2.21Z" transform="translate(-0.43 -0.78)"/><path d="M32.14,41.79c.25.79.72,1,1.94,1a9.65,9.65,0,0,0,1.78-.2c.15,0,.79-.15.9-.15.34,0,.64.23.64.73s-.44.72-.81.79a14.65,14.65,0,0,1-2.49.23,3.38,3.38,0,0,1-2.84-1,2.31,2.31,0,0,1-.47-1.28.66.66,0,0,1,.73-.65C32,41.25,32,41.48,32.14,41.79ZM32.31,37a6.79,6.79,0,0,1,.68.1,8.76,8.76,0,0,0,2.32,0c.12,0,.5-.06.61-.06.37,0,.62.25.62.74s-.26.79-2.14.79c-2.74,0-2.74-.4-2.74-.91A.63.63,0,0,1,32.31,37Z" transform="translate(-0.43 -0.78)"/><path d="M40.94,41.79c.25.79.72,1,1.94,1a9.65,9.65,0,0,0,1.78-.2c.15,0,.79-.15.9-.15.34,0,.64.23.64.73s-.44.72-.81.79a14.65,14.65,0,0,1-2.49.23,3.38,3.38,0,0,1-2.84-1,2.31,2.31,0,0,1-.47-1.28.66.66,0,0,1,.73-.65C40.77,41.25,40.85,41.48,40.94,41.79ZM41.11,37a6.79,6.79,0,0,1,.68.1,8.76,8.76,0,0,0,2.32,0c.12,0,.5-.06.61-.06.37,0,.62.25.62.74s-.26.79-2.14.79c-2.74,0-2.74-.4-2.74-.91A.63.63,0,0,1,41.11,37Z" transform="translate(-0.43 -0.78)"/><path d="M49.92,41.5c.12,0,.53.05.53.45A9,9,0,0,1,50.13,43c0,.17-.2,1-.24,1.15a.52.52,0,0,1-.56.41c-.46,0-.61-.29-.76-.73a9.21,9.21,0,0,1-.43-3,13.49,13.49,0,0,1,.45-3.46c.15-.57.24-.89.75-.89.33,0,.73.2.73.57a8.28,8.28,0,0,1-.24.91,9.87,9.87,0,0,0-.4,2.92c0,.4,0,.59,0,1C49.55,41.68,49.63,41.5,49.92,41.5Zm1.73.34c.24,0,.29.06.62.39.14.15.46.41,1.4.41a8.1,8.1,0,0,0,1.09-.09,3.62,3.62,0,0,1,.48-.05.6.6,0,0,1,.66.64c0,.51-.16.84-2,.84C51.36,44,51,42.85,51,42.51A.66.66,0,0,1,51.65,41.83ZM52,37.37c.12,0,.24,0,.36,0a6.48,6.48,0,0,0,.77.05,5.89,5.89,0,0,0,1-.08c.12,0,.68-.12.76-.12a.59.59,0,0,1,.61.66c0,.5-.35.63-.64.69a9,9,0,0,1-1.79.17c-1.4,0-1.62-.26-1.62-.75A.57.57,0,0,1,52,37.37Z" transform="translate(-0.43 -0.78)"/><path d="M60.11,37.49c.39,0,.8,0,.8.5s-.41.5-.8.5h-2.2c-.38,0-.8,0-.8-.5s.42-.5.8-.5Zm-.33,4a.74.74,0,0,1,.84.8v1.65a.74.74,0,0,1-.84.8H58.25a.74.74,0,0,1-.84-.8V42.29a.75.75,0,0,1,.84-.8Zm-.12-2.64c.36,0,.8,0,.8.48s-.45.46-.8.46H58.3c-.35,0-.79,0-.79-.47s.44-.47.79-.47Zm.1-2.75c.39,0,.8,0,.8.51s-.41.51-.8.51H58.35c-.4,0-.8,0-.8-.51s.41-.51.8-.51Zm0,4.07c.35,0,.79,0,.79.47s-.44.47-.79.47H58.35c-.36,0-.8,0-.8-.47s.44-.47.8-.47Zm-1.13,2.4a.15.15,0,0,0-.17.14v.78a.15.15,0,0,0,.17.14h.73c.12,0,.16-.06.16-.14v-.78a.15.15,0,0,0-.16-.14Zm2.55-4.41c0-.75.57-.75.92-.75-.33-.58-.37-.64-.41-.7a.74.74,0,0,1-.17-.42.56.56,0,0,1,.6-.51c.43,0,.8.79.9,1a1.08,1.08,0,0,1,.13.61H64a11.16,11.16,0,0,0,.59-1.15c.12-.25.22-.42.5-.42s.65.17.65.53a4,4,0,0,1-.43,1.06.66.66,0,0,1,.58.73v2.55c0,.75-.62.75-.87.75h-.18v2.13c0,.13,0,.23.24.23s.24-.07.26-.43,0-.79.46-.79a.53.53,0,0,1,.53.56c0,1.73-.58,1.82-1.35,1.82-.59,0-1.27,0-1.27-.76V41.46h-.64a4.32,4.32,0,0,1-1.12,3.16c-.4.41-.61.41-.7.41a.56.56,0,0,1-.55-.56c0-.19,0-.24.49-.76a3.15,3.15,0,0,0,.8-2.26.69.69,0,0,1-.79-.74Zm1.32.42c-.17,0-.21.05-.21.19v1.38c0,.19.1.2.21.2h2c.18,0,.22-.06.22-.2V38.77c0-.19-.1-.19-.22-.19Z" transform="translate(-0.43 -0.78)"/><path d="M69.95,36.39a.76.76,0,0,1,.74.75V42a.76.76,0,0,1-.74.75H68.09a.76.76,0,0,1-.75-.75V37.14a.76.76,0,0,1,.75-.75ZM69.62,39V37.75c0-.26,0-.26-.2-.26h-.78c-.17,0-.21,0-.21.26V39Zm-1.19,1.12V41.4c0,.26,0,.25.21.25h.78c.18,0,.2,0,.2-.25V40.08Zm6.36,2h-2.3a4.68,4.68,0,0,1-1.13,2.46c-.47.53-.67.59-.83.59a.65.65,0,0,1-.62-.63c0-.15,0-.23.37-.6a3.81,3.81,0,0,0,1.12-3V37a.75.75,0,0,1,.77-.84h3a.79.79,0,0,1,.62.35,1.16,1.16,0,0,1,.17.74v6.63c0,1.08-1,1.08-1.47,1.08s-1.62,0-1.62-.68c0-.24.16-.63.52-.63.06,0,.39.08.46.09a4.06,4.06,0,0,0,.67.09c.3,0,.3-.12.3-.27Zm-2.21-3.51h2.21v-1c0-.12,0-.25-.24-.25h-1.7c-.19,0-.27,0-.27.31Zm2.21,1.12H72.58v1.23h2.21Z" transform="translate(-0.43 -0.78)"/><path d="M79,41.79c.25.79.72,1,1.94,1a9.65,9.65,0,0,0,1.78-.2c.15,0,.79-.15.9-.15.34,0,.64.23.64.73s-.44.72-.81.79a14.65,14.65,0,0,1-2.49.23,3.38,3.38,0,0,1-2.84-1,2.31,2.31,0,0,1-.47-1.28.66.66,0,0,1,.73-.65C78.87,41.25,78.94,41.48,79,41.79ZM79.21,37a6.79,6.79,0,0,1,.68.1,8.76,8.76,0,0,0,2.32,0c.12,0,.5-.06.61-.06.37,0,.62.25.62.74s-.26.79-2.14.79c-2.74,0-2.74-.4-2.74-.91A.63.63,0,0,1,79.21,37Z" transform="translate(-0.43 -0.78)"/><path d="M87.83,41.79c.25.79.72,1,1.94,1a9.65,9.65,0,0,0,1.78-.2c.15,0,.79-.15.9-.15.34,0,.64.23.64.73s-.44.72-.81.79a14.65,14.65,0,0,1-2.49.23,3.38,3.38,0,0,1-2.84-1,2.31,2.31,0,0,1-.47-1.28.66.66,0,0,1,.73-.65C87.67,41.25,87.74,41.48,87.83,41.79ZM88,37a6.79,6.79,0,0,1,.68.1,8.76,8.76,0,0,0,2.32,0c.12,0,.5-.06.61-.06.37,0,.62.25.62.74s-.26.79-2.14.79c-2.74,0-2.74-.4-2.74-.91A.63.63,0,0,1,88,37Z" transform="translate(-0.43 -0.78)"/><path d="M96.81,41.5c.12,0,.53.05.53.45A9,9,0,0,1,97,43c0,.17-.2,1-.24,1.15a.52.52,0,0,1-.56.41c-.46,0-.61-.29-.76-.73a9.21,9.21,0,0,1-.43-3,13.49,13.49,0,0,1,.45-3.46c.15-.57.24-.89.75-.89.33,0,.73.2.73.57a8.28,8.28,0,0,1-.24.91,9.87,9.87,0,0,0-.4,2.92c0,.4,0,.59,0,1C96.44,41.68,96.52,41.5,96.81,41.5Zm1.73.34c.24,0,.29.06.62.39.14.15.46.41,1.4.41a8.1,8.1,0,0,0,1.09-.09,3.62,3.62,0,0,1,.48-.05.6.6,0,0,1,.66.64c0,.51-.16.84-2,.84-2.51,0-2.88-1.12-2.88-1.46A.66.66,0,0,1,98.54,41.83Zm.33-4.47c.12,0,.24,0,.36,0a6.48,6.48,0,0,0,.77.05,5.89,5.89,0,0,0,1-.08c.12,0,.68-.12.76-.12a.59.59,0,0,1,.61.66c0,.5-.35.63-.64.69a9,9,0,0,1-1.79.17c-1.4,0-1.62-.26-1.62-.75A.57.57,0,0,1,98.87,37.37Z" transform="translate(-0.43 -0.78)"/><path d="M107,37.49c.39,0,.8,0,.8.5s-.41.5-.8.5h-2.2c-.38,0-.8,0-.8-.5s.42-.5.8-.5Zm-.33,4a.74.74,0,0,1,.84.8v1.65a.74.74,0,0,1-.84.8h-1.53a.74.74,0,0,1-.84-.8V42.29a.75.75,0,0,1,.84-.8Zm-.12-2.64c.36,0,.8,0,.8.48s-.45.46-.8.46h-1.36c-.35,0-.79,0-.79-.47s.44-.47.79-.47Zm.1-2.75c.39,0,.8,0,.8.51s-.41.51-.8.51h-1.41c-.4,0-.8,0-.8-.51s.41-.51.8-.51Zm0,4.07c.35,0,.79,0,.79.47s-.44.47-.79.47h-1.41c-.36,0-.8,0-.8-.47s.44-.47.8-.47Zm-1.13,2.4a.15.15,0,0,0-.17.14v.78a.15.15,0,0,0,.17.14h.73c.12,0,.16-.06.16-.14v-.78a.15.15,0,0,0-.16-.14Zm2.55-4.41c0-.75.57-.75.92-.75-.33-.58-.37-.64-.41-.7a.74.74,0,0,1-.17-.42.56.56,0,0,1,.6-.51c.43,0,.8.79.9,1a1.08,1.08,0,0,1,.13.61h.83a11.16,11.16,0,0,0,.59-1.15c.12-.25.22-.42.5-.42s.65.17.65.53a4,4,0,0,1-.43,1.06.66.66,0,0,1,.58.73v2.55c0,.75-.62.75-.87.75h-.18v2.13c0,.13,0,.23.24.23s.24-.07.26-.43,0-.79.46-.79a.53.53,0,0,1,.53.56c0,1.73-.58,1.82-1.35,1.82-.59,0-1.27,0-1.27-.76V41.46h-.64a4.32,4.32,0,0,1-1.12,3.16c-.4.41-.61.41-.7.41a.56.56,0,0,1-.55-.56c0-.19,0-.24.49-.76a3.15,3.15,0,0,0,.8-2.26.69.69,0,0,1-.79-.74Zm1.32.42c-.17,0-.21.05-.21.19v1.38c0,.19.1.2.21.2h2c.18,0,.22-.06.22-.2V38.77c0-.19-.1-.19-.22-.19Z" transform="translate(-0.43 -0.78)"/><path d="M116.84,36.39a.76.76,0,0,1,.74.75V42a.76.76,0,0,1-.74.75H115a.76.76,0,0,1-.75-.75V37.14a.76.76,0,0,1,.75-.75ZM116.51,39V37.75c0-.26,0-.26-.2-.26h-.78c-.17,0-.21,0-.21.26V39Zm-1.19,1.12V41.4c0,.26,0,.25.21.25h.78c.18,0,.2,0,.2-.25V40.08Zm6.36,2h-2.3a4.68,4.68,0,0,1-1.13,2.46c-.47.53-.67.59-.83.59a.65.65,0,0,1-.62-.63c0-.15,0-.23.37-.6a3.81,3.81,0,0,0,1.12-3V37a.75.75,0,0,1,.77-.84h3a.79.79,0,0,1,.62.35,1.16,1.16,0,0,1,.17.74v6.63c0,1.08-1,1.08-1.47,1.08s-1.62,0-1.62-.68c0-.24.16-.63.52-.63.06,0,.39.08.46.09a4.06,4.06,0,0,0,.67.09c.3,0,.3-.12.3-.27Zm-2.21-3.51h2.21v-1c0-.12,0-.25-.24-.25h-1.7c-.19,0-.27,0-.27.31Zm2.21,1.12h-2.21v1.23h2.21Z" transform="translate(-0.43 -0.78)"/><path d="M125.92,41.79c.25.79.72,1,1.94,1a9.65,9.65,0,0,0,1.78-.2c.15,0,.79-.15.9-.15.34,0,.64.23.64.73s-.44.72-.81.79a14.65,14.65,0,0,1-2.49.23,3.38,3.38,0,0,1-2.84-1,2.31,2.31,0,0,1-.47-1.28.66.66,0,0,1,.73-.65C125.76,41.25,125.83,41.48,125.92,41.79ZM126.1,37a6.79,6.79,0,0,1,.68.1,8.76,8.76,0,0,0,2.32,0c.12,0,.5-.06.61-.06.37,0,.62.25.62.74s-.26.79-2.14.79c-2.74,0-2.74-.4-2.74-.91A.63.63,0,0,1,126.1,37Z" transform="translate(-0.43 -0.78)"/><path d="M134.73,41.79c.25.79.72,1,1.94,1a9.65,9.65,0,0,0,1.78-.2c.15,0,.79-.15.9-.15.34,0,.64.23.64.73s-.44.72-.81.79a14.65,14.65,0,0,1-2.49.23,3.38,3.38,0,0,1-2.84-1,2.31,2.31,0,0,1-.47-1.28.66.66,0,0,1,.73-.65C134.56,41.25,134.63,41.48,134.73,41.79ZM134.9,37a6.79,6.79,0,0,1,.68.1,8.76,8.76,0,0,0,2.32,0c.12,0,.5-.06.61-.06.37,0,.62.25.62.74s-.26.79-2.14.79c-2.74,0-2.74-.4-2.74-.91A.63.63,0,0,1,134.9,37Z" transform="translate(-0.43 -0.78)"/><path d="M143.7,41.5c.12,0,.53.05.53.45a9,9,0,0,1-.31,1.06c0,.17-.2,1-.24,1.15a.52.52,0,0,1-.56.41c-.46,0-.61-.29-.76-.73a9.21,9.21,0,0,1-.43-3,13.49,13.49,0,0,1,.45-3.46c.15-.57.24-.89.75-.89.33,0,.73.2.73.57a8.28,8.28,0,0,1-.24.91,9.87,9.87,0,0,0-.4,2.92c0,.4,0,.59,0,1C143.33,41.68,143.41,41.5,143.7,41.5Zm1.73.34c.24,0,.29.06.62.39.14.15.46.41,1.4.41a8.1,8.1,0,0,0,1.09-.09,3.62,3.62,0,0,1,.48-.05.6.6,0,0,1,.66.64c0,.51-.16.84-2,.84-2.51,0-2.88-1.12-2.88-1.46A.66.66,0,0,1,145.43,41.83Zm.33-4.47c.12,0,.24,0,.36,0a6.48,6.48,0,0,0,.77.05,5.89,5.89,0,0,0,1-.08c.12,0,.68-.12.76-.12a.59.59,0,0,1,.61.66c0,.5-.35.63-.64.69a9,9,0,0,1-1.79.17c-1.4,0-1.62-.26-1.62-.75A.57.57,0,0,1,145.76,37.37Z" transform="translate(-0.43 -0.78)"/><path d="M153.9,37.49c.39,0,.8,0,.8.5s-.41.5-.8.5h-2.2c-.38,0-.8,0-.8-.5s.42-.5.8-.5Zm-.33,4a.74.74,0,0,1,.84.8v1.65a.74.74,0,0,1-.84.8H152a.74.74,0,0,1-.84-.8V42.29a.75.75,0,0,1,.84-.8Zm-.12-2.64c.36,0,.8,0,.8.48s-.45.46-.8.46h-1.36c-.35,0-.79,0-.79-.47s.44-.47.79-.47Zm.1-2.75c.39,0,.8,0,.8.51s-.41.51-.8.51h-1.41c-.4,0-.8,0-.8-.51s.41-.51.8-.51Zm0,4.07c.35,0,.79,0,.79.47s-.44.47-.79.47h-1.41c-.36,0-.8,0-.8-.47s.44-.47.8-.47Zm-1.13,2.4a.15.15,0,0,0-.17.14v.78a.15.15,0,0,0,.17.14h.73c.12,0,.16-.06.16-.14v-.78a.15.15,0,0,0-.16-.14ZM155,38.16c0-.75.57-.75.92-.75-.33-.58-.37-.64-.41-.7a.74.74,0,0,1-.17-.42.56.56,0,0,1,.6-.51c.43,0,.8.79.9,1a1.08,1.08,0,0,1,.13.61h.83a11.16,11.16,0,0,0,.59-1.15c.12-.25.22-.42.5-.42s.65.17.65.53a4,4,0,0,1-.43,1.06.66.66,0,0,1,.58.73v2.55c0,.75-.62.75-.87.75h-.18v2.13c0,.13,0,.23.24.23s.24-.07.26-.43,0-.79.46-.79a.53.53,0,0,1,.53.56c0,1.73-.58,1.82-1.35,1.82-.59,0-1.27,0-1.27-.76V41.46h-.64a4.32,4.32,0,0,1-1.12,3.16c-.4.41-.61.41-.7.41a.56.56,0,0,1-.55-.56c0-.19,0-.24.49-.76a3.15,3.15,0,0,0,.8-2.26.69.69,0,0,1-.79-.74Zm1.32.42c-.17,0-.21.05-.21.19v1.38c0,.19.1.2.21.2h2c.18,0,.22-.06.22-.2V38.77c0-.19-.1-.19-.22-.19Z" transform="translate(-0.43 -0.78)"/><path d="M163.73,36.39a.76.76,0,0,1,.74.75V42a.76.76,0,0,1-.74.75h-1.86a.76.76,0,0,1-.75-.75V37.14a.76.76,0,0,1,.75-.75ZM163.4,39V37.75c0-.26,0-.26-.2-.26h-.78c-.17,0-.21,0-.21.26V39Zm-1.19,1.12V41.4c0,.26,0,.25.21.25h.78c.18,0,.2,0,.2-.25V40.08Zm6.36,2h-2.3a4.68,4.68,0,0,1-1.13,2.46c-.47.53-.67.59-.83.59a.65.65,0,0,1-.62-.63c0-.15,0-.23.37-.6a3.81,3.81,0,0,0,1.12-3V37a.75.75,0,0,1,.77-.84h3a.79.79,0,0,1,.62.35,1.16,1.16,0,0,1,.17.74v6.63c0,1.08-1,1.08-1.47,1.08s-1.62,0-1.62-.68c0-.24.16-.63.52-.63.06,0,.39.08.46.09a4.06,4.06,0,0,0,.67.09c.3,0,.3-.12.3-.27Zm-2.21-3.51h2.21v-1c0-.12,0-.25-.24-.25h-1.7c-.19,0-.27,0-.27.31Zm2.21,1.12h-2.21v1.23h2.21Z" transform="translate(-0.43 -0.78)"/><path d="M172.82,41.79c.25.79.72,1,1.94,1a9.65,9.65,0,0,0,1.78-.2c.15,0,.79-.15.9-.15.34,0,.64.23.64.73s-.44.72-.81.79a14.65,14.65,0,0,1-2.49.23,3.38,3.38,0,0,1-2.84-1,2.31,2.31,0,0,1-.47-1.28.66.66,0,0,1,.73-.65C172.65,41.25,172.72,41.48,172.82,41.79ZM173,37a6.79,6.79,0,0,1,.68.1,8.76,8.76,0,0,0,2.32,0c.12,0,.5-.06.61-.06.37,0,.62.25.62.74s-.26.79-2.14.79c-2.74,0-2.74-.4-2.74-.91A.63.63,0,0,1,173,37Z" transform="translate(-0.43 -0.78)"/><path d="M181.62,41.79c.25.79.72,1,1.94,1a9.65,9.65,0,0,0,1.78-.2c.15,0,.79-.15.9-.15.34,0,.64.23.64.73s-.44.72-.81.79a14.65,14.65,0,0,1-2.49.23,3.38,3.38,0,0,1-2.84-1,2.31,2.31,0,0,1-.47-1.28.66.66,0,0,1,.73-.65C181.45,41.25,181.53,41.48,181.62,41.79Zm.17-4.82a6.79,6.79,0,0,1,.68.1,8.76,8.76,0,0,0,2.32,0c.12,0,.5-.06.61-.06.37,0,.62.25.62.74s-.26.79-2.14.79c-2.74,0-2.74-.4-2.74-.91A.63.63,0,0,1,181.79,37Z" transform="translate(-0.43 -0.78)"/><path d="M190.6,41.5c.12,0,.53.05.53.45a9,9,0,0,1-.31,1.06c0,.17-.2,1-.24,1.15a.52.52,0,0,1-.56.41c-.46,0-.61-.29-.76-.73a9.21,9.21,0,0,1-.43-3,13.49,13.49,0,0,1,.45-3.46c.15-.57.24-.89.75-.89.33,0,.73.2.73.57a8.28,8.28,0,0,1-.24.91,9.87,9.87,0,0,0-.4,2.92c0,.4,0,.59,0,1C190.23,41.68,190.31,41.5,190.6,41.5Zm1.73.34c.24,0,.29.06.62.39.14.15.46.41,1.4.41a8.1,8.1,0,0,0,1.09-.09,3.62,3.62,0,0,1,.48-.05.6.6,0,0,1,.66.64c0,.51-.16.84-2,.84-2.51,0-2.88-1.12-2.88-1.46A.66.66,0,0,1,192.33,41.83Zm.33-4.47c.12,0,.24,0,.36,0a6.48,6.48,0,0,0,.77.05,5.89,5.89,0,0,0,1-.08c.12,0,.68-.12.76-.12a.59.59,0,0,1,.61.66c0,.5-.35.63-.64.69a9,9,0,0,1-1.79.17c-1.4,0-1.62-.26-1.62-.75A.57.57,0,0,1,192.66,37.37Z" transform="translate(-0.43 -0.78)"/><path d="M3.43,55c.39,0,.8,0,.8.5s-.41.5-.8.5H1.23c-.38,0-.8,0-.8-.5s.42-.5.8-.5ZM3.1,59a.74.74,0,0,1,.84.8v1.65a.74.74,0,0,1-.84.8H1.57a.74.74,0,0,1-.84-.8V59.79a.75.75,0,0,1,.84-.8ZM3,56.35c.36,0,.8,0,.8.48s-.45.46-.8.46H1.62c-.35,0-.79,0-.79-.47s.44-.47.79-.47Zm.1-2.75c.39,0,.8,0,.8.51s-.41.51-.8.51H1.67c-.4,0-.8,0-.8-.51s.41-.51.8-.51Zm0,4.07c.35,0,.79,0,.79.47s-.44.47-.79.47H1.67c-.36,0-.8,0-.8-.47s.44-.47.8-.47Zm-1.13,2.4a.15.15,0,0,0-.17.14V61a.15.15,0,0,0,.17.14h.73c.12,0,.16-.06.16-.14v-.78a.15.15,0,0,0-.16-.14ZM4.5,55.66c0-.75.57-.75.92-.75-.33-.58-.37-.64-.41-.7a.74.74,0,0,1-.17-.42.56.56,0,0,1,.6-.51c.43,0,.8.79.9,1a1.08,1.08,0,0,1,.13.61H7.3a11.16,11.16,0,0,0,.59-1.15c.12-.25.22-.42.5-.42s.65.17.65.53a4,4,0,0,1-.43,1.06.66.66,0,0,1,.58.73v2.55c0,.75-.62.75-.87.75H8.14v2.13c0,.13,0,.23.24.23s.24-.07.26-.43,0-.79.46-.79a.53.53,0,0,1,.53.56c0,1.73-.58,1.82-1.35,1.82-.59,0-1.27,0-1.27-.76V59H6.37a4.32,4.32,0,0,1-1.12,3.16c-.4.41-.61.41-.7.41A.56.56,0,0,1,4,62c0-.19,0-.24.49-.76a3.15,3.15,0,0,0,.8-2.26.69.69,0,0,1-.79-.74Zm1.32.42c-.17,0-.21.05-.21.19v1.38c0,.19.1.2.21.2h2c.18,0,.22-.06.22-.2V56.27c0-.19-.1-.19-.22-.19Z" transform="translate(-0.43 -0.78)"/><path d="M13.27,53.89a.76.76,0,0,1,.74.75v4.91a.76.76,0,0,1-.74.75H11.41a.76.76,0,0,1-.75-.75V54.64a.76.76,0,0,1,.75-.75Zm-.33,2.57V55.25c0-.26,0-.26-.2-.26H12c-.17,0-.21,0-.21.26v1.21Zm-1.19,1.12V58.9c0,.26,0,.25.21.25h.78c.18,0,.2,0,.2-.25V57.58Zm6.36,2H15.8A4.68,4.68,0,0,1,14.68,62c-.47.53-.67.59-.83.59a.65.65,0,0,1-.62-.63c0-.15,0-.23.37-.6a3.81,3.81,0,0,0,1.12-3V54.51a.75.75,0,0,1,.77-.84h3a.79.79,0,0,1,.62.35,1.16,1.16,0,0,1,.17.74v6.63c0,1.08-1,1.08-1.47,1.08s-1.62,0-1.62-.68c0-.24.16-.63.52-.63.06,0,.39.08.46.09a4.06,4.06,0,0,0,.67.09c.3,0,.3-.12.3-.27ZM15.89,56h2.21v-1c0-.12,0-.25-.24-.25h-1.7c-.19,0-.27,0-.27.31Zm2.21,1.12H15.89v1.23h2.21Z" transform="translate(-0.43 -0.78)"/><path d="M22.35,59.29c.25.79.72,1,1.94,1a9.65,9.65,0,0,0,1.78-.2c.15,0,.79-.15.9-.15.34,0,.64.23.64.73s-.44.72-.81.79a14.65,14.65,0,0,1-2.49.23,3.38,3.38,0,0,1-2.84-1A2.31,2.31,0,0,1,21,59.4a.66.66,0,0,1,.73-.65C22.18,58.75,22.26,59,22.35,59.29Zm.17-4.82a6.79,6.79,0,0,1,.68.1,8.76,8.76,0,0,0,2.32,0c.12,0,.5-.06.61-.06.37,0,.62.25.62.74s-.26.79-2.14.79c-2.74,0-2.74-.4-2.74-.91A.63.63,0,0,1,22.52,54.47Z" transform="translate(-0.43 -0.78)"/><path d="M31.15,59.29c.25.79.72,1,1.94,1a9.65,9.65,0,0,0,1.78-.2c.15,0,.79-.15.9-.15.34,0,.64.23.64.73s-.44.72-.81.79a14.65,14.65,0,0,1-2.49.23,3.38,3.38,0,0,1-2.84-1,2.31,2.31,0,0,1-.47-1.28.66.66,0,0,1,.73-.65C31,58.75,31.06,59,31.15,59.29Zm.17-4.82a6.79,6.79,0,0,1,.68.1,8.76,8.76,0,0,0,2.32,0c.12,0,.5-.06.61-.06.37,0,.62.25.62.74s-.26.79-2.14.79c-2.74,0-2.74-.4-2.74-.91A.63.63,0,0,1,31.33,54.47Z" transform="translate(-0.43 -0.78)"/><path d="M40.13,59c.12,0,.53.05.53.45a9,9,0,0,1-.31,1.06c0,.17-.2,1-.24,1.15a.52.52,0,0,1-.56.41c-.46,0-.61-.29-.76-.73a9.21,9.21,0,0,1-.43-3,13.49,13.49,0,0,1,.45-3.46c.15-.57.24-.89.75-.89.33,0,.73.2.73.57a8.28,8.28,0,0,1-.24.91,9.87,9.87,0,0,0-.4,2.92c0,.4,0,.59,0,1C39.76,59.18,39.84,59,40.13,59Zm1.73.34c.24,0,.29.06.62.39.14.15.46.41,1.4.41A8.1,8.1,0,0,0,45,60a3.62,3.62,0,0,1,.48-.05.6.6,0,0,1,.66.64c0,.51-.16.84-2,.84-2.51,0-2.88-1.12-2.88-1.46A.66.66,0,0,1,41.86,59.33Zm.33-4.47c.12,0,.24,0,.36,0a6.48,6.48,0,0,0,.77.05,5.89,5.89,0,0,0,1-.08c.12,0,.68-.12.76-.12a.59.59,0,0,1,.61.66c0,.5-.35.63-.64.69a9,9,0,0,1-1.79.17c-1.4,0-1.62-.26-1.62-.75A.57.57,0,0,1,42.19,54.87Z" transform="translate(-0.43 -0.78)"/><path d="M50.32,55c.39,0,.8,0,.8.5s-.41.5-.8.5h-2.2c-.38,0-.8,0-.8-.5s.42-.5.8-.5ZM50,59a.74.74,0,0,1,.84.8v1.65a.74.74,0,0,1-.84.8H48.46a.74.74,0,0,1-.84-.8V59.79a.75.75,0,0,1,.84-.8Zm-.12-2.64c.36,0,.8,0,.8.48s-.45.46-.8.46H48.51c-.35,0-.79,0-.79-.47s.44-.47.79-.47ZM50,53.6c.39,0,.8,0,.8.51s-.41.51-.8.51H48.56c-.4,0-.8,0-.8-.51s.41-.51.8-.51Zm0,4.07c.35,0,.79,0,.79.47s-.44.47-.79.47H48.56c-.36,0-.8,0-.8-.47s.44-.47.8-.47Zm-1.13,2.4a.15.15,0,0,0-.17.14V61a.15.15,0,0,0,.17.14h.73c.12,0,.16-.06.16-.14v-.78a.15.15,0,0,0-.16-.14Zm2.55-4.41c0-.75.57-.75.92-.75-.33-.58-.37-.64-.41-.7a.74.74,0,0,1-.17-.42.56.56,0,0,1,.6-.51c.43,0,.8.79.9,1a1.08,1.08,0,0,1,.13.61h.83a11.16,11.16,0,0,0,.59-1.15c.12-.25.22-.42.5-.42s.65.17.65.53a4,4,0,0,1-.43,1.06.66.66,0,0,1,.58.73v2.55c0,.75-.62.75-.87.75H55v2.13c0,.13,0,.23.24.23s.24-.07.26-.43,0-.79.46-.79a.53.53,0,0,1,.53.56c0,1.73-.58,1.82-1.35,1.82-.59,0-1.27,0-1.27-.76V59h-.64a4.32,4.32,0,0,1-1.12,3.16c-.4.41-.61.41-.7.41a.56.56,0,0,1-.55-.56c0-.19,0-.24.49-.76a3.15,3.15,0,0,0,.8-2.26.69.69,0,0,1-.79-.74Zm1.32.42c-.17,0-.21.05-.21.19v1.38c0,.19.1.2.21.2h2c.18,0,.22-.06.22-.2V56.27c0-.19-.1-.19-.22-.19Z" transform="translate(-0.43 -0.78)"/><path d="M60.16,53.89a.76.76,0,0,1,.74.75v4.91a.76.76,0,0,1-.74.75H58.3a.76.76,0,0,1-.75-.75V54.64a.76.76,0,0,1,.75-.75Zm-.33,2.57V55.25c0-.26,0-.26-.2-.26h-.78c-.17,0-.21,0-.21.26v1.21Zm-1.19,1.12V58.9c0,.26,0,.25.21.25h.78c.18,0,.2,0,.2-.25V57.58Zm6.36,2H62.7A4.68,4.68,0,0,1,61.57,62c-.47.53-.67.59-.83.59a.65.65,0,0,1-.62-.63c0-.15,0-.23.37-.6a3.81,3.81,0,0,0,1.12-3V54.51a.75.75,0,0,1,.77-.84h3A.79.79,0,0,1,66,54a1.16,1.16,0,0,1,.17.74v6.63c0,1.08-1,1.08-1.47,1.08s-1.62,0-1.62-.68c0-.24.16-.63.52-.63.06,0,.39.08.46.09a4.06,4.06,0,0,0,.67.09c.3,0,.3-.12.3-.27ZM62.79,56H65v-1c0-.12,0-.25-.24-.25h-1.7c-.19,0-.27,0-.27.31ZM65,57.15H62.79v1.23H65Z" transform="translate(-0.43 -0.78)"/></g></g></g></svg>