<svg xmlns="http://www.w3.org/2000/svg" xmlns:xlink="http://www.w3.org/1999/xlink" viewBox="0 0 92.04 24.83"><defs><clipPath id="b55cae79-fcbe-415b-9cff-10a2ed5cf714" transform="translate(-0.46 -0.7)"><rect width="93" height="26" fill="none"/></clipPath></defs><title>point1</title><g id="56d6c177-84e1-4e03-92bc-a103c8b50e1e" data-name="レイヤー 2"><g id="5507a2ba-c7b2-45d6-a66e-578ee65babc1" data-name="レイヤー 2"><g clip-path="url(#b55cae79-fcbe-415b-9cff-10a2ed5cf714)"><path d="M80,25.52C96.67,25.52,96.67.7,80,.7H13C-3.71.7-3.71,25.52,13,25.52Z" transform="translate(-0.46 -0.7)" fill="#f7931e"/><path d="M21.7,19.21a1.16,1.16,0,0,1-1.25,1.11,1.1,1.1,0,0,1-1.19-1.08V8.84a1.85,1.85,0,0,1,2.09-2.07H25.1a3.82,3.82,0,0,1,4,4,3.91,3.91,0,0,1-4,4.22H21.7Zm2.68-6.43c1.25,0,2.22-.56,2.22-1.9A1.84,1.84,0,0,0,24.52,9h-2c-.6,0-.84.07-.84.66v3.12Z" transform="translate(-0.46 -0.7)" fill="#fff"/><path d="M39.85,15.15c0,2.19-1,5.17-4.78,5.17s-4.8-3-4.8-5.17,1-5.18,4.8-5.18S39.85,13,39.85,15.15Zm-7.25,0c0,.84.19,2.95,2.47,2.95s2.46-2.11,2.46-2.95-.21-3-2.46-3S32.6,14.3,32.6,15.15Z" transform="translate(-0.46 -0.7)" fill="#fff"/><path d="M44.49,7.82a1.42,1.42,0,1,1-1.42-1.35A1.39,1.39,0,0,1,44.49,7.82Zm-.29,11.41a1.12,1.12,0,0,1-2.23,0V11.08a1.12,1.12,0,0,1,2.23,0Z" transform="translate(-0.46 -0.7)" fill="#fff"/><path d="M55.48,19.21a1.12,1.12,0,0,1-2.23,0V13.95a1.64,1.64,0,0,0-1.77-1.83A2.38,2.38,0,0,0,49,14.25v5a1.12,1.12,0,0,1-2.25,0V12.81c0-.3-.14-1.58-.14-1.85a1,1,0,0,1,1.12-1A1.45,1.45,0,0,1,49.08,11a3.77,3.77,0,0,1,3-1.08c2,0,3.41,1.24,3.41,3Z" transform="translate(-0.46 -0.7)" fill="#fff"/><path d="M57.84,12.27a1,1,0,0,1,0-2h.83V8.43a1.06,1.06,0,0,1,1.12-1,1,1,0,0,1,1.07,1v1.85h2.07a1,1,0,0,1,0,2H60.86v5.18c0,.2.05.52.35.52s.44-.18.69-.69c.37-.75.7-.91,1.07-.91a1.1,1.1,0,0,1,1.11,1.09,3.26,3.26,0,0,1-3,2.85c-2.3,0-2.37-2.06-2.37-2.79V12.27Z" transform="translate(-0.46 -0.7)" fill="#fff"/><path d="M67.34,11.08a1.14,1.14,0,0,1-.72.22,1.06,1.06,0,0,1-1.14-1.09,1.11,1.11,0,0,1,.4-.92l2.93-2.47a1.63,1.63,0,0,1,1.05-.34c1,0,1.35.64,1.35,1.16V19.14A1.12,1.12,0,0,1,70,20.32a1.14,1.14,0,0,1-1.21-1.21V9.85Z" transform="translate(-0.46 -0.7)" fill="#fff"/></g></g></g></svg>