<svg xmlns="http://www.w3.org/2000/svg" xmlns:xlink="http://www.w3.org/1999/xlink" viewBox="0 0 92.04 24.83"><defs><clipPath id="d3d311b3-8866-4a91-a695-b5fad3afa954" transform="translate(-0.46 -0.57)"><rect width="93" height="26" fill="none"/></clipPath></defs><title>point3</title><g id="97b605be-86e2-4680-bc6f-4b3d184e7aad" data-name="レイヤー 2"><g id="66c5cba6-4647-46e6-9f68-c3d0843e1d79" data-name="レイヤー 2"><g clip-path="url(#d3d311b3-8866-4a91-a695-b5fad3afa954)"><path d="M80,25.4C96.67,25.4,96.67.57,80,.57H13C-3.71.57-3.71,25.4,13,25.4Z" transform="translate(-0.46 -0.57)" fill="#f7931e"/><path d="M21.43,19.09a1.16,1.16,0,0,1-1.25,1.11A1.1,1.1,0,0,1,19,19.12V8.71a1.85,1.85,0,0,1,2.09-2.07h3.75a3.82,3.82,0,0,1,4,4,3.91,3.91,0,0,1-4,4.22h-3.4Zm2.68-6.43c1.25,0,2.22-.56,2.22-1.9a1.84,1.84,0,0,0-2.08-1.87h-2c-.6,0-.84.07-.84.66v3.12Z" transform="translate(-0.46 -0.57)" fill="#fff"/><path d="M39.58,15c0,2.19-1,5.17-4.78,5.17S30,17.22,30,15s1-5.18,4.8-5.18S39.58,12.83,39.58,15Zm-7.25,0c0,.84.19,2.95,2.47,2.95s2.46-2.11,2.46-2.95-.21-3-2.46-3S32.34,14.17,32.34,15Z" transform="translate(-0.46 -0.57)" fill="#fff"/><path d="M44.22,7.7a1.42,1.42,0,1,1-1.42-1.35A1.39,1.39,0,0,1,44.22,7.7ZM43.93,19.1a1.12,1.12,0,0,1-2.23,0V11a1.12,1.12,0,0,1,2.23,0Z" transform="translate(-0.46 -0.57)" fill="#fff"/><path d="M55.21,19.09a1.12,1.12,0,0,1-2.23,0V13.82A1.64,1.64,0,0,0,51.2,12a2.38,2.38,0,0,0-2.44,2.13v5a1.12,1.12,0,0,1-2.25,0V12.68c0-.3-.14-1.58-.14-1.85a1,1,0,0,1,1.12-1,1.45,1.45,0,0,1,1.32,1.08,3.77,3.77,0,0,1,3-1.08c2,0,3.41,1.24,3.41,3Z" transform="translate(-0.46 -0.57)" fill="#fff"/><path d="M57.57,12.14a1,1,0,0,1,0-2h.83V8.3a1.06,1.06,0,0,1,1.12-1,1,1,0,0,1,1.07,1v1.85h2.07a1,1,0,0,1,0,2H60.59v5.18c0,.2.05.52.35.52s.44-.18.69-.69c.37-.75.7-.91,1.07-.91a1.1,1.1,0,0,1,1.11,1.09,3.26,3.26,0,0,1-3,2.85c-2.3,0-2.37-2.06-2.37-2.79V12.14Z" transform="translate(-0.46 -0.57)" fill="#fff"/><path d="M68.31,14.09A1.11,1.11,0,0,1,67.17,13a1,1,0,0,1,1-1.08h1.62a2,2,0,0,0,2.2-1.8c0-1.15-1.21-1.47-2-1.47a2.29,2.29,0,0,0-2.14,1.16c-.46.76-.65.94-1.18.94a1.19,1.19,0,0,1-1.33-1.16c0-1.28,1.76-3.21,4.71-3.21,2.6,0,4.4,1.46,4.4,3.63a3.24,3.24,0,0,1-1.67,2.86,3.18,3.18,0,0,1,1.87,3.1c0,2.33-1.86,4.26-4.82,4.26C66.69,20.21,65,18,65,17a1.32,1.32,0,0,1,1.3-1.19c.56,0,.77.25,1.3.94a3.09,3.09,0,0,0,2.35,1.22,2.14,2.14,0,0,0,2.27-2A2,2,0,0,0,70,14.09Z" transform="translate(-0.46 -0.57)" fill="#fff"/></g></g></g></svg>