<svg xmlns="http://www.w3.org/2000/svg" xmlns:xlink="http://www.w3.org/1999/xlink" viewBox="0 0 92.04 24.83"><defs><clipPath id="96856edc-0354-4201-a7b1-5af00afe0ba9" transform="translate(-0.95 -0.77)"><rect width="93" height="26" fill="none"/></clipPath></defs><title>point2</title><g id="2ba4fc76-305b-456d-a8a8-f4303566e104" data-name="レイヤー 2"><g id="893d44c7-ebb9-4016-a98f-a80c5b866763" data-name="レイヤー 2"><g clip-path="url(#96856edc-0354-4201-a7b1-5af00afe0ba9)"><path d="M80.47,25.6c16.68,0,16.68-24.83,0-24.83h-67c-16.68,0-16.68,24.83,0,24.83Z" transform="translate(-0.95 -0.77)" fill="#f7931e"/><path d="M21.95,19.28a1.16,1.16,0,0,1-1.25,1.11,1.1,1.1,0,0,1-1.19-1.08V8.91A1.85,1.85,0,0,1,21.6,6.84h3.75a3.82,3.82,0,0,1,4,4,3.91,3.91,0,0,1-4,4.22h-3.4Zm2.68-6.43c1.25,0,2.22-.56,2.22-1.9a1.84,1.84,0,0,0-2.08-1.87h-2c-.6,0-.84.07-.84.66v3.12Z" transform="translate(-0.95 -0.77)" fill="#fff"/><path d="M40.1,15.23c0,2.19-1,5.17-4.78,5.17s-4.8-3-4.8-5.17,1-5.18,4.8-5.18S40.1,13,40.1,15.23Zm-7.25,0c0,.84.19,2.95,2.47,2.95s2.46-2.11,2.46-2.95-.21-3-2.46-3S32.86,14.37,32.86,15.23Z" transform="translate(-0.95 -0.77)" fill="#fff"/><path d="M44.74,7.89a1.42,1.42,0,1,1-1.42-1.35A1.39,1.39,0,0,1,44.74,7.89ZM44.45,19.3a1.12,1.12,0,0,1-2.23,0V11.15a1.12,1.12,0,0,1,2.23,0Z" transform="translate(-0.95 -0.77)" fill="#fff"/><path d="M55.73,19.29a1.12,1.12,0,0,1-2.23,0V14a1.64,1.64,0,0,0-1.77-1.83,2.38,2.38,0,0,0-2.44,2.13v5a1.12,1.12,0,0,1-2.25,0V12.88c0-.3-.14-1.58-.14-1.85A1,1,0,0,1,48,10a1.45,1.45,0,0,1,1.32,1.08,3.77,3.77,0,0,1,3-1.08c2,0,3.41,1.24,3.41,3Z" transform="translate(-0.95 -0.77)" fill="#fff"/><path d="M58.09,12.34a1,1,0,0,1,0-2h.83V8.5a1.06,1.06,0,0,1,1.12-1,1,1,0,0,1,1.07,1v1.85h2.07a1,1,0,0,1,0,2H61.11v5.18c0,.2.05.52.35.52s.44-.18.69-.69c.37-.75.7-.91,1.07-.91a1.1,1.1,0,0,1,1.11,1.09,3.26,3.26,0,0,1-3,2.85c-2.3,0-2.37-2.06-2.37-2.79V12.34Z" transform="translate(-0.95 -0.77)" fill="#fff"/><path d="M67.09,20.1a1.4,1.4,0,0,1-1.58-1.45c0-2.67,2.71-4.52,3.92-5.28,2.28-1.41,3.13-2,3.13-3,0-.72-.67-1.56-2.09-1.56A2.22,2.22,0,0,0,68,10.35c-.14.4-.33,1-1.16,1a1.28,1.28,0,0,1-1.34-1.21c0-1,1.05-3.56,4.81-3.56C73,6.55,75,8,75,10.3c0,2-1.09,3-3.79,4.62-2,1.18-2.26,1.53-2.51,1.87a2.72,2.72,0,0,0-.49,1.11c0,.07.09.08.14.08h5.37c.21,0,1.3,0,1.3,1,0,.32-.12,1.09-1.3,1.09Z" transform="translate(-0.95 -0.77)" fill="#fff"/></g></g></g></svg>