<svg xmlns="http://www.w3.org/2000/svg" viewBox="0 0 188.66 33.82"><title>アセット 490</title><g id="1fcd700d-915a-4078-a30c-c91b0d7972c5" data-name="レイヤー 2"><g id="2dde98a9-4d3c-4054-b5c9-32b440403bbe" data-name="レイヤー 2"><path d="M36.39,41.32a.8.8,0,0,1-.13.47,1.11,1.11,0,0,1-.63.32,8.09,8.09,0,0,1-1.45.18q-1,0-2.61.05-1.39,0-2.21-.05a6.29,6.29,0,0,1-1.3-.19,1.47,1.47,0,0,1-.68-.35,1.81,1.81,0,0,1-.33-.52L23.2,33.92q-.69-1.24-1.35-2.2a7.41,7.41,0,0,0-1.47-1.6,5.68,5.68,0,0,0-1.87-1,8.27,8.27,0,0,0-2.45-.33H13.35V41.27a.61.61,0,0,1-.21.45,1.63,1.63,0,0,1-.71.33,8.85,8.85,0,0,1-1.32.2q-.83.08-2.12.08t-2.1-.08A8.87,8.87,0,0,1,5.55,42a1.49,1.49,0,0,1-.69-.33.63.63,0,0,1-.2-.45V11.61A1.78,1.78,0,0,1,5.4,10a3.25,3.25,0,0,1,1.83-.49H18.31q1.68,0,2.78.05t2,.13a22.55,22.55,0,0,1,4.64,1,11.84,11.84,0,0,1,3.5,1.78,7.23,7.23,0,0,1,3,6,7.92,7.92,0,0,1-.55,3A7.2,7.2,0,0,1,32,23.88a10,10,0,0,1-2.61,1.84A16.43,16.43,0,0,1,25.88,27a10.72,10.72,0,0,1,1.8.86,8.75,8.75,0,0,1,1.59,1.22,12.05,12.05,0,0,1,1.4,1.64A19.58,19.58,0,0,1,32,32.79l3.6,6.44a15,15,0,0,1,.66,1.4A2.13,2.13,0,0,1,36.39,41.32ZM25.18,19.16a4,4,0,0,0-1-2.73,5.51,5.51,0,0,0-3.14-1.56q-.66-.13-1.5-.2t-2.33-.08h-3.9v9.26h4.43A13.7,13.7,0,0,0,21,23.51a7.25,7.25,0,0,0,2.31-1,4.16,4.16,0,0,0,1.39-1.48A4,4,0,0,0,25.18,19.16Z" transform="translate(-4.66 -8.93)" fill="#150e04"/><path d="M66.8,39.58a7.63,7.63,0,0,1-.08,1.22,2.59,2.59,0,0,1-.25.79,1.08,1.08,0,0,1-.41.44,1.1,1.1,0,0,1-.55.14H44a3.25,3.25,0,0,1-1.83-.49,1.78,1.78,0,0,1-.74-1.6V11.61A1.78,1.78,0,0,1,42.2,10,3.25,3.25,0,0,1,44,9.52H65.38a1.09,1.09,0,0,1,.53.13,1,1,0,0,1,.4.44,2.74,2.74,0,0,1,.25.81,7.81,7.81,0,0,1,.08,1.25,7.42,7.42,0,0,1-.08,1.2,2.57,2.57,0,0,1-.25.79,1.13,1.13,0,0,1-.4.44,1,1,0,0,1-.53.14H50.11v8H63a1.06,1.06,0,0,1,1,.57,2.42,2.42,0,0,1,.25.78,8.79,8.79,0,0,1,0,2.41,2.4,2.4,0,0,1-.25.77,1,1,0,0,1-.41.42,1.18,1.18,0,0,1-.54.13H50.11V37h15.4a1.1,1.1,0,0,1,.55.14,1.08,1.08,0,0,1,.41.44,2.59,2.59,0,0,1,.25.79A7.63,7.63,0,0,1,66.8,39.58Z" transform="translate(-4.66 -8.93)" fill="#150e04"/><path d="M101.83,37.23a9.79,9.79,0,0,1,0,1.07,4,4,0,0,1-.15.76,1.84,1.84,0,0,1-.26.54,2.89,2.89,0,0,1-.53.52,7,7,0,0,1-1.4.74,19.41,19.41,0,0,1-2.54.87,27.81,27.81,0,0,1-3.44.69,29.48,29.48,0,0,1-4.18.28,28.22,28.22,0,0,1-7.93-1,16.58,16.58,0,0,1-6-3.09,13.47,13.47,0,0,1-3.8-5.14,18.06,18.06,0,0,1-1.32-7.17,17.84,17.84,0,0,1,1.45-7.4,15,15,0,0,1,4.07-5.43A17.82,17.82,0,0,1,82,10.12,27,27,0,0,1,90,9a25.26,25.26,0,0,1,3.44.23,26.47,26.47,0,0,1,3.06.59,18.11,18.11,0,0,1,2.53.85,8,8,0,0,1,1.57.82,3.14,3.14,0,0,1,.61.57,1.82,1.82,0,0,1,.26.58,5,5,0,0,1,.15.83,11.79,11.79,0,0,1,0,1.19,10.64,10.64,0,0,1-.07,1.29,2.65,2.65,0,0,1-.23.86,1.2,1.2,0,0,1-.4.48.94.94,0,0,1-.53.15A2.67,2.67,0,0,1,99.22,17q-.76-.44-2-1a18.82,18.82,0,0,0-2.88-1,15.72,15.72,0,0,0-4-.44,12.22,12.22,0,0,0-4.54.79,9.44,9.44,0,0,0-3.4,2.27,9.73,9.73,0,0,0-2.13,3.57,14.33,14.33,0,0,0-.73,4.72,14.4,14.4,0,0,0,.78,5,9,9,0,0,0,2.21,3.47,9.1,9.1,0,0,0,3.47,2,14.6,14.6,0,0,0,4.58.67,16.85,16.85,0,0,0,4-.42,20,20,0,0,0,2.89-.92q1.21-.5,2-.91a2.91,2.91,0,0,1,1.21-.4,1.18,1.18,0,0,1,.53.1.78.78,0,0,1,.33.4,3.21,3.21,0,0,1,.2.85A12.62,12.62,0,0,1,101.83,37.23Z" transform="translate(-4.66 -8.93)" fill="#150e04"/><path d="M116.15,41.27a.61.61,0,0,1-.21.45,1.63,1.63,0,0,1-.71.33,8.84,8.84,0,0,1-1.32.2q-.83.08-2.12.08t-2.1-.08a8.87,8.87,0,0,1-1.34-.2,1.62,1.62,0,0,1-.71-.33.61.61,0,0,1-.21-.45V10.42a.61.61,0,0,1,.21-.45,1.65,1.65,0,0,1,.73-.33,9.34,9.34,0,0,1,1.34-.2q.83-.08,2.08-.08t2.12.08a8.84,8.84,0,0,1,1.32.2,1.64,1.64,0,0,1,.71.33.62.62,0,0,1,.21.45Z" transform="translate(-4.66 -8.93)" fill="#150e04"/><path d="M150.6,39.55a7.86,7.86,0,0,1-.08,1.24,2.72,2.72,0,0,1-.25.82,1,1,0,0,1-.41.44,1.18,1.18,0,0,1-.54.13H124.09a3.13,3.13,0,0,1-2-.58,2.05,2.05,0,0,1-.71-1.69V38.79a4.7,4.7,0,0,1,.08-.92,3.77,3.77,0,0,1,.28-.85,5.27,5.27,0,0,1,.58-.93q.38-.5.94-1.21l16.59-20.09H123.37a1.51,1.51,0,0,1-.68-.14,1.11,1.11,0,0,1-.46-.44,2.29,2.29,0,0,1-.26-.81,7.68,7.68,0,0,1-.08-1.21,8.32,8.32,0,0,1,.08-1.27,2.45,2.45,0,0,1,.26-.83,1,1,0,0,1,.46-.44,1.65,1.65,0,0,1,.68-.13H147a3.12,3.12,0,0,1,2,.53,1.82,1.82,0,0,1,.64,1.49v1.24a7.26,7.26,0,0,1-.08,1.17,3.79,3.79,0,0,1-.3,1,5.51,5.51,0,0,1-.58,1q-.36.49-.93,1.17L131.43,36.85h17.88a1,1,0,0,1,1,.61A4.72,4.72,0,0,1,150.6,39.55Z" transform="translate(-4.66 -8.93)" fill="#150e04"/><path d="M193.32,25.47A18.93,18.93,0,0,1,192,32.74a14.17,14.17,0,0,1-3.93,5.44,17.76,17.76,0,0,1-6.46,3.41,30.6,30.6,0,0,1-8.91,1.17,33.84,33.84,0,0,1-8.71-1,16.18,16.18,0,0,1-6.2-3,12.55,12.55,0,0,1-3.72-5.2A20.4,20.4,0,0,1,152.84,26a18.36,18.36,0,0,1,1.32-7.13,14.1,14.1,0,0,1,3.93-5.39,18,18,0,0,1,6.46-3.41,30.44,30.44,0,0,1,8.94-1.19,33.65,33.65,0,0,1,8.58,1,16.2,16.2,0,0,1,6.21,3,12.81,12.81,0,0,1,3.77,5.16A19.4,19.4,0,0,1,193.32,25.47Zm-9.12.35a19.3,19.3,0,0,0-.53-4.68,8.8,8.8,0,0,0-1.8-3.61,8.24,8.24,0,0,0-3.39-2.32,14.75,14.75,0,0,0-5.29-.82,13.62,13.62,0,0,0-5.35.92,9.32,9.32,0,0,0-3.47,2.46,9,9,0,0,0-1.87,3.6,16.94,16.94,0,0,0-.55,4.35,20,20,0,0,0,.53,4.81,9,9,0,0,0,1.78,3.65,7.86,7.86,0,0,0,3.37,2.31,15.27,15.27,0,0,0,5.32.79,13.79,13.79,0,0,0,5.35-.91,9.07,9.07,0,0,0,3.47-2.47,9.17,9.17,0,0,0,1.87-3.65A17.43,17.43,0,0,0,184.2,25.82Z" transform="translate(-4.66 -8.93)" fill="#150e04"/></g></g></svg>