<svg xmlns="http://www.w3.org/2000/svg" xmlns:xlink="http://www.w3.org/1999/xlink" viewBox="0 0 226 32"><defs><clipPath id="b9a935c7-6978-48ef-9cb5-71d2cf556a2a" transform="translate(-0.73 -1)"><rect width="227" height="33" fill="none"/></clipPath></defs><title>scene</title><g id="5b18b3b8-4092-455c-89f7-b7d2fd2e2247" data-name="レイヤー 2"><g id="2e7eedd8-35d5-40a9-a889-1a537d7e06ff" data-name="レイヤー 2"><g clip-path="url(#b9a935c7-6978-48ef-9cb5-71d2cf556a2a)"><path d="M213.74,33c17.32,0,17.32-32,0-32h-200C-3.6,1-3.6,33,13.72,33Z" transform="translate(-0.73 -1)" fill="#f7931e"/><path d="M37,20.28c.37,1.19,1.08,1.5,2.9,1.5a14.42,14.42,0,0,0,2.67-.29c.23,0,1.19-.23,1.34-.23a1,1,0,0,1,1,1.1c0,.94-.66,1.08-1.22,1.19a22,22,0,0,1-3.74.34c-1.41,0-3.18-.11-4.26-1.51a3.47,3.47,0,0,1-.71-1.92,1,1,0,0,1,1.1-1C36.76,19.48,36.86,19.82,37,20.28Zm.26-7.23a10,10,0,0,1,1,.15,12.83,12.83,0,0,0,1.93.14,13.19,13.19,0,0,0,1.54-.09c.19,0,.76-.09.91-.09.56,0,.93.37.93,1.11,0,.93-.39,1.19-3.21,1.19-4.11,0-4.11-.6-4.11-1.36A.94.94,0,0,1,37.27,13.06Z" transform="translate(-0.73 -1)"/><path d="M54.09,16.59a2,2,0,0,1,2.15,2.12c0,.54-.53,3.17-.52,3.39a.36.36,0,0,0,.37.39c.82,0,1.75-1.14,1.95-1.41.73-.93.8-1,1.22-1a1,1,0,0,1,1,1c0,.23,0,.57-.74,1.41-1.58,1.87-2.81,2-3.49,2a2.11,2.11,0,0,1-2.32-2.27A10,10,0,0,1,54,20.09c0-.19.2-1.07.2-1.13,0-.28-.11-.45-.36-.45-.43,0-2.9.2-4.28,4.27-.45,1.33-.54,1.61-1.22,1.61-.09,0-1.1,0-1.1-.93s2-5.29,4.19-9c1.56-2.63,1.7-2.78,2.32-2.78a1.06,1.06,0,0,1,1.08,1c0,.31-.09.45-.93,1.67-1.17,1.7-1.54,2.35-1.84,2.86A4.55,4.55,0,0,1,54.09,16.59Z" transform="translate(-0.73 -1)"/><path d="M65.65,11.93a.89.89,0,0,1,.95-.62c.53,0,1.07.26,1.07.82a5.38,5.38,0,0,1-.26,1.27,6.56,6.56,0,0,1,1-.22.86.86,0,0,1,.86,1c0,.88-.62,1-2.45,1.28A42.63,42.63,0,0,1,65,20.26c-.74,1.63-.93,2-1.58,2a1.08,1.08,0,0,1-1.11-1c0-.25,0-.34.54-1.25a27.65,27.65,0,0,0,1.85-4.29,9,9,0,0,1-.94.06.94.94,0,0,1-1.08-1c0-.88.62-.9.93-.91l1.67-.06C65.31,13.46,65.59,12.12,65.65,11.93Zm3,6.43c0-1.16.54-2.32,1.38-2.32a1.07,1.07,0,0,1,1.11.93,1.34,1.34,0,0,1-.29.71,1.27,1.27,0,0,0-.23.82c0,.39.2,2.08.23,2.42,1.31.55,2.66,1.25,2.66,2.08a1,1,0,0,1-1,1.08c-.33,0-.43-.08-1-.49-.32-.25-.46-.34-.68-.48C70.58,25,68.42,25,68.13,25c-1.56,0-2.66-.89-2.66-2.19,0-.91.64-2.51,3.37-2.34C68.79,19.93,68.65,18.62,68.65,18.36Zm-.37,3.84c-.48,0-1,.15-1,.57s.55.48.69.48c1,0,1-.63,1-1A3.22,3.22,0,0,0,68.28,22.2Zm4.9-7.5c.82.82,1,1.08,1,1.52a1.08,1.08,0,0,1-1.08,1c-.42,0-.53-.12-1.1-.8A11.34,11.34,0,0,0,71,15.41a.82.82,0,0,1-.34-.63,1,1,0,0,1,1.08-1C72.14,13.75,72.37,13.89,73.18,14.7Z" transform="translate(-0.73 -1)"/><path d="M78.22,20.28c.37,1.19,1.08,1.5,2.9,1.5a14.42,14.42,0,0,0,2.67-.29c.23,0,1.19-.23,1.34-.23a1,1,0,0,1,1,1.1c0,.94-.66,1.08-1.22,1.19a22,22,0,0,1-3.74.34c-1.41,0-3.18-.11-4.26-1.51a3.47,3.47,0,0,1-.71-1.92,1,1,0,0,1,1.1-1C78,19.48,78.08,19.82,78.22,20.28Zm.26-7.23a10,10,0,0,1,1,.15,12.83,12.83,0,0,0,1.93.14A13.19,13.19,0,0,0,83,13.26c.19,0,.76-.09.91-.09.56,0,.93.37.93,1.11,0,.93-.39,1.19-3.21,1.19-4.11,0-4.11-.6-4.11-1.36A.94.94,0,0,1,78.48,13.06Z" transform="translate(-0.73 -1)"/><path d="M91.12,12.89c0-1,1-1,1.13-1,1,0,1,.57,1.05,1a20.47,20.47,0,0,0,.42,3.48,10.66,10.66,0,0,1,2.94-1.36,1.15,1.15,0,0,1,1.08,1.16c0,.51-.14.57-1.44,1.21-4.5,2.18-4.74,3.21-4.74,3.88,0,1,1.05,1.19,2.26,1.19a14.39,14.39,0,0,0,2.46-.23c.22,0,1.11-.19,1.27-.19a.93.93,0,0,1,1,1,1,1,0,0,1-.8,1,25,25,0,0,1-3.83.31c-1.07,0-4.31,0-4.31-3.12,0-1.75,1-2.7,2.29-3.68A31.05,31.05,0,0,1,91.12,12.89Z" transform="translate(-0.73 -1)"/><path d="M107.3,21.51a8.33,8.33,0,0,1,.12.88,1,1,0,0,1-1,1,.87.87,0,0,1-.76-.39,4.42,4.42,0,0,1-2.48.9,1.83,1.83,0,0,1-1.92-2c0-1.78,1.52-3.94,4-5.22,0-.5,0-.56.08-1-1,.11-1.74.19-2.17.19-.23,0-1,0-1-1.05a.82.82,0,0,1,.84-.9l2.51-.14c.23-1.68.31-2.22,1.19-2.24.42,0,1.08.19,1.08.85a9.49,9.49,0,0,1-.2,1.07,15.33,15.33,0,0,0,1.71-.37,3.33,3.33,0,0,1,.85-.19.88.88,0,0,1,.88,1,.83.83,0,0,1-.71.91c-.72.2-2.47.48-3,.57a4.85,4.85,0,0,0-.06.56,8.81,8.81,0,0,1,1.8-.19c2.92,0,4.57,1.74,4.57,4.21,0,3.93-4.4,5.17-5,5.17a1,1,0,0,1-.94-1.05c0-.59.31-.7,1-.91s3-1.16,3-3.26a2.19,2.19,0,0,0-1.76-2.32A15.4,15.4,0,0,1,107.3,21.51Zm-4.22.14a.3.3,0,0,0,.31.36,4,4,0,0,0,1.88-1c-.06-.77-.09-1.56-.11-2.33C104.07,19.52,103.08,20.85,103.08,21.65ZM107,17.78c0,.82,0,1.22,0,1.59a10.93,10.93,0,0,0,1-1.87A5.74,5.74,0,0,0,107,17.78Z" transform="translate(-0.73 -1)"/><path d="M119.23,15.81a.8.8,0,0,1,.82.73c0,.19,0,.29-.51,1.31a5.74,5.74,0,0,0-.53,1.9.84.84,0,0,1-.91.74,1,1,0,0,1-1-.67,9.94,9.94,0,0,1-.46-3.34,18.49,18.49,0,0,1,.42-3.88c.09-.4.22-.94,1-.94.14,0,1,0,1,.83,0,.31-.31,1.7-.35,2a14.51,14.51,0,0,0-.19,1.75A.71.71,0,0,1,119.23,15.81Zm4.8-3.17a21.93,21.93,0,0,1,.26,3.79c0,2.67-.26,5.16-2.05,7.29-.14.17-1.47,1.7-2.44,1.7a1.09,1.09,0,0,1-1.13-1.07c0-.39.09-.46,1-1.11,2.13-1.59,2.59-4,2.59-6.89,0-.73-.08-2.07-.13-2.7,0-.22-.09-.8-.09-.94,0-.62.42-.9,1-.9A.93.93,0,0,1,124,12.64Z" transform="translate(-0.73 -1)"/><path d="M132.42,12.25a1,1,0,0,1,2-.22c0,.12,0,.28,0,1.39.46,0,2.86-.37,3-.37a.82.82,0,0,1,.91.93c0,.91-.2.93-3.85,1.24,0,.34,0,.46,0,1.61.36,0,1.9-.28,2.22-.28a.8.8,0,0,1,.87.9c0,.9-.37,1-3.06,1.16,0,.35,0,1.9,0,2.22A9.62,9.62,0,0,1,137,22c.51.34.71.55.71,1a1.07,1.07,0,0,1-1,1.13c-.32,0-.42-.06-1.16-.6a7.3,7.3,0,0,0-1-.6c-.26,1.75-1.62,2.18-2.91,2.18-1.48,0-3-.64-3-2.28,0-1.2,1-2.37,3.33-2.37a5.16,5.16,0,0,1,.65,0c0-.26,0-1.59,0-1.73-.91,0-1.92,0-2.33,0s-1.22,0-1.22-1a.8.8,0,0,1,.9-.9c.31,0,2.21.09,2.63.09,0-.31,0-.85,0-1.6-1,0-1.5.06-2.21.06-1.75,0-2.34,0-2.34-1a.83.83,0,0,1,.91-.91c.31,0,1.69.08,2,.08.46,0,.81,0,1.61,0C132.47,13.35,132.42,12.43,132.42,12.25Zm-.61,9.88c-1.17,0-1.28.48-1.28.66,0,.37.59.45.88.45,1,0,1.1-.57,1.14-1A4.36,4.36,0,0,0,131.82,22.13Z" transform="translate(-0.73 -1)"/><path d="M145.18,19.4a7,7,0,0,0,.2,2.3c.31.68,1.32.76,2.42.76a10,10,0,0,0,1.33-.09c.34,0,1.05-.15,1.19-.15a.87.87,0,0,1,.88,1c0,.93-.57,1.21-2.78,1.21-4.49,0-5.18-1.13-5.25-4.56l0-1.95c-.87.11-1.81.25-2,.25a.93.93,0,0,1-1-1.05c0-.73.54-.88,1-.93l1.92-.19,0-2.27a.92.92,0,0,1,1-1,.89.89,0,0,1,1,1l0,2.12,3.49-.43c0-.82,0-1.27,0-1.78,0-.12,0-.62,0-.79,0-.63.53-.88,1.07-.88s1,.4,1,1.1V15c.59-.09,1.9-.28,2.07-.28a.9.9,0,0,1,1,1,.89.89,0,0,1-.83.94c-.29.06-1.87.22-2.27.25-.19,2.19-.34,4-2.41,4-.63,0-1.63-.16-1.63-1,0-.45.23-.93.75-.93.15,0,.6.12.66.12.23,0,.32-.17.38-.45a9.63,9.63,0,0,0,.2-1.51l-3.37.4Z" transform="translate(-0.73 -1)"/><path d="M160.86,16.59A2,2,0,0,1,163,18.71c0,.54-.53,3.17-.52,3.39a.36.36,0,0,0,.37.39c.82,0,1.75-1.14,1.95-1.41.73-.93.8-1,1.22-1a1,1,0,0,1,1,1c0,.23,0,.57-.74,1.41-1.58,1.87-2.81,2-3.49,2a2.11,2.11,0,0,1-2.32-2.27,10,10,0,0,1,.29-2.17c0-.19.2-1.07.2-1.13,0-.28-.11-.45-.36-.45-.43,0-2.9.2-4.28,4.27-.45,1.33-.54,1.61-1.22,1.61-.09,0-1.1,0-1.1-.93s2-5.29,4.19-9c1.56-2.63,1.7-2.78,2.32-2.78a1.06,1.06,0,0,1,1.08,1c0,.31-.09.45-.93,1.67-1.17,1.7-1.54,2.35-1.84,2.86A4.55,4.55,0,0,1,160.86,16.59Z" transform="translate(-0.73 -1)"/><path d="M171.5,21.79c-1.13,2-1.48,2-1.85,2a1.09,1.09,0,0,1-1.11-1c0-.33.12-.48.49-1a17,17,0,0,0,2.35-4.47c-.28,0-1.51.29-1.76.29-.83,0-.87-.85-.87-1,0-.74.4-.84.74-.91s2-.33,2.5-.39c.19-.77.2-.9.43-2.16.09-.53.26-.93,1-.93s1.05.39,1.05.88a13.5,13.5,0,0,1-.39,2c1.05,0,3.17-.14,3.17,2.62a14.8,14.8,0,0,1-.88,4.47A2.34,2.34,0,0,1,174,23.91c-.37,0-2,0-2-1.15a.93.93,0,0,1,.9-1.05c.19,0,.93.23,1,.23.39,0,.6-.39.83-1.16a12.86,12.86,0,0,0,.54-3c0-.59-.12-.82-.93-.82-.25,0-.54,0-.77,0A26.72,26.72,0,0,1,171.5,21.79Zm9-2.15c-.63,0-.79-.32-1.07-1a11,11,0,0,0-1.37-2.43c-.31-.37-.43-.53-.43-.81a1.11,1.11,0,0,1,1.13-1c.5,0,.88.31,1.64,1.52a7.15,7.15,0,0,1,1.25,2.69A1.06,1.06,0,0,1,180.51,19.64Z" transform="translate(-0.73 -1)"/><path d="M192.26,15.08c0,1.32-.44,1.69-2.31,3.29-.81.69-.83.94-.87,1.46a1,1,0,0,1-1,1.08,1,1,0,0,1-1-1.11c0-1.58,1.08-2.46,2.27-3.34.63-.48,1-.77,1-1.37s-.41-1.37-1.87-1.37c-.78,0-2.33.12-2.33,1.53a1.31,1.31,0,0,0,.12.58c.21.36.22.41.22.63,0,.38-.3.76-.93.76-1.12,0-1.44-1.41-1.44-2A3.16,3.16,0,0,1,185,13a5.47,5.47,0,0,1,3.3-1C188.91,11.91,192.26,11.91,192.26,15.08Zm-2.87,7.81a1.39,1.39,0,1,1-1.4-1.38A1.38,1.38,0,0,1,189.39,22.89Z" transform="translate(-0.73 -1)"/></g></g></g></svg>